<svg width="40" height="40" viewBox="0 0 40 40" fill="none" xmlns="http://www.w3.org/2000/svg">
<path fill-rule="evenodd" clip-rule="evenodd" d="M19.9998 26.6658C19.6198 26.6658 19.2415 26.5375 18.9332 26.2792L8.93316 17.9458C8.22649 17.3575 8.12983 16.3058 8.71983 15.5992C9.30816 14.8925 10.3582 14.7975 11.0665 15.3858L20.0182 22.8458L28.9548 15.6542C29.6715 15.0775 30.7215 15.1908 31.2982 15.9075C31.8748 16.6242 31.7615 17.6725 31.0448 18.2508L21.0448 26.2975C20.7398 26.5425 20.3698 26.6658 19.9998 26.6658Z" fill="white"/>
<mask id="mask0_64_22" style="mask-type:alpha" maskUnits="userSpaceOnUse" x="8" y="15" width="24" height="12">
<path fill-rule="evenodd" clip-rule="evenodd" d="M19.9998 26.6658C19.6198 26.6658 19.2415 26.5375 18.9332 26.2792L8.93316 17.9458C8.22649 17.3575 8.12983 16.3058 8.71983 15.5992C9.30816 14.8925 10.3582 14.7975 11.0665 15.3858L20.0182 22.8458L28.9548 15.6542C29.6715 15.0775 30.7215 15.1908 31.2982 15.9075C31.8748 16.6242 31.7615 17.6725 31.0448 18.2508L21.0448 26.2975C20.7398 26.5425 20.3698 26.6658 19.9998 26.6658Z" fill="white"/>
</mask>
<g mask="url(#mask0_64_22)">
</g>
</svg>
