<?xml version="1.0" standalone="no"?>
<!DOCTYPE svg PUBLIC "-//W3C//DTD SVG 1.1//EN" "http://www.w3.org/Graphics/SVG/1.1/DTD/svg11.dtd" >
<svg xmlns="http://www.w3.org/2000/svg" xmlns:xlink="http://www.w3.org/1999/xlink" version="1.1">
<metadata>
Created by FontForge 20170731 at Sat Jul 20 17:31:20 2019
 By Aleksey,,,
Copyright (c) 2019 by Fontastica. All rights reserved.
</metadata>
<defs>
<font id="Qartella-Bold" horiz-adv-x="659" >
  <font-face 
    font-family="Qartella"
    font-weight="700"
    font-stretch="normal"
    units-per-em="1000"
    panose-1="0 0 8 0 0 0 0 0 0 0"
    ascent="800"
    descent="-200"
    x-height="502"
    cap-height="771"
    bbox="-77 -269 971 821"
    underline-thickness="50"
    underline-position="-150"
    unicode-range="U+0020-2212"
  />
<missing-glyph horiz-adv-x="637" 
d="M597 762v-759l-557 -2v759l1 2l555 2zM551 723l-465 -2v-679l465 2v679zM320 418l142 142l39 -39l1 -2l-143 -142l141 -139v-3l-36 -36l-140 140l-142 -142l-40 39l140 145l-139 140v2l36 36h3z" />
    <glyph glyph-name=".notdef" horiz-adv-x="637" 
d="M597 762v-759l-557 -2v759l1 2l555 2zM551 723l-465 -2v-679l465 2v679zM320 418l142 142l39 -39l1 -2l-143 -142l141 -139v-3l-36 -36l-140 140l-142 -142l-40 39l140 145l-139 140v2l36 36h3z" />
    <glyph glyph-name=".null" horiz-adv-x="0" 
 />
    <glyph glyph-name="nonmarkingreturn" horiz-adv-x="333" 
 />
    <glyph glyph-name="space" unicode=" " horiz-adv-x="276" 
 />
    <glyph glyph-name="exclam" unicode="!" horiz-adv-x="306" 
d="M181 203q11 0 18 6.5t7 16.5l2 520q0 10 -6.5 17.5t-18.5 7.5h-60q-11 0 -18 -7.5t-7 -17.5l2 -520q0 -10 7 -16.5t18 -6.5h56zM102.5 9q18.5 -20 50.5 -20t50.5 20t18.5 48t-18.5 47t-50.5 19t-50.5 -19t-18.5 -47t18.5 -48z" />
    <glyph glyph-name="quotedbl" unicode="&#x22;" horiz-adv-x="423" 
d="M56 491q15 -18 29 -18q6 0 14 4q35 19 62.5 55t42 79t14.5 80q0 39 -17 70t-62 31q-36 0 -55.5 -22.5t-19.5 -53.5q0 -27 15 -46.5t43 -24.5q-9 -48 -49 -88l-11 -10q-15 -11 -13 -10q-8 -8 -8 -18t15 -28zM221.5 491q14.5 -18 28.5 -18q8 0 14 4q35 19 62.5 55.5t42 79
t14.5 79.5q0 39 -17 70t-62 31q-35 0 -55 -22.5t-20 -53.5q0 -26 15.5 -46t43.5 -25q-6 -31 -23 -55t-50 -53q-8 -8 -8 -18t14.5 -28z" />
    <glyph glyph-name="numbersign" unicode="#" horiz-adv-x="739" 
d="M104 6.5q6 -6.5 17 -6.5h47q11 0 18.5 6.5t9.5 14.5l54 200h142l-27 -95q-27 -100 -27 -105q0 -11 7.5 -16t16.5 -5h47q11 0 18.5 6t9.5 15l54 200h116q10 0 18 6.5t11 14.5l7 21l4 12q1 2 2 5t1 7q0 10 -7 15t-17 5h-112l39 143h101q21 0 28 19l8 21l5 12l2 6l1 6
q0 9 -7 15t-16 6h-101q7 22 19 67l10 35q30 104 30 112q0 10 -7.5 16t-16.5 6h-48q-20 0 -27 -21l-58 -215h-141l28 102q28 104 28 113t-7 15t-16 6h-47q-11 0 -18.5 -6.5t-9.5 -14.5l-57 -215h-101q-23 0 -30 -20l-8 -21q-3 -7 -5 -13t-2 -12q0 -9 7 -14t15 -5h100
l-38 -143h-88q-10 0 -18.5 -5.5t-11.5 -14.5l-7 -21q-1 -3 -2 -6.5t-3 -6.5l-1 -6q-1 -2 -1 -5q0 -10 8 -15.5t16 -5.5h84q-12 -42 -25 -94q-27 -100 -27 -106q0 -8 6 -14.5zM453 450l-37 -143h-142l38 143h141z" />
    <glyph glyph-name="dollar" unicode="$" horiz-adv-x="639" 
d="M285.5 -112q6.5 -7 18.5 -7h34q12 0 18.5 7t6.5 17v86q106 8 166.5 65.5t60.5 155.5q0 91 -61 138.5t-166 75.5v249q37 -5 68.5 -20t63.5 -40q6 -5 15 -5t15 7q5 5 6 8q2 3 12 20l10 22l3 9l2 9q0 11 -7 19q-4 6 -13 12q-3 2 -6.5 4.5t-6.5 4.5q-65 44 -161 53v13
q0 10 -4 18q-8 12 -22 12h-30q-7 0 -11 -1q-6 -1 -12 -6q-4 -6 -6 -11l-1 -10v-15q-61 -8 -111.5 -36t-80.5 -73.5t-30 -103.5q0 -93 60 -148.5t163 -83.5v-239q-44 7 -86.5 26t-71.5 46l-6 6h-6q-2 1 -7 1q-9 0 -21 -15t-21.5 -33.5t-9.5 -22.5q0 -9 7 -18q4 -6 15 -14
q15 -12 14 -11q79 -56 193 -68v-86q0 -10 6.5 -17zM279 451q-59 19 -88 44t-29 71q0 42 33 71t84 38v-224zM363 312q57 -17 89 -40t32 -62q0 -50 -33 -80.5t-88 -37.5v220z" />
    <glyph glyph-name="percent" unicode="%" horiz-adv-x="836" 
d="M266 0q7 0 14.5 4.5t10.5 9.5l432 755q3 4 3 13q0 11 -7.5 15t-14.5 4h-58q-9 0 -17 -6q-3 -3 -7 -9l-431 -755l-3 -4q-2 -4 -2 -9q0 -10 7 -14t14 -4h59zM63.5 511.5q21.5 -40.5 63 -64t97.5 -23.5q57 0 98 23.5t62.5 64t21.5 90.5t-21.5 90.5t-62.5 64t-98 23.5
q-56 0 -97.5 -23.5t-63 -64t-21.5 -90.5t21.5 -90.5zM281 545.5q-20 -21.5 -57 -21.5q-36 0 -57.5 22t-21.5 57q0 34 22 56t57 22q37 0 57 -21.5t20 -56.5q0 -36 -20 -57.5zM507 77.5q22 -40.5 63.5 -64.5t97.5 -24t97.5 23.5t63 64.5t21.5 91t-21.5 90.5t-63 64t-97.5 23.5
t-97.5 -24t-63.5 -64.5t-22 -89.5q0 -50 22 -90.5zM725 110.5q-21 -21.5 -58 -21.5q-36 0 -56.5 22t-20.5 57q0 34 21 56t56 22q36 0 57.5 -21.5t21.5 -56.5q0 -36 -21 -57.5z" />
    <glyph glyph-name="ampersand" unicode="&#x26;" horiz-adv-x="756" 
d="M74.5 102q41.5 -58 112 -88.5t153.5 -30.5q129 0 218 87l65 -59q4 -4 14 -7.5t16 -3.5h69q6 0 10 2q5 1 9 5t4 11q0 5 -4 10l-4 5l-15 15q-15 15 -25 23l-18 17l-64 58q32 58 47.5 126t15.5 137q0 9 -7.5 16.5t-18.5 7.5h-54q-13 0 -19 -7t-7 -16t-1 -28l-2 -28
q-8 -73 -35 -133l-203 187l-42 39q-29 29 -42 45q-44 52 -44 94q0 43 23.5 70t65.5 27q37 0 63 -26l9 -10q2 -4 4 -6t3 -4l8 -8q7 -7 16 -7q6 0 14 6l10.5 7t18.5 13q6 3 18 13l7 7q4 8 4 12q0 7 -3 11q-23 45 -66.5 67t-99.5 22q-61 0 -106.5 -25t-69.5 -69t-24 -98
q0 -75 63 -147q-63 -30 -95.5 -83t-32.5 -120q0 -78 41.5 -136zM417 97.5q-36 -15.5 -78 -15.5q-53 0 -99 18.5t-73.5 54t-27.5 83.5q0 45 24 80.5t67 52.5l250 -229q-27 -29 -63 -44.5z" />
    <glyph glyph-name="quotesingle" unicode="'" horiz-adv-x="258" 
d="M56 491q15 -18 29 -18q6 0 14 4q35 19 62.5 55t42 79t14.5 80q0 39 -17 70t-62 31q-36 0 -55.5 -22.5t-19.5 -53.5q0 -26 15.5 -46t43.5 -25q-10 -48 -50 -88l-11 -10q-15 -11 -13 -10q-8 -8 -8 -18t15 -28z" />
    <glyph glyph-name="parenleft" unicode="(" horiz-adv-x="345" 
d="M257 -172q7 0 11 2q10 6 10 16q0 4 -4 12q-57 85 -89 203.5t-32 226.5v10q0 115 31.5 228.5t90.5 214.5q4 8 4 12q0 9 -10 15q-7 3 -12 3h-51q-19 0 -30 -17q-12 -18 -20 -35l-17 -35q-43 -92 -66 -190.5t-23 -195.5q0 -100 22.5 -198t66.5 -188l17 -34q8 -16 21 -34
q11 -16 29 -16h51z" />
    <glyph glyph-name="parenright" unicode=")" horiz-adv-x="345" 
d="M140 -172q16 0 28 15q7 8 19 30q5 9 8.5 16t6.5 12q46 92 70 193.5t24 203.5q0 199 -95 397q-2 3 -14 30q-3 5 -8.5 15t-9.5 15q-13 16 -29 16h-52q-7 0 -12 -3q-10 -5 -10 -15q0 -5 4 -13q57 -92 89.5 -212t32.5 -230v-10q0 -97 -23 -194t-68 -183q-9 -18 -18 -31
q-2 -4 -5.5 -9.5t-7.5 -12.5q-4 -6 -4 -12q0 -10 8 -14t14 -4h52z" />
    <glyph glyph-name="asterisk" unicode="*" horiz-adv-x="482" 
d="M141 352q13 0 22 11l79 109l78 -109q1 -1 5.5 -6t14.5 -5q11 0 18 6l38 36q9 9 9 18q0 10 -7 17l-83 95l122 68q6 4 9 9.5t3 11.5q0 5 -2 9l-3 7q-2 3 -4.5 7t-5.5 9l-18 25q-7 11 -21 11l-6 -1h-5l-97 -65l6 129q1 10 -6 17.5t-19 7.5h-54q-12 0 -19 -7.5t-6 -17.5
l6 -129l-97 65h-5l-6 1q-15 0 -21 -11l-18 -25q-2 -4 -4.5 -8t-4.5 -8l-4 -8q-2 -4 -2 -9q0 -6 4 -11.5t9 -8.5l122 -67l-84 -96q-7 -7 -7 -17t8 -18l39 -36q7 -6 17 -6z" />
    <glyph glyph-name="plus" unicode="+" horiz-adv-x="629" 
d="M342 79q12 0 18.5 7t6.5 17v175h175q11 0 18.5 7.5t7.5 16.5v49q0 9 -7.5 16.5t-18.5 7.5h-175v174q0 10 -6.5 17.5t-18.5 7.5h-55q-11 0 -18.5 -7.5t-7.5 -17.5v-174h-173q-12 0 -19 -7t-7 -17v-49q0 -10 7 -17t19 -7h173v-175q0 -10 7 -17t19 -7h55z" />
    <glyph glyph-name="comma" unicode="," horiz-adv-x="280" 
d="M67.5 -153q15.5 -19 28.5 -19q6 0 14 4q53 29 86 92.5t33 122.5q0 38 -17 68.5t-62 30.5q-35 0 -55 -21t-20 -51q0 -27 15.5 -47.5t43.5 -25.5q-9 -47 -50 -87q-6 -6 -11 -9l-13 -11q-8 -8 -8 -18t15.5 -29z" />
    <glyph glyph-name="hyphen" unicode="-" horiz-adv-x="463" 
d="M375 279q12 0 19 7t7 17v49q0 10 -7 17t-19 7h-287q-12 0 -19 -7t-7 -17v-49q0 -10 7 -17t19 -7h287z" />
    <glyph glyph-name="period" unicode="." horiz-adv-x="319" 
d="M104.5 11q20.5 -22 54.5 -22t54.5 22t20.5 52q0 31 -20 52t-55 21t-55 -21t-20 -52q0 -30 20.5 -52z" />
    <glyph glyph-name="slash" unicode="/" horiz-adv-x="437" 
d="M74 0q8 0 17 5.5t12 12.5l175 398l41 93q45 104 68 155q22 54 35 81l10 23l3 7l1 7q0 10 -7.5 14.5t-14.5 4.5h-51q-9 0 -17 -5t-12 -12l-175 -398l-109 -248l-35 -82q-7 -14 -10 -23l-3 -6l-2 -7q0 -8 6 -14t16 -6h52z" />
    <glyph glyph-name="zero" unicode="0" horiz-adv-x="911" 
d="M144.5 194q39.5 -87 119 -141t191.5 -54q113 0 192.5 54t120 141t40.5 185t-40.5 185.5t-120 142t-192.5 54.5t-192 -54.5t-118.5 -142t-39.5 -185.5t39.5 -185zM671.5 238.5q-27.5 -67.5 -82.5 -110.5t-134 -43t-134 43t-82.5 110.5t-27.5 140.5q0 74 27 142.5t82 111.5
t135 43t135 -43t82 -111.5t27 -142.5q0 -73 -27.5 -140.5z" />
    <glyph glyph-name="one" unicode="1" horiz-adv-x="453" 
d="M286 13q13 0 22.5 9t9.5 20v677l-2 12l-3 8q-1 1 -4.5 5t-11.5 4h-6l-8 -2l-211 -80q-8 -3 -13.5 -9.5t-5.5 -15.5v-12q0 -11 1 -16q5 -29 32 -29q6 0 7 1q2 0 6 2l17 5l44 17l53 21v-588q0 -11 9.5 -20t22.5 -9h41z" />
    <glyph glyph-name="two" unicode="2" horiz-adv-x="734" 
d="M599 13q13 0 21.5 9t8.5 20v11q1 3 1 8q0 6 -1 8q-6 28 -30 28h-338l239 217q56 51 85 98.5t29 110.5q0 72 -34 126t-95 83t-139 29q-73 0 -139.5 -26t-109.5 -77q-8 -10 -8 -19q0 -10 11.5 -21.5t26.5 -19.5t22 -8q13 0 24 11l13 13l14 13q29 24 66 36.5t77 12.5
q76 0 120 -40t44 -109q0 -43 -21 -76t-65 -74l-307 -278l-9 -9l-5 -6q-3 -7 -4 -10v-1l-1 -19q0 -7 1 -11q1 -11 7.5 -20.5t22.5 -9.5h473z" />
    <glyph glyph-name="three" unicode="3" horiz-adv-x="774" 
d="M614.5 454.5q31.5 42.5 31.5 96.5q0 71 -44.5 118.5t-113 69.5t-140.5 22q-67 0 -131 -18.5t-104 -58.5q-10 -10 -10 -22q0 -14 12 -23q3 -2 7.5 -5.5t10.5 -7.5l11 -8q12 -4 16 -4q13 0 22 9q33 29 73 41t93 12q81 0 136 -31.5t55 -95.5q0 -61 -53.5 -90.5t-132.5 -29.5
h-97q-14 0 -23 -9.5t-9 -20.5v-12q-1 -3 -0.5 -8t0.5 -8q5 -28 32 -28h101q83 0 143.5 -31t60.5 -95q0 -67 -62 -99.5t-149 -32.5q-97 0 -155 35l-13 9q-15 12 -14 11q-10 8 -22 8q-15 0 -34.5 -19t-19.5 -32q0 -14 10 -22q43 -38 112.5 -57t136.5 -19q75 0 148 22.5
t121.5 71t48.5 122.5q0 61 -38.5 105.5t-101.5 68.5q54 23 85.5 65.5z" />
    <glyph glyph-name="four" unicode="4" horiz-adv-x="761" 
d="M458 22q9 -9 22 -9h39q14 0 22.5 9t8.5 20v135h110q14 0 23 9.5t9 20.5v10q0 11 -1 16q-1 11 -8.5 19.5t-22.5 8.5h-110v214q0 11 -8.5 20t-22.5 9h-39q-13 0 -22 -9t-9 -20v-214h-259l264 436q6 10 6 18q0 14 -10 23.5t-25 9.5h-40q-17 0 -26 -14l-290 -484
q-4 -4 -4 -12q0 -3 -1 -12.5t0 -17.5q6 -31 32 -31h353v-135q0 -11 9 -20z" />
    <glyph glyph-name="five" unicode="5" horiz-adv-x="762" 
d="M236 16.5q60 -17.5 125 -17.5q79 0 149 26.5t113.5 79t43.5 128.5t-43.5 128.5t-113.5 78.5t-149 26q-60 0 -104 -13l11 211h325q13 0 22 8.5t9 20.5l1 11q0 11 -1 17q-2 10 -9 18.5t-22 8.5h-392q-13 0 -22 -8t-10 -19l-19 -303q0 -4 2.5 -11t6.5 -10l25 -24l17 -14
q6 -4 9 -5q6 -3 12 -3q8 0 14 3q56 25 125 25q85 0 142 -37.5t57 -108.5t-57 -109.5t-143 -38.5q-96 0 -155 46l-14 12l-13 14q-14 11 -26 11q-14 0 -33.5 -20t-19.5 -32q0 -8 4 -15q10 -14 30 -30q43 -37 103 -54.5z" />
    <glyph glyph-name="six" unicode="6" horiz-adv-x="797" 
d="M143.5 116.5q39.5 -57.5 108 -87.5t153.5 -30q86 0 154 31t107 89t39 137q0 70 -40 124.5t-106 84.5t-141 30q-37 0 -69 -7l139 208q6 8 6 19q0 14 -10 23.5t-26 9.5h-40q-10 0 -15 -3.5t-9 -9.5l-250 -364q-40 -56 -40 -118q0 -79 39.5 -136.5zM546.5 130
q-52.5 -45 -141.5 -45t-142.5 45t-53.5 123q0 69 58 107t140 38q81 0 136.5 -37.5t55.5 -106.5q0 -79 -52.5 -124z" />
    <glyph glyph-name="seven" unicode="7" 
d="M158 23q10 -10 26 -10h37q9 0 16 4.5t10 10.5l365 645q2 4 2 10v4v32q0 11 -9 20t-22 9h-505q-13 0 -22 -9t-9 -20l-1 -11q0 -11 1 -16q1 -11 8.5 -19.5t22.5 -8.5h413l-339 -602q-4 -7 -4 -16q0 -13 10 -23z" />
    <glyph glyph-name="eight" unicode="8" horiz-adv-x="843" 
d="M686 452q30 39 30 98q0 71 -44 118.5t-111.5 70t-140.5 22.5q-72 0 -139 -22.5t-110 -69.5t-43 -118q0 -50 23 -89t71 -62q13 -7 22 -10l4 -1q-68 -26 -105.5 -66.5t-37.5 -106.5q0 -74 48.5 -123t121.5 -71.5t148 -22.5t147.5 22.5t120.5 71.5t48 122q0 67 -37.5 107.5
t-104.5 65.5q59 25 89 64zM556 458q-54 -28 -136 -28q-81 0 -134 28.5t-53 91.5q0 64 53.5 95t133.5 31t135 -31.5t55 -95.5q0 -63 -54 -91zM571 117.5q-61 -32.5 -148 -32.5t-149.5 32t-62.5 99t62 97t150 30q86 0 147.5 -30.5t61.5 -95.5q0 -67 -61 -99.5z" />
    <glyph glyph-name="nine" unicode="9" horiz-adv-x="795" 
d="M312.5 8.5q10.5 -9.5 25.5 -9.5h41q15 0 24 13l250 364q40 56 40 119q0 79 -40 136t-108 87t-153 30q-86 0 -154.5 -31t-108 -89.5t-39.5 -137.5q0 -70 40.5 -124.5t107 -84.5t141.5 -30q33 0 68 8l-139 -208q-6 -7 -6 -19q0 -14 10.5 -23.5zM530 386.5
q-57 -38.5 -139 -38.5q-81 0 -137.5 38t-56.5 106q0 81 52.5 126t142.5 45q88 0 141.5 -45.5t53.5 -123.5q0 -69 -57 -107.5z" />
    <glyph glyph-name="colon" unicode=":" horiz-adv-x="291" 
d="M85.5 426.5q22.5 -22.5 60.5 -22.5t60 23t22 56q0 34 -22 56.5t-60 22.5t-60.5 -22.5t-22.5 -56.5t22.5 -56.5zM85 13q22 -23 61 -23t60.5 23.5t21.5 57.5q0 33 -22.5 55t-59.5 22q-38 0 -60.5 -21.5t-22.5 -55.5q0 -35 22 -58z" />
    <glyph glyph-name="semicolon" unicode=";" horiz-adv-x="309" 
d="M97.5 426.5q22.5 -22.5 60.5 -22.5t59.5 22.5t21.5 56.5t-21.5 56.5t-59.5 22.5t-60.5 -22.5t-22.5 -56.5t22.5 -56.5zM100 -172q6 0 14 4q35 18 62 55t41.5 81t14.5 80q0 39 -16.5 68.5t-61.5 29.5q-35 0 -55.5 -21t-20.5 -51q0 -28 16 -48t44 -25q-13 -54 -52 -90
l-9 -8l-11 -9q-10 -8 -10 -19q0 -5 4 -12l7 -9l11 -14l7 -7q6 -5 15 -5z" />
    <glyph glyph-name="less" unicode="&#x3c;" horiz-adv-x="617" 
d="M554 60q12 0 18 10q3 4 3 11v58q0 19 -18 26l-398 168l398 166q8 3 13 11.5t5 16.5v58q0 7 -4.5 14t-16.5 7l-11 -4l-16 -6l-52 -22l-159 -69q-102 -43 -155 -67l-101 -43q-9 -4 -13.5 -12t-4.5 -16v-69q0 -7 5.5 -15t12.5 -12l101 -43q53 -24 155 -67l159 -69l53 -22
q9 -4 15 -6z" />
    <glyph glyph-name="equal" unicode="=" horiz-adv-x="603" 
d="M493 374q12 0 19 8t7 17v47q0 10 -7 17.5t-19 7.5h-383q-13 0 -19.5 -7.5t-6.5 -17.5v-47q0 -9 6.5 -17t19.5 -8h383zM493 214q12 0 19 7t7 17v48q0 9 -7.5 16.5t-18.5 7.5h-383q-12 0 -19 -7t-7 -17v-48q0 -10 6.5 -17t19.5 -7h383z" />
    <glyph glyph-name="greater" unicode="&#x3e;" horiz-adv-x="617" 
d="M71 60l4 4h2q4 3 14 6l52 23l159 69l255 109q7 3 12.5 11.5t5.5 15.5v69q0 7 -5 15.5t-13 12.5l-101 43q-53 24 -155 67l-99 43l-60 26l-52 22l-15 6l-12 4q-12 0 -16.5 -7t-4.5 -14v-58q0 -8 4.5 -16t13.5 -12l398 -166l-398 -168q-18 -7 -18 -26v-58q0 -7 3 -11
q6 -10 18 -10h8z" />
    <glyph glyph-name="question" unicode="?" horiz-adv-x="553" 
d="M276 198q12 0 18 7t7 15l5 30q4 15 10 26q8 17 20 31.5t35 38.5q43 42 65.5 70t36.5 64.5t14 85.5q0 60 -26.5 108.5t-76.5 77t-118 28.5q-129 0 -210 -97q-6 -6 -6 -16q0 -12 24 -37.5t36 -25.5t19 9q33 35 64.5 52.5t73.5 17.5q53 0 83 -33t30 -84q0 -45 -18.5 -76.5
t-56.5 -68.5l-32 -30q-14 -13 -31 -33q-35 -41 -46 -86q-7 -26 -7 -50q0 -9 7 -16.5t19 -7.5h61zM198.5 9q18.5 -20 50.5 -20t51 20t19 48t-19 47t-51 19t-50.5 -19t-18.5 -47t18.5 -48z" />
    <glyph glyph-name="at" unicode="@" horiz-adv-x="1017" 
d="M121 119.5q58 -98.5 164 -153.5t246 -55q174 0 290 109q7 7 7 16q0 10 -25.5 37t-37.5 27q-10 0 -14.5 -3.5t-5.5 -4.5q-92 -83 -214 -83q-109 0 -192.5 42t-129.5 118.5t-46 175.5q0 100 45.5 177t129 120t193.5 43q95 0 169 -42t115 -114t41 -158q0 -52 -17 -89
q-21 -46 -63 -46q-28 0 -44.5 16t-16.5 43v227q0 7 -6 13.5t-15 6.5q-7 0 -15 0.5t-16 -0.5q-16 0 -24 -7q-1 -1 -7 -10l-4 -10v-3q-27 25 -62 38t-75 13q-67 0 -114.5 -30.5t-71 -80.5t-23.5 -108t24 -108.5t71 -81.5t114 -31q50 0 90.5 19t66.5 55q46 -52 119 -52
q32 0 67 14q63 26 91.5 85t28.5 127q0 115 -51 208t-147 147t-225 54q-141 0 -247 -55.5t-163.5 -154t-57.5 -225.5t58 -225.5zM580.5 255.5q-29.5 -34.5 -83.5 -34.5q-55 0 -85 34t-30 88q0 53 30 87.5t85 34.5t84 -34t29 -88q0 -53 -29.5 -87.5z" />
    <glyph glyph-name="A" unicode="A" horiz-adv-x="730" 
d="M15.5 5q7.5 -5 16.5 -5h55q8 0 15.5 4t10.5 12l92 224h321l92 -224q2 -7 9.5 -11.5t15.5 -4.5h57q8 0 15.5 5t7.5 15q0 3 -2 7l-2 6l-9 22l-32 78l-98 238l-158 380q-8 19 -28 19h-57q-21 0 -27 -19q-80 -189 -159 -380l-98 -237q-21 -47 -32 -78l-9 -23l-3 -6l-1 -7
q0 -10 7.5 -15zM487 334h-243l123 295z" />
    <glyph glyph-name="B" unicode="B" horiz-adv-x="674" 
d="M370 0q76 0 134.5 28.5t90.5 80.5t32 122q0 66 -32 117t-93 80q38 26 58.5 63t20.5 82q0 99 -74 148.5t-184 49.5h-201q-12 0 -19.5 -6.5t-7.5 -17.5v-723q0 -9 7 -16.5t19 -7.5h249zM326 676q67 0 107.5 -25t40.5 -79q0 -57 -36 -85t-102 -28h-136v217h126zM372 377
q70 0 109 -40.5t39 -105.5q0 -63 -43 -99t-115 -36l-162 -1v281z" />
    <glyph glyph-name="C" unicode="C" horiz-adv-x="774" 
d="M95.5 185q47.5 -90 137.5 -143t214 -53q80 0 154 26t128 76q8 10 8 18q0 2 -4 10q-1 3 -5 7l-14 14q-8 8 -14.5 13t-9.5 8q-5 5 -11 5q-2 1 -7 1t-7 -1q-5 0 -11 -4l-19 -14q-5 -5 -17 -13q-74 -45 -171 -45q-91 0 -157.5 38.5t-101.5 105.5t-35 150t35 151t101.5 107
t157.5 39q62 0 112.5 -17.5t95.5 -54.5l6 -4q6 -3 12 -3q11 0 37 24t26 34q0 11 -8 16q-114 104 -281 104q-89 0 -169 -33q-115 -48 -172.5 -145t-57.5 -217q0 -110 47.5 -200z" />
    <glyph glyph-name="D" unicode="D" horiz-adv-x="763" 
d="M315 0q125 0 215.5 49.5t138 136.5t47.5 199t-48 199.5t-138.5 137t-214.5 49.5h-194q-13 0 -19.5 -7.5t-6.5 -16.5v-723q0 -9 7 -16.5t19 -7.5h194zM315 676q93 0 159.5 -37t100.5 -102.5t34 -151.5t-34 -151t-100 -101.5t-160 -36.5h-115v580h115z" />
    <glyph glyph-name="E" unicode="E" horiz-adv-x="591" 
d="M524 0q11 0 17.5 7t6.5 16v49q0 9 -7 16.5t-18 7.5h-323v249h288q12 0 19 7t7 17v47q0 10 -7 17t-19 7h-288v236h313q13 0 19 7t6 17v47q0 10 -6 17t-19 7h-392q-13 0 -19.5 -7.5t-6.5 -16.5v-723q0 -9 7 -16.5t19 -7.5h403z" />
    <glyph glyph-name="F" unicode="F" horiz-adv-x="569" 
d="M175 0q11 0 18 7.5t7 16.5v321h288q12 0 19 7t7 17v47q0 10 -7 17t-19 7h-288v236h312q12 0 19 6.5t7 17.5v47q0 10 -6 17t-19 7h-391q-12 0 -19.5 -6.5t-7.5 -17.5v-723q0 -9 7 -16.5t19 -7.5h54z" />
    <glyph glyph-name="G" unicode="G" horiz-adv-x="848" 
d="M92.5 186.5q44.5 -89.5 131.5 -143t210 -53.5q125 0 207.5 54t121 143.5t38.5 199.5q0 8 -6.5 16t-18.5 8h-331q-11 0 -18 -7.5t-7 -16.5v-47q0 -10 6.5 -17t18.5 -7h250q-17 -107 -81 -166.5t-180 -59.5q-89 0 -152.5 39.5t-96 106.5t-32.5 149q0 84 35.5 151.5
t102.5 106t159 38.5q61 0 111 -17t94 -54l5 -5q6 -3 13 -3q9 0 36 25.5t27 33.5t-8 16q-113 103 -278 103q-125 0 -216 -52t-138.5 -141.5t-47.5 -201.5q0 -109 44.5 -198.5z" />
    <glyph glyph-name="H" unicode="H" horiz-adv-x="762" 
d="M176 0q11 0 17.5 8t6.5 16v321h360v-321q0 -10 6.5 -17t19.5 -7h55q11 0 18.5 7.5t7.5 16.5v723q0 9 -7 16.5t-18 7.5h-56q-13 0 -19.5 -7t-6.5 -17v-307h-360v307q0 10 -6 17t-18 7h-55q-13 0 -19.5 -7.5t-6.5 -16.5v-723q0 -9 7 -16.5t19 -7.5h55z" />
    <glyph glyph-name="I" unicode="I" horiz-adv-x="295" 
d="M176 0q11 0 17.5 7.5t6.5 15.5v724q0 9 -6.5 16.5t-18.5 7.5h-55q-13 0 -19 -7.5t-6 -16.5v-724q0 -10 7.5 -16.5t18.5 -6.5h55z" />
    <glyph glyph-name="J" unicode="J" horiz-adv-x="459" 
d="M82 -10q99 0 162 43.5t92 114t29 156.5v443q0 9 -7 16.5t-19 7.5h-56q-13 0 -19.5 -7.5t-6.5 -16.5v-443q0 -95 -41 -154.5t-134 -59.5l-20 1q-11 0 -19 -5.5t-11 -14.5l-8 -22q-5 -12 -5 -13q-2 -8 -2 -13q0 -26 30 -32q7 -1 20 -1h15z" />
    <glyph glyph-name="K" unicode="K" horiz-adv-x="639" 
d="M176 0q11 0 17.5 7.5t6.5 15.5v315l307 -327q9 -11 25 -11h78q8 0 12 2q13 5 13 17q0 7 -4 11l-5 5l-336 351l302 351l4 5q4 4 4 11q0 11 -12 16l-11 2h-73q-7 0 -13.5 -3t-10.5 -8l-280 -325v312q0 9 -6.5 16.5t-18.5 7.5h-55q-13 0 -19 -7.5t-6 -16.5v-724
q0 -10 7.5 -16.5t18.5 -6.5h55z" />
    <glyph glyph-name="L" unicode="L" horiz-adv-x="513" 
d="M458 0q11 0 17.5 7t6.5 16v49q0 9 -7 16.5t-18 7.5h-257v651q0 9 -6.5 16.5t-18.5 7.5h-55q-13 0 -19 -7.5t-6 -16.5v-724q0 -10 7.5 -16.5t18.5 -6.5h337z" />
    <glyph glyph-name="M" unicode="M" horiz-adv-x="957" 
d="M102.5 9q7.5 -9 23.5 -9h49q11 0 18 7.5t7 16.5v509l221 -516q4 -7 12 -12t17 -5h57q20 0 28 17l221 518v-511q0 -9 7.5 -16.5t18.5 -7.5h55q11 0 18.5 7.5t7.5 16.5v723q0 9 -7 16.5t-19 7.5h-70q-20 0 -26 -17l-263 -608l-261 607q-5 12 -20 16q-6 2 -17 2h-54
q-15 0 -23 -8.5t-8 -20.5v-712q0 -12 7.5 -21z" />
    <glyph glyph-name="N" unicode="N" horiz-adv-x="806" 
d="M102 7.5q7 -7.5 19 -7.5h54q11 0 18 7.5t7 16.5v571l392 -583q3 -4 11 -8t13 -4h69q11 0 18.5 7.5t7.5 16.5v723q0 8 -6.5 16t-18.5 8h-55q-12 0 -19 -7.5t-7 -16.5v-572l-390 581l-3 4q-2 3 -5 5q-6 6 -16 6h-70q-13 0 -19.5 -7.5t-6.5 -16.5v-723q0 -9 7 -16.5z" />
    <glyph glyph-name="O" unicode="O" horiz-adv-x="898" 
d="M95.5 184q47.5 -90 138.5 -142t216 -52t216 52t138.5 142t47.5 201t-48 201t-139 142t-215 52q-125 0 -216 -52t-138.5 -142t-47.5 -201t47.5 -201zM710 234q-35 -67 -101.5 -105.5t-158.5 -38.5t-159 38.5t-102.5 105.5t-35.5 151t35.5 151.5t102.5 106t159 38.5
t158.5 -39t101.5 -106t35 -151t-35 -151z" />
    <glyph glyph-name="P" unicode="P" horiz-adv-x="625" 
d="M176 0q12 0 18.5 7.5t6.5 16.5v296h156q118 0 187.5 59t69.5 167q0 106 -70 165.5t-187 59.5h-235q-12 0 -19.5 -6.5t-7.5 -17.5v-723q0 -9 7 -16.5t19 -7.5h55zM359 676q72 0 110.5 -33.5t38.5 -97.5t-38.5 -96.5t-110.5 -32.5h-158v260h158z" />
    <glyph glyph-name="Q" unicode="Q" horiz-adv-x="889" 
d="M683 -104.5q58 -43.5 132 -43.5q51 0 105 22q4 2 12.5 5t14.5 6q24 13 24 30q0 4 -6 16q-6 10 -10 15l-19 21q-7 10 -24 10q-7 0 -20 -5l-6 -3l-4 -2q-33 -11 -63 -11q-43 0 -78 24.5t-67 66.5q91 53 134.5 143t43.5 195q0 111 -48 201t-139 142t-215 52q-125 0 -216 -52
t-138.5 -141.5t-47.5 -201.5q0 -111 47.5 -201t138.5 -142t216 -52q66 0 126 16q49 -67 107 -110.5zM450 90q-92 0 -159 38.5t-102.5 105.5t-35.5 151t35.5 151.5t102.5 106t159 38.5t158.5 -39t101.5 -106t35 -151q0 -78 -32 -145t-97 -107l-124 197q-2 4 -6 8q-7 5 -16 5
l-8 -1l-7 -3l-18 -6q-9 -4 -16.5 -7.5t-12.5 -4.5q-16 -7 -16 -23l3 -9l4 -7l14 -24q10 -14 23 -37l20 -31l33 -50l28 -44q-33 -6 -67 -6z" />
    <glyph glyph-name="R" unicode="R" horiz-adv-x="634" 
d="M176 0q12 0 18.5 7.5t6.5 16.5v296h85l190 -307q8 -13 24 -13h72q8 0 13 3q4 2 7.5 6t3.5 10q0 3 -4 10q-1 2 -2.5 4.5t-3.5 6.5l-22 34l-67 103l-97 149q92 16 142 73.5t50 146.5q0 107 -69.5 166t-187.5 59h-214q-13 0 -19.5 -7.5t-6.5 -16.5v-723q0 -9 7 -16.5
t19 -7.5h55zM337 676q72 0 110.5 -33.5t38.5 -97.5t-38.5 -96.5t-110.5 -32.5h-136v260h136z" />
    <glyph glyph-name="S" unicode="S" horiz-adv-x="639" 
d="M102 173q-9 0 -21 -15t-21.5 -33.5t-9.5 -22.5q0 -10 8 -18q44 -47 118.5 -71t147.5 -24q122 0 194 56.5t72 166.5q0 66 -33.5 109t-85 66.5t-124.5 42.5q-66 18 -110 36t-62 47q-13 21 -13 53q0 52 47 83t110 31q82 0 150 -45q3 -3 6 -4.5t5 -3.5l9 -8l4.5 -4.5
t6.5 -2.5q4 -1 9 -1q16 0 23 13q2 6 6 13t8 15l8 17l3 8q1 2 1 8q0 12 -9 19q-41 38 -100.5 57t-123.5 19q-70 0 -131.5 -25.5t-99.5 -74.5t-38 -115q0 -99 66.5 -155t178.5 -82l61 -16q34 -9 61 -22q29 -15 45 -34.5t16 -45.5q0 -58 -43.5 -89t-111.5 -31q-57 0 -112 20
t-94 56l-5 4h-3q-6 3 -13 3z" />
    <glyph glyph-name="T" unicode="T" horiz-adv-x="610" 
d="M259 7q7 -7 18 -7h55q11 0 18.5 6.5t7.5 16.5v653h217q11 0 18 7t7 17v47q0 9 -7 16.5t-18 7.5h-539q-12 0 -18.5 -8t-6.5 -16v-48q0 -9 6.5 -16t18.5 -7h216v-653q0 -9 7 -16z" />
    <glyph glyph-name="U" unicode="U" horiz-adv-x="757" 
d="M124 147q29 -71 92.5 -114t163.5 -43q99 0 162 43.5t91.5 114t28.5 156.5v443q0 9 -7 16.5t-19 7.5h-55q-12 0 -19 -7.5t-7 -16.5v-443q0 -95 -41 -154.5t-134 -59.5q-94 0 -137 59.5t-43 154.5v443q0 8 -6.5 15.5t-17.5 7.5h-57q-13 0 -18.5 -7.5t-5.5 -15.5v-442
q0 -87 29 -158z" />
    <glyph glyph-name="V" unicode="V" horiz-adv-x="725" 
d="M316.5 5q7.5 -5 17.5 -5h56q9 0 17.5 5t12.5 13q7 19 67 161l91 220l37 90q105 255 105 260q0 12 -8.5 16.5t-16.5 4.5h-64q-19 0 -26 -17l-242 -610l-244 610q-3 8 -10 12.5t-16 4.5h-62q-9 0 -17.5 -4.5t-8.5 -16.5q0 -7 88 -219l54 -132l159 -380q3 -8 10.5 -13z" />
    <glyph glyph-name="W" unicode="W" horiz-adv-x="965" 
d="M237.5 5q7.5 -5 16.5 -5h46q9 0 17 5t10 14l155 584l153 -584q2 -8 9 -13.5t17 -5.5h50q9 0 16.5 6t9.5 13l117 381q106 344 106 350q0 10 -7.5 15.5t-16.5 5.5h-60q-16 0 -23 -18l-164 -565l-150 563q-2 8 -10.5 14t-17.5 6h-61q-19 0 -26 -20l-149 -559l-162 559
q-2 8 -9.5 14t-17.5 6h-58q-9 0 -16 -5t-7 -15q0 -4 2 -8l220 -724q3 -9 10.5 -14z" />
    <glyph glyph-name="X" unicode="X" horiz-adv-x="651" 
d="M99 0q7 0 14 3t11 9l200 283l191 -283q7 -12 26 -12h73q7 0 12 2q11 7 11 16q0 6 -4 12l-8 12l-15 22l-12 17q-22 33 -82 119l-130 185l256 353q5 7 5 13q0 11 -12 17l-12 2h-70q-18 0 -27 -13l-199 -284l-191 285q-9 13 -25 13h-74l-12 -2q-12 -5 -12 -16q0 -4 5 -12
q0 -1 7 -12l27 -40l82 -120q34 -51 74 -106l55 -79l-133 -184q-22 -29 -37 -50.5t-26 -36.5l-22 -31l-28 -40l-8 -12q-4 -6 -4 -11q0 -10 10 -16q6 -3 13 -3h71z" />
    <glyph glyph-name="Y" unicode="Y" horiz-adv-x="640" 
d="M274 7.5q7 -7.5 19 -7.5h55q11 0 18.5 7.5t7.5 16.5v150v35q0 11 -0.5 26t0.5 32v31q0 3 -0.5 4.5t-0.5 2.5q11 33 37 72q36 50 48 71l173 289q3 6 3 13q0 11 -8 15.5t-16 4.5h-64q-9 0 -16.5 -4.5t-12.5 -11.5l-197 -346l-197 346q-10 16 -28 16h-64q-7 0 -14 -3
q-12 -6 -12 -17q0 -5 4 -13l173 -289q12 -21 48 -71q25 -37 36 -71v-8v-31l1 -93v-150q0 -9 7 -16.5z" />
    <glyph glyph-name="Z" unicode="Z" horiz-adv-x="635" 
d="M580 0q12 0 18.5 7.5t6.5 16.5v48q0 9 -6.5 16.5t-18.5 7.5h-388l396 636q4 8 4 16q0 11 -9 17t-18 6h-501q-12 0 -18.5 -7.5t-6.5 -16.5v-48q0 -10 7 -16.5t18 -6.5h362l-395 -639q-5 -10 -5 -15q0 -13 13 -19q6 -3 16 -3h525z" />
    <glyph glyph-name="bracketleft" unicode="[" horiz-adv-x="392" 
d="M305 -173q12 0 18.5 7t6.5 17v43q0 9 -7 16.5t-18 7.5h-120v763h120q11 0 18 7.5t7 16.5v42q0 9 -7 16.5t-18 7.5h-195q-13 0 -19.5 -7.5t-6.5 -16.5v-896q0 -10 6.5 -17t19.5 -7h195z" />
    <glyph glyph-name="backslash" unicode="\" horiz-adv-x="427" 
d="M411 0q9 0 16.5 5.5t7.5 15.5q0 3 -2 7l-2 7q-2 4 -10 23l-35 81q-23 51 -68 155l-41 93l-175 397q-2 7 -9 12t-16 5h-51q-9 0 -17 -5.5t-8 -15.5q0 -4 2 -8l2 -6l10 -24l27 -61q1 -4 8 -20q23 -51 68 -155l41 -93l175 -398q3 -7 11.5 -11t15.5 -4h50z" />
    <glyph glyph-name="bracketright" unicode="]" horiz-adv-x="392" 
d="M283 -173q13 0 19 7t6 17v896q0 9 -6.5 16.5t-18.5 7.5h-194q-13 0 -19.5 -7.5t-6.5 -16.5v-42q0 -10 7 -17t19 -7h119v-762h-118q-11 0 -19 -7t-8 -17v-43q0 -9 6.5 -17t19.5 -8h194z" />
    <glyph glyph-name="asciicircum" unicode="^" horiz-adv-x="661" 
d="M146 278q20 0 25 15l160 361l159 -361q3 -7 10.5 -11t14.5 -4h58q8 0 16.5 5t8.5 16l-3 10q-3 4 -6 14l-22 48l-66 146l-107 235q-8 18 -29 18h-68q-20 0 -29 -18l-20 -44q-80 -175 -87 -191l-67 -145q-6 -15 -21 -48q-4 -9 -6 -15q-3 -6 -3 -10q0 -11 8 -16t17 -5h57z
" />
    <glyph glyph-name="underscore" unicode="_" horiz-adv-x="663" 
d="M575 -144q12 0 19 7.5t7 16.5v40q0 10 -7 17t-19 7h-486q-13 0 -19.5 -7t-6.5 -17v-40q0 -9 6.5 -16.5t19.5 -7.5h486z" />
    <glyph glyph-name="a" unicode="a" 
d="M72 120q30 -60 88.5 -95.5t139.5 -35.5q55 0 101 18t79 54v-31q0 -11 8 -20.5t22 -9.5q10 0 15 -1q14 0 21 1q14 1 24 8t10 22v443q0 11 -9 20t-22 9h-14q-3 1 -10 1t-10 -1q-13 -1 -23.5 -7.5t-10.5 -21.5v-31q-69 70 -181 70q-81 0 -139.5 -35.5t-88.5 -95t-30 -130.5
t30 -131zM458.5 166q-21.5 -38 -61 -59.5t-90.5 -21.5q-78 0 -122.5 46.5t-44.5 119.5t45 120t122 47q78 0 125.5 -47t47.5 -120q0 -47 -21.5 -85z" />
    <glyph glyph-name="b" unicode="b" 
d="M259 7.5q46 -18.5 100 -18.5q81 0 139.5 35.5t88.5 95.5t30 131t-30 130.5t-88.5 95t-139.5 35.5q-55 0 -101 -17.5t-79 -52.5v300q0 11 -9.5 20t-22.5 9h-14q-3 0 -9 0.5t-11 -0.5q-13 -1 -23.5 -7.5t-10.5 -21.5v-712q0 -11 9 -20.5t23 -9.5q9 0 15 -1q14 0 20 1
q13 1 23.5 8t10.5 22v31q33 -35 79 -53.5zM474.5 131.5q-44.5 -46.5 -122.5 -46.5q-50 0 -89.5 22t-61 60t-21.5 84q0 47 21 85.5t60.5 60t90.5 21.5q78 0 122.5 -47t44.5 -120t-44.5 -119.5z" />
    <glyph glyph-name="c" unicode="c" horiz-adv-x="573" 
d="M73.5 119q31.5 -60 91.5 -95t142 -35q70 0 127.5 27.5t94.5 81.5q5 5 5 14q0 6 -4 10l-5 7l-14 13l-23 19q-7 6 -17 6t-16 -4q-4 -4 -7 -9q-23 -34 -59 -51.5t-82 -17.5q-78 0 -122.5 46.5t-44.5 119.5t45 120t122 47q45 0 81 -18t60 -53l6 -7q8 -6 17 -6q4 0 11 4
q4 2 6 4l14 11q22 19 22 20l6 5q4 5 4 12q0 5 -5 15q-35 52 -93.5 80t-125.5 28q-82 0 -142.5 -35t-93 -94.5t-32.5 -132.5q0 -72 31.5 -132z" />
    <glyph glyph-name="d" unicode="d" 
d="M73.5 119q30.5 -60 89 -95.5t139.5 -35.5q54 0 99.5 18t79.5 53v-30q0 -11 8 -20.5t22 -9.5h39q14 0 22 9.5t8 20.5v712q0 11 -8.5 20t-21.5 9h-14q-3 1 -10 1t-10 -1q-13 -1 -23.5 -7.5t-10.5 -21.5v-300q-33 35 -79 52.5t-101 17.5q-82 0 -140.5 -35t-88.5 -94.5
t-30 -131.5q0 -71 30.5 -131zM459.5 165q-21.5 -38 -61 -59.5t-90.5 -21.5q-78 0 -122.5 46.5t-44.5 119.5t45 120.5t122 47.5q51 0 90.5 -22t61 -60.5t21.5 -85.5t-21.5 -85z" />
    <glyph glyph-name="e" unicode="e" horiz-adv-x="614" 
d="M76 116.5q34 -59.5 96.5 -93.5t146.5 -34q61 0 115 20t92 61q7 7 7 16q0 10 -25.5 33.5t-36.5 23.5q-8 0 -14 -4q-1 0 -6 -5q-27 -26 -58.5 -37.5t-73.5 -11.5q-67 0 -113.5 32.5t-60.5 89.5h403q11 0 18 7t7 17q0 79 -28 142.5t-87.5 101t-150.5 37.5q-82 0 -142 -34.5
t-91.5 -94t-31.5 -132.5q0 -75 34 -134.5zM145 296q13 56 55.5 89t106.5 33t106.5 -33t55.5 -89h-324z" />
    <glyph glyph-name="f" unicode="f" horiz-adv-x="353" 
d="M174 0q11 0 18 7.5t7 16.5v390h109q11 0 18 7t7 17v40q0 9 -6.5 16.5t-18.5 7.5h-109v117q0 39 12 66q13 33 43 33q28 0 61 -19q7 -7 16 -7q12 0 22 13q0 1 16 23l9 14l3 7q2 4 2 8q0 9 -4 13l-7 7q-56 36 -120 36q-80 0 -116.5 -56.5t-36.5 -129.5v-125h-67
q-12 0 -19 -7.5t-7 -16.5v-40q0 -9 7 -16.5t19 -7.5h67l1 -390q0 -9 7 -16.5t18 -7.5h49z" />
    <glyph glyph-name="g" unicode="g" 
d="M205.5 -239.5q53.5 -13.5 102.5 -13.5q84 0 145.5 34t94 93t32.5 134v465q0 11 -9 20t-22 9h-14q-3 1 -10 1t-10 -1q-13 -1 -23.5 -7.5t-10.5 -21.5v-31q-69 70 -181 70q-81 0 -139.5 -35.5t-88.5 -95t-30 -130.5t30 -131t88.5 -95.5t139.5 -35.5q111 0 180 72l1 -59
q0 -76 -45.5 -119t-127.5 -43q-81 0 -146 41q-4 2 -5 2q-3 3 -10 3h-4l-4 -2q-9 -5 -24.5 -30.5t-15.5 -34.5q0 -14 13 -22q40 -23 93.5 -36.5zM458.5 166q-21.5 -38 -61 -59.5t-90.5 -21.5q-78 0 -122.5 46.5t-44.5 119.5t45 120t122 47q78 0 125.5 -47t47.5 -120
q0 -47 -21.5 -85z" />
    <glyph glyph-name="h" unicode="h" horiz-adv-x="623" 
d="M154 0q12 0 18.5 7.5t6.5 16.5v219q1 42 19.5 82.5t52.5 66.5t78 26q63 0 90 -33.5t27 -97.5v-264q0 -10 7 -16.5t18 -6.5h49q11 0 18.5 6.5t7.5 16.5v264q0 100 -50.5 162.5t-158.5 62.5q-100 0 -160 -69l-1 299q-1 11 -9.5 20t-21.5 9h-15q-3 1 -10 1q-6 0 -10 -1
q-12 -1 -22.5 -7.5t-10.5 -21.5l2 -719q0 -10 7.5 -16.5t18.5 -6.5h49z" />
    <glyph glyph-name="i" unicode="i" horiz-adv-x="266" 
d="M83 623.5q19 -19.5 52 -19.5t50.5 20t17.5 48t-18 47t-50 19t-51.5 -18.5t-19.5 -47.5t19 -48.5zM158 0q11 0 18 6.5t7 16.5v456q0 10 -7 16.5t-18 6.5h-50q-11 0 -17.5 -7t-6.5 -16v-456q0 -10 7 -16.5t18 -6.5h49z" />
    <glyph glyph-name="j" unicode="j" horiz-adv-x="291" 
d="M105 623.5q19 -19.5 51 -19.5t50.5 19.5t18.5 47.5t-18.5 47.5t-50.5 19.5t-51 -19.5t-19 -47.5t19 -47.5zM53 -255q80 0 117 56t37 129l-1 548q0 9 -6.5 16.5t-19.5 7.5h-47q-11 0 -19 -7t-8 -17v-539q0 -42 -11 -66q-14 -33 -43 -33q-15 0 -44 11l-17 8q-5 3 -7 3
q-6 3 -10 3q-10 0 -22 -13.5t-20.5 -30t-8.5 -21.5q0 -11 9 -18q4 -4 10 -6l4 -2t4 -3q50 -26 103 -26z" />
    <glyph glyph-name="k" unicode="k" horiz-adv-x="523" 
d="M154 0q11 0 18.5 6.5t7.5 16.5v199l216 -212q4 -4 11.5 -7t14.5 -3h73q7 0 12 2q14 6 14 17q0 6 -5 13l-5 5l-240 234l205 194q4 4 5 6q5 5 5 12q0 14 -14 17q-5 2 -12 2h-74q-14 0 -24 -10l-183 -181v468q0 10 -7 16t-18 6h-49q-9 0 -17.5 -6t-8.5 -16v-756
q0 -10 7.5 -16.5t18.5 -6.5h49z" />
    <glyph glyph-name="l" unicode="l" horiz-adv-x="267" 
d="M158 0q11 0 18.5 6.5t7.5 16.5v724q0 11 -8 17t-18 6h-49q-11 0 -18 -6.5t-7 -16.5v-724q0 -10 7.5 -16.5t18.5 -6.5h48z" />
    <glyph glyph-name="m" unicode="m" horiz-adv-x="932" 
d="M87 7.5q6 -7.5 18 -7.5h46q12 0 19 7.5t7 16.5v146v73q0 41 16.5 81.5t48 67t73.5 26.5q41 0 65 -17.5t34 -54.5q6 -24 6 -36v-286q0 -9 7 -16.5t19 -7.5h47q11 0 17.5 7.5t6.5 15.5v165v82q0 4 2 16l4 18q14 50 46 82t80 32q57 0 80 -35t23 -96v-263q0 -9 7 -16.5
t19 -7.5h49q12 0 19 7.5t7 16.5q-1 88 -1 263q0 96 -45 160.5t-149 64.5q-54 0 -97.5 -23t-73.5 -64q-49 87 -166 87q-92 0 -147 -68v29q0 11 -9 20t-22 9h-13h-18q-12 -2 -21.5 -9t-9.5 -20v-450q0 -8 6 -15.5z" />
    <glyph glyph-name="n" unicode="n" horiz-adv-x="623" 
d="M154 0q12 0 19 7.5t7 16.5v146v73q0 42 18.5 82.5t52.5 66.5t78 26q63 0 90 -33.5t27 -97.5v-264q0 -10 7 -16.5t18 -6.5h49q11 0 18.5 6.5t7.5 16.5v264q0 100 -50.5 162.5t-158.5 62.5q-101 0 -159 -69v30q0 11 -9.5 20t-22.5 9h-14q-3 0 -9 0.5t-10 -0.5
q-13 -1 -23.5 -7.5t-10.5 -21.5v-450q0 -10 7.5 -16.5t18.5 -6.5h49z" />
    <glyph glyph-name="o" unicode="o" horiz-adv-x="614" 
d="M73.5 119q31.5 -60 91.5 -95t142 -35t142.5 35t92 95t31.5 132q0 73 -31.5 132.5t-92 94t-142.5 34.5t-142 -34.5t-91.5 -94t-31.5 -132.5q0 -72 31.5 -132zM429.5 131.5q-44.5 -46.5 -122.5 -46.5t-122.5 46.5t-44.5 119.5t45 120t122 47q78 0 122.5 -47t44.5 -120
t-44.5 -119.5z" />
    <glyph glyph-name="p" unicode="p" 
d="M89.5 -259q8.5 -9 23.5 -9q8 0 14 -1q13 0 20 1q13 1 23 8t10 22v299q34 -35 80 -53t100 -18q81 0 139.5 35.5t88.5 95t30 130.5q0 72 -30 131.5t-88 95t-140 35.5q-112 0 -178 -70v31q0 11 -10 20t-22 9q-4 0 -15 0.5t-19 -0.5q-13 -1 -24 -7.5t-11 -21.5v-712
q0 -12 8.5 -21zM475.5 131.5q-44.5 -46.5 -122.5 -46.5q-77 0 -124 47t-47 119q0 73 47 120t124 47q78 0 122.5 -47t44.5 -120t-44.5 -119.5z" />
    <glyph glyph-name="q" unicode="q" 
d="M490 -258.5q8 -9.5 22 -9.5h38q14 0 22 9.5t8 20.5v712q0 11 -8.5 20t-21.5 9q-4 0 -15.5 0.5t-19.5 -0.5q-13 -1 -23.5 -7.5t-10.5 -21.5v-32q-68 71 -179 71q-81 0 -139.5 -35.5t-89 -95.5t-30.5 -131t30.5 -130.5t89 -95t139.5 -35.5q54 0 100 18t80 53v-299
q0 -11 8 -20.5zM459.5 166q-21.5 -38 -61 -59.5t-90.5 -21.5q-78 0 -122.5 46.5t-44.5 119.5t45 120t122 47q51 0 90.5 -22t61 -60t21.5 -85t-21.5 -85z" />
    <glyph glyph-name="r" unicode="r" horiz-adv-x="390" 
d="M154 0q12 0 19 7.5t7 16.5v146v73q0 42 18.5 82.5t52.5 66.5t78 26h7q8 0 15 7q4 4 5 8q4 6 7 18q6 17 6 30q0 10 -9 20.5t-22 10.5q-103 0 -160 -69v30q0 11 -9.5 20t-22.5 9h-35q-13 0 -22.5 -9t-9.5 -20v-450q0 -10 7.5 -16.5t18.5 -6.5h49z" />
    <glyph glyph-name="s" unicode="s" horiz-adv-x="460" 
d="M37 64q0 -11 7 -18q1 -1 13 -10l12 -6q70 -40 156 -40h3q50 0 94.5 16.5t72.5 50t28 82.5q0 70 -45 104.5t-126 56.5l-38 10q-24 7 -35 14q-33 17 -33 45q0 24 25 36.5t61 12.5q28 0 57.5 -8t50.5 -23q10 -5 13 -5q14 0 22 12q3 7 13 23q10 18 10 31q0 11 -9 18
q-29 23 -70.5 35t-82.5 12h-3q-48 0 -91 -16.5t-69.5 -50t-26.5 -80.5q0 -67 40.5 -100t108.5 -53l52 -15l19.5 -6.5t22.5 -8.5q19 -9 27.5 -19.5t8.5 -25.5q0 -27 -28 -40.5t-68 -13.5q-32 0 -69 10.5t-61 27.5q-8 6 -15 6q-4 0 -8 -2l-6 -3l-7 -8l-12 -17l-9 -18l-4 -8
q-1 -3 -1 -8z" />
    <glyph glyph-name="t" unicode="t" horiz-adv-x="369" 
d="M132.5 45.5q28.5 -56.5 110.5 -56.5q55 0 107 41l6 6q4 5 4 12q0 3 -3 9l-3 7l-10 14q-5 6 -9.5 12.5t-8.5 10.5q-7 10 -21 10q-7 0 -11 -3l-6 -3l-13 -9q-18 -11 -29 -11q-14 0 -22.5 8t-13.5 25q-3 11 -5 35q-1 11 -1 31v230h110q10 0 17.5 6.5t7.5 16.5v41
q0 9 -7 16.5t-18 7.5h-110v153q0 9 -7.5 15.5t-16.5 6.5h-51q-12 0 -18 -7.5t-6 -16.5v-151h-68q-12 0 -19 -7.5t-7 -16.5v-41q0 -10 7.5 -16.5t18.5 -6.5h67v-236q0 -76 28.5 -132.5z" />
    <glyph glyph-name="u" unicode="u" horiz-adv-x="623" 
d="M129 52.5q50 -63.5 159 -63.5q100 0 160 71v-30q0 -11 8 -20.5t22 -9.5q9 0 14 -1q14 0 20 1q13 1 23.5 8t10.5 22v449q0 10 -7.5 16.5t-18.5 6.5h-49q-13 0 -19 -7t-6 -17v-219q-1 -42 -20 -82.5t-53 -66.5t-78 -26q-62 0 -88.5 33.5t-26.5 95.5v266q0 10 -7.5 16.5
t-18.5 6.5h-50q-11 0 -18 -7.5t-7 -15.5v-264q0 -99 50 -162.5z" />
    <glyph glyph-name="v" unicode="v" horiz-adv-x="519" 
d="M286 0q21 0 27 18q12 26 105 239l36 84q7 16 32 75t25 64q0 11 -8 16.5t-17 5.5h-57q-9 0 -17.5 -5.5t-11.5 -13.5l-141 -351l-142 352q-7 18 -25 18h-59q-9 0 -17 -5.5t-8 -16.5q0 -5 29 -74.5t42 -100.5l21 -48l104 -239q4 -8 12 -13t18 -5h52z" />
    <glyph glyph-name="w" unicode="w" horiz-adv-x="716" 
d="M157 5.5q7 -5.5 18 -5.5h59q7 0 16.5 5.5t11.5 13.5l97 333l97 -333q2 -8 9 -13.5t17 -5.5h59q10 0 17 5.5t9 13.5l138 455q2 6 2 8q0 10 -6.5 15t-15.5 5h-60q-11 0 -17.5 -6.5t-8.5 -13.5l-89 -334l-99 334q-2 8 -9.5 14t-18.5 6h-52q-10 0 -17.5 -6t-9.5 -14l-99 -333
l-89 333q-2 7 -8.5 13.5t-17.5 6.5h-59q-7 0 -15 -4.5t-8 -14.5q0 -9 66 -223l74 -241q2 -8 9 -13.5z" />
    <glyph glyph-name="x" unicode="x" horiz-adv-x="524" 
d="M115 0q8 0 17 4t14 11l113 152l115 -152q5 -7 14 -11t17 -4h66q8 0 12 2q5 2 8.5 6.5t3.5 10.5q0 9 -6 15l-168 217l177 217q6 6 6 15q0 12 -12 16q-8 3 -13 3h-65q-18 0 -30 -15l-123 -159l-119 159q-12 15 -30 15h-66q-7 0 -13 -3q-5 -2 -9 -6.5t-4 -10.5q0 -3 3 -9
q1 -3 4 -6l170 -221l-40 -52q5 6 -47 -59l-57 -73l-18 -25l-5 -8q-4 -5 -4 -10q0 -10 11 -17q5 -2 13 -2h65z" />
    <glyph glyph-name="y" unicode="y" horiz-adv-x="525" 
d="M188 -245q20 0 28 19l156 367l97 229l32 75l9 22q2 4 2 6q2 4 2 7q0 10 -8 16t-18 6h-56q-20 0 -29 -19l-143 -345l-139 345q-3 9 -10.5 14t-17.5 5h-56q-9 0 -17.5 -5t-8.5 -17q0 -10 84 -203l10 -23l60 -138q43 -98 44 -101l-51 -119q-46 -111 -46 -119
q0 -11 8.5 -16.5t17.5 -5.5h50z" />
    <glyph glyph-name="z" unicode="z" horiz-adv-x="516" 
d="M441 0q13 0 19.5 7t6.5 17v40q0 10 -6.5 17t-19.5 7h-235l251 375l3 6q3 5 3 10q0 13 -10 18t-19 5h-347q-12 0 -18.5 -7.5t-6.5 -16.5v-41q0 -10 7.5 -16.5t17.5 -6.5h220l-252 -377q-5 -7 -5 -16q0 -14 13 -18q5 -3 15 -3h363z" />
    <glyph glyph-name="braceleft" unicode="{" horiz-adv-x="424" 
d="M336 -175q12 0 19 7.5t7 16.5v45q0 9 -7.5 16.5t-18.5 7.5h-43q-15 0 -21 20q-6 18 -6 45v171q0 43 -16.5 80.5t-51.5 63.5q35 26 51.5 63.5t16.5 80.5v171q0 27 6 44q6 20 21 20h43q11 0 18.5 7.5t7.5 16.5v45q0 9 -7 16.5t-19 7.5h-46q-70 0 -97 -47t-27 -110v-176
q0 -29 -12.5 -54t-35.5 -36l-7 -2q1 1 -9 -2q-18 -7 -18 -21v-46q0 -19 19 -23q31 -7 47 -33.5t16 -60.5v-176q0 -63 27 -110.5t97 -47.5h46z" />
    <glyph glyph-name="braceright" unicode="}" horiz-adv-x="424" 
d="M135 -175q70 0 96.5 47.5t26.5 110.5v176q0 35 16 60.5t48 33.5q8 2 13.5 7.5t5.5 14.5v45q0 8 -5 14.5t-13 8.5l-10 2l-6 2q-24 11 -36.5 36t-12.5 54v176q0 63 -26.5 110t-96.5 47h-46q-13 0 -19.5 -7.5t-6.5 -16.5v-45q0 -10 7 -17t19 -7h43q13 0 20 -20q6 -18 6 -44
l-1 -171q0 -43 17 -80.5t51 -63.5q-34 -26 -51 -63.5t-17 -80.5q0 -114 1 -171q0 -26 -6 -44q-7 -20 -20 -20h-43q-12 0 -19 -7.5t-7 -16.5v-46q0 -10 6.5 -17t19.5 -7h46z" />
    <glyph glyph-name="asciitilde" unicode="~" horiz-adv-x="642" 
d="M355 186q31 -16 75 -16q61 0 104 41.5t63 96.5q2 6 2 9q0 4 -2 10.5t-6 9.5l-21 21l-13 12l-6 5q-6 4 -12 4q-12 0 -18 -8l-4 -8q-8 -19 -15 -31q-7 -16 -18 -30q-23 -29 -52 -29q-20 0 -42 15q-10 7 -20 17l-21 20q-30 27 -61 43t-76 16q-61 0 -103 -41.5t-63 -97.5
q-2 -4 -2 -9q0 -3 3 -9l4 -7q8 -10 13 -15q6 -7 12 -12.5t9 -9.5q8 -8 19 -8t17 7q2 2 3 4l2 4l14 32q13 23 18 30q23 29 53 29q19 0 41 -15q14 -10 21 -16l22 -21q29 -27 60 -43z" />
    <glyph glyph-name="cent" unicode="&#xa2;" horiz-adv-x="692" 
d="M612 84q0 8 -6 18l-13 14q-7 7 -13 12t-9 8q-8 8 -21 8q-11 0 -23 -8q-31 -26 -63 -37.5t-74 -11.5q-57 0 -100.5 23.5t-67.5 65t-24 93.5t24 93t68 64.5t100 23.5q66 0 113 -32l10 -8l11 -9q10 -7 22 -7q11 0 21 8q5 5 11 10.5t11 10.5q5 4 13 14q6 8 6 18q0 13 -9 20
q-30 30 -74 48t-92 23v76q0 11 -9 20.5t-23 9.5h-53q-14 0 -23 -9.5t-9 -20.5v-79q-71 -14 -125 -53.5t-83.5 -97t-29.5 -123.5q0 -67 29.5 -124.5t83.5 -97t125 -53.5v-81q0 -11 9.5 -20.5t22.5 -9.5h53q13 0 22.5 9.5t9.5 20.5v77q49 5 93.5 23.5t76.5 50.5q9 7 9 20z" />
    <glyph glyph-name="sterling" unicode="&#xa3;" horiz-adv-x="742" 
d="M282 318h274q13 0 22 8.5t9 19.5v47q0 11 -8.5 20.5t-22.5 9.5h-274v74q0 67 45.5 108.5t118.5 41.5q62 0 108 -31l8 -6q6 -6 10 -8q9 -9 21 -9q4 0 10 3l8 3l17 11q18 10 28 18q15 9 15 25q0 9 -8 19q-35 40 -96 61t-121 21q-82 0 -147.5 -32.5t-102.5 -91t-37 -133.5
v-74h-67q-14 0 -22.5 -9.5t-8.5 -20.5v-47q0 -10 9 -19t22 -9h67v-212h-67q-14 0 -22.5 -9.5t-8.5 -20.5v-46q0 -11 8 -20.5t23 -9.5h555q14 0 23 9.5t9 20.5v46q0 11 -9 20.5t-23 9.5h-365v212z" />
    <glyph glyph-name="yen" unicode="&#xa5;" horiz-adv-x="837" 
d="M572 423l199 262q8 10 8 22q0 14 -11.5 23.5t-26.5 9.5h-65q-6 0 -13.5 -3t-10.5 -8l-233 -320l-232 320q-10 11 -25 11h-65q-16 0 -26.5 -10t-10.5 -24q0 -11 8 -21l197 -262h-104q-14 0 -22.5 -9.5t-8.5 -20.5v-38q0 -11 8.5 -20t22.5 -9h177l21 -26v-48h-198
q-15 0 -23 -9.5t-8 -20.5v-37q0 -11 8 -20.5t23 -9.5h198v-125q0 -11 8.5 -20.5t22.5 -9.5h60q14 0 22.5 9.5t8.5 20.5v125h198q14 0 22.5 9.5t8.5 20.5v37q0 12 -8.5 21t-22.5 9h-198v48l20 26h178q13 0 22 8.5t9 20.5v38q0 11 -8.5 20.5t-22.5 9.5h-107z" />
    <glyph glyph-name="copyright" unicode="&#xa9;" horiz-adv-x="1055" 
d="M153.5 172.5q55.5 -87.5 153.5 -136.5t220 -49t220 48.5t153.5 136t55.5 199.5q0 111 -56 198t-153.5 135t-219.5 48t-219.5 -48t-153.5 -135t-56 -198t55.5 -198.5zM812.5 217.5q-41.5 -67.5 -116 -105t-169.5 -37.5q-96 0 -170 37.5t-115.5 104.5t-41.5 154
q0 85 42 152t116.5 104t168.5 37q95 0 169 -37t116 -103.5t42 -152.5t-41.5 -153.5zM318.5 252.5q28.5 -53.5 82.5 -85t127 -31.5q60 0 113.5 25t84.5 72q4 8 4 14q0 11 -22.5 30.5t-34.5 19.5q-8 0 -16 -5l-6 -7q-44 -61 -123 -61q-68 0 -107.5 41t-39.5 106
q0 64 39.5 104.5t107.5 40.5q79 0 123 -61l6 -7q6 -5 16 -5t33.5 19.5t23.5 30.5q0 6 -4 14q-30 45 -83 71.5t-111 26.5q-73 0 -128 -31.5t-84.5 -85t-29.5 -117.5q0 -65 28.5 -118.5z" />
    <glyph glyph-name="registered" unicode="&#xae;" horiz-adv-x="1055" 
d="M153.5 172.5q55.5 -87.5 153.5 -136.5t220 -49t220 48.5t153.5 136t55.5 199.5q0 111 -56 198t-153.5 135t-219.5 48t-219.5 -48t-153.5 -135t-56 -198t55.5 -198.5zM812.5 217.5q-41.5 -67.5 -116 -105t-169.5 -37.5q-96 0 -170 37.5t-115.5 104.5t-41.5 154
q0 85 42 152t116.5 104t168.5 37q95 0 169 -37t116 -103.5t42 -152.5t-41.5 -153.5zM439 140q11 0 18.5 7.5t7.5 16.5v162h32l106 -173q10 -13 24 -13h42q8 0 16.5 4.5t8.5 16.5q0 4 -2 9l-4 7l-12 20q-25 40 -37 58q-31 49 -52 78q51 13 78 48.5t27 86.5q0 66 -43.5 103.5
t-116.5 37.5h-125q-11 0 -18.5 -7t-7.5 -17v-421q0 -10 7.5 -17t18.5 -7h32zM533 533q76 0 76 -65q0 -33 -19 -48.5t-57 -15.5h-68v129h68z" />
    <glyph glyph-name="multiply" unicode="&#xd7;" horiz-adv-x="536" 
d="M62 187q0 -10 7 -17l39 -38l7 -5q6 -2 12 -2q10 0 19 7l125 123l121 -121q8 -8 18 -8t19 7l36 36q7 7 7 17t-7 17l-125 121l126 124q8 8 8 17t-8 17l-38 38q-11 8 -19 8t-19 -8l-124 -123l-121 123q-6 6 -19 6q-12 0 -19 -6l-36 -36q-7 -7 -7 -17t7 -17l124 -121
l-126 -125q-7 -7 -7 -17z" />
    <glyph glyph-name="divide" unicode="&#xf7;" horiz-adv-x="629" 
d="M264.5 415.5q19.5 -19.5 51.5 -19.5q33 0 50.5 20t17.5 48t-18 47.5t-50 19.5t-51.5 -19t-19.5 -48t19.5 -48.5zM88 375q-12 0 -19 -7t-7 -17v-49q0 -10 7 -17t19 -7h454q11 0 18.5 7.5t7.5 16.5v49q0 9 -7.5 16.5t-18.5 7.5h-454zM264.5 143q19.5 -19 51.5 -19t50 19.5
t18 47.5t-18 47.5t-50 19.5t-51.5 -19t-19.5 -48t19.5 -48z" />
    <glyph glyph-name="endash" unicode="&#x2013;" horiz-adv-x="662" 
d="M553 278q11 0 18.5 7.5t7.5 16.5v49q0 9 -7.5 16.5t-18.5 7.5h-443q-12 0 -19 -7t-7 -17v-49q0 -10 7 -17t19 -7h443z" />
    <glyph glyph-name="emdash" unicode="&#x2014;" horiz-adv-x="951" 
d="M842 277q12 0 18.5 7t6.5 17v49q0 10 -6.5 17t-18.5 7h-732q-12 0 -19 -7t-7 -17v-49q0 -10 6.5 -17t19.5 -7h732z" />
    <glyph glyph-name="quoteleft" unicode="&#x2018;" horiz-adv-x="257" 
d="M173 473q14 0 29 18t15 28q0 12 -8 18q-15 11 -13 10l-11 10q-41 42 -49 88q28 5 43.5 25t15.5 46q0 31 -20 53.5t-55 22.5q-46 0 -63 -31.5t-17 -70.5q0 -60 33 -121.5t86 -91.5q7 -4 14 -4z" />
    <glyph glyph-name="quoteright" unicode="&#x2019;" horiz-adv-x="258" 
d="M56 491q15 -18 29 -18q6 0 14 4q35 19 62.5 55t42 79t14.5 80q0 39 -17 70t-62 31q-36 0 -55.5 -22.5t-19.5 -53.5q0 -26 15.5 -46t43.5 -25q-10 -48 -50 -88l-11 -10q-15 -11 -13 -10q-8 -8 -8 -18t15 -28z" />
    <glyph glyph-name="quotedblleft" unicode="&#x201c;" horiz-adv-x="423" 
d="M174 473q14 0 29 18t15 28q0 12 -8 18q-15 11 -13 10l-11 10q-41 42 -49 88q27 5 42.5 25t15.5 46q0 31 -19 53.5t-55 22.5q-45 0 -62.5 -31.5t-17.5 -70.5q0 -60 33 -121.5t86 -91.5q7 -4 14 -4zM340 473q13 0 28.5 18t15.5 28q0 7 -4 12q-1 3 -6 6q-30 26 -47.5 51.5
t-23.5 56.5q27 5 42.5 25t15.5 46q0 31 -20 53.5t-55 22.5q-45 0 -62 -30.5t-17 -69.5q0 -36 14.5 -80t42 -81t62.5 -55q6 -3 14 -3z" />
    <glyph glyph-name="quotedblright" unicode="&#x201d;" horiz-adv-x="423" 
d="M56 491q15 -18 29 -18q6 0 14 4q35 19 62.5 55t42 79t14.5 80q0 39 -17 70t-62 31q-36 0 -55.5 -22.5t-19.5 -53.5q0 -27 15 -46.5t43 -24.5q-9 -48 -49 -88l-11 -10q-15 -11 -13 -10q-8 -8 -8 -18t15 -28zM221.5 491q14.5 -18 28.5 -18q8 0 14 4q35 19 62.5 55.5t42 79
t14.5 79.5q0 39 -17 70t-62 31q-35 0 -55 -22.5t-20 -53.5q0 -26 15.5 -46t43.5 -25q-6 -31 -23 -55t-50 -53q-8 -8 -8 -18t14.5 -28z" />
    <glyph glyph-name="Euro" unicode="&#x20ac;" horiz-adv-x="887" 
d="M804 113q0 14 -12 23l-24 22l-16 12l-8 5q-9 3 -12 3q-14 0 -23 -11q-42 -38 -84.5 -55t-100.5 -17q-80 0 -140.5 37.5t-91.5 104.5h308q13 0 22 8.5t9 20.5q0 5 1 15.5t0 18.5q-2 14 -7 21q-8 13 -25 13h-335q-1 12 -1 37q0 24 1 37h335q13 0 22 8.5t9 20.5v38
q0 12 -9 20.5t-22 8.5h-307q31 66 91.5 104.5t139.5 38.5q86 0 150 -51l13 -14l8 -7l8 -7q11 -9 23 -9q13 0 22 9l27 24q7 5 15 16q8 10 8 20q0 12 -7 19q-13 15 -38 34q-94 71 -227 71q-131 0 -230 -67.5t-138 -180.5h-77q-14 0 -22.5 -9t-8.5 -20v-38q0 -11 8.5 -20
t22.5 -9h59q-2 -13 -2 -37q0 -25 1 -37h-58q-14 0 -22.5 -9.5t-8.5 -20.5q0 -4 -1 -14.5t0 -18.5q2 -14 7 -21q7 -13 25 -13h77q39 -114 137.5 -182t228.5 -68q78 0 150 27.5t121 79.5q9 9 9 19z" />
    <glyph glyph-name="trademark" unicode="&#x2122;" horiz-adv-x="599" 
d="M94.5 490q6.5 -7 17.5 -7l7 -1h12q8 1 15.5 6.5t7.5 16.5v209h59q4 0 7 1v-206q0 -10 7 -17t18 -7l7 -1q7 0 11 1q9 1 15.5 6t6.5 16v101q49 -112 63 -121l-14 8q4 -6 15 -10q4 -1 11 -1l14 1q17 0 23 13l48 111v-102q0 -8 5.5 -15t17.5 -7l7 -1h11q9 1 16 6.5t7 16.5
v245q0 8 -5.5 15.5t-16.5 7.5h-18q-5 0 -13 -2q-11 -2 -16 -12l-76 -177l-76 178q-1 3 -5 6.5t-10 4.5q-8 2 -11 2h-8q-8 0 -11 -1q-8 0 -16 -6q-5 5 -14 5h-183q-9 0 -16 -6.5t-7 -15.5l-1 -6v-10q1 -8 6.5 -14.5t17.5 -6.5h58v-209q0 -8 6.5 -15z" />
    <glyph glyph-name="minus" unicode="&#x2212;" horiz-adv-x="629" 
d="M88 375q-12 0 -19 -7t-7 -17v-49q0 -10 7 -17t19 -7h454q11 0 18.5 7.5t7.5 16.5v49q0 9 -7.5 16.5t-18.5 7.5h-454z" />
    <glyph glyph-name="_FSHallmark" horiz-adv-x="980" 
d="M92 784h819v-96h-819v96zM805 505q0 10 -7 22q-9 10 -18 17q-16 8 -23 10q-5 1 -11 2t-13 1q-24 0 -47 -12q-20 -13 -20 -29q0 -29 18 -40q25 -13 44 -17l65 -15q17 -6 29 -7q5 -1 24 -6q5 -3 10.5 -5.5t10.5 -5.5q21 -13 31 -27q12 -19 12 -48q0 -22 -10 -44
q-25 -41 -72 -58q-48 -15 -93 -15q-39 0 -67 9q-26 7 -57 27q-25 18 -42 47q-15 27 -15 64l95 -2q0 -5 4 -14q2 -15 14 -26q11 -11 25 -17q17 -9 46 -9q33 0 52 12q20 9 20 25q0 30 -78 46q-74 18 -120 43q-49 26 -49 82q0 48 32 74t72 39q34 8 68 8q48 0 93 -18
q44 -18 65 -65q11 -27 11 -48h-99zM200 228h-108v407h345v-93h-237v-91h197v-91h-197v-132zM442 312q13 13 35 13q20 0 39 -14q16 -13 16 -34q0 -19 -16 -34q-17 -13 -39 -13q-19 0 -34 15q-15 14 -15 32q0 21 14 35zM90 177h820v-97h-820v97z" />
    <glyph glyph-name="_Fontastica" horiz-adv-x="980" 
d="M283 147h-113q-1 2 -1 5v664h497v-102h-383v-273h384v-103h-384v-191zM355 626h385v190h113v-667h-498v101h385v273h-385v103zM733 72q0 -9 5 -14q5 -6 12 -6q9 0 18 6l6 -6q-9 -11 -24 -11q-10 0 -21 6q-6 8 -9 21v3q0 11 8 19q10 10 22 10q14 0 24 -10l-6 -8q-1 2 -3 3
t-3 2q-1 2 -9 2h-3q-9 -4 -10 -7q-7 -3 -7 -10zM170 99h42v-10h-27v-16h26v-9h-26v-22h-15v57zM293 84q4 -5 4 -14q0 -8 -2 -12q-6 -16 -25 -17l-7 -3q-8 0 -12 4q-18 8 -18 25q0 15 9 23q6 9 22 9q19 0 29 -15zM374 42h-3l-4 -1q-5 0 -9 6l-6 8q-1 2 -2.5 4t-2.5 4l-12 14
v-35h-13v57h11q4 -1 6 -8l13 -14q2 -3 4.5 -7.5t6.5 -9.5v39h11v-57zM399 99h48v-10h-18v-47h-12v47h-18v10zM589 59v-3q0 -10 -10 -14q-2 -1 -11 -1q-19 0 -27 9l1 2l1 2q0 2 2 4l18 -6h8q1 2 2.5 3t1.5 0q0 9 -13 12q-2 0 -3 1t-5 1q-5 1 -7 4t-2 9l-1 4q0 7 9 11
q6 2 13 2q14 0 23 -5l-5 -10l-4 1l-3 1q-1 1 -4 1q-1 0 -2 2h-8q-4 0 -4 -4v-1q0 -3 4 -7q6 -1 14 -5q12 -1 12 -13zM608 99h50v-10h-18v-47h-13v47h-19v10zM681 99h15v-57h-15v57zM832 99l12 -27q0 -2 6 -16q4 -10 7 -14h-13l-5 12h-28l-5 -12h-13q15 29 23 57h16zM497 97
q2 -6 6 -13q3 -4 4.5 -7.5t2.5 -5.5q1 -3 2.5 -7t2.5 -8t2.5 -7.5t2.5 -6.5h-13q-1 1 -1 5q0 1 -1 2.5t-2 4.5h-26q-1 -2 -1 -7l-1 -2l-3 -3h-12l24 55h13zM281 71q0 8 -4 13q-7 5 -14 5q-2 -2 -4 -2q-6 -1 -11 -9q-6 -7 -1 -14q4 -13 17 -13q4 0 5 1q12 3 12 17v2zM499 64
q-1 1 -1 2.5t-1 2.5l-1.5 3t-1.5 2q-1 2 -1 6q-1 1 -1.5 2.5t-1.5 2.5l-10 -21h19zM833 64q-1 1 -1 5q-2 5 -3 5l-2 6q-1 1 -1.5 2.5t-1.5 2.5l-9 -21h18z" />
    </font>
</defs>
</svg>
