<?xml version="1.0" standalone="no"?>
<!DOCTYPE svg PUBLIC "-//W3C//DTD SVG 1.1//EN" "http://www.w3.org/Graphics/SVG/1.1/DTD/svg11.dtd" >
<svg xmlns="http://www.w3.org/2000/svg" xmlns:xlink="http://www.w3.org/1999/xlink" version="1.1">
<metadata>
Created by FontForge 20170731 at Mon Jan 10 10:16:21 2022
 By Aleksey,,,
Copyright (c) 2019 by Fontastica. All rights reserved.
</metadata>
<defs>
<font id="Qartella-Bold" horiz-adv-x="1349" >
  <font-face 
    font-family="Qartella"
    font-weight="700"
    font-stretch="normal"
    units-per-em="2048"
    panose-1="0 0 8 0 0 0 0 0 0 0"
    ascent="1638"
    descent="-410"
    x-height="1028"
    cap-height="1579"
    bbox="-158 -551 1989 1681"
    underline-thickness="102"
    underline-position="-307"
    unicode-range="U+0020-2212"
  />
<missing-glyph horiz-adv-x="1304" 
d="M1221 1565l2 -4v-1555l-1141 -4v1554l2 5zM1128 90v1391l-952 -4v-1391zM373 1145l282 -289l291 291l80 -80l2 -4l-293 -291l289 -285v-6l-74 -73l-286 286l-291 -291l-82 80l287 297l-285 287v4l74 74h6z" />
    <glyph glyph-name=".notdef" horiz-adv-x="1304" 
d="M1221 1565l2 -4v-1555l-1141 -4v1554l2 5zM1128 90v1391l-952 -4v-1391zM373 1145l282 -289l291 291l80 -80l2 -4l-293 -291l289 -285v-6l-74 -73l-286 286l-291 -291l-82 80l287 297l-285 287v4l74 74h6z" />
    <glyph glyph-name=".null" horiz-adv-x="0" 
 />
    <glyph glyph-name="nonmarkingreturn" horiz-adv-x="682" 
 />
    <glyph glyph-name="space" unicode=" " horiz-adv-x="565" 
 />
    <glyph glyph-name="exclam" unicode="!" horiz-adv-x="626" 
d="M256 416h115q22 0 36.5 13t14.5 34l4 1065q0 21 -13 36t-38 15h-123q-23 0 -37 -15.5t-14 -35.5l4 -1065q0 -21 14.5 -34t36.5 -13zM172 117q0 -58 37.5 -99t103.5 -41t104 41.5t38 98.5q0 58 -38.5 96.5t-103.5 38.5t-103 -38.5t-38 -96.5z" />
    <glyph glyph-name="quotedbl" unicode="&#x22;" horiz-adv-x="866" 
d="M84 1063q0 -20 31 -57t59 -37q13 0 29 8q108 57 175.5 187.5t67.5 250.5q0 26 -3 51t-13.5 54.5t-27.5 51t-47 36t-70 14.5q-73 0 -113.5 -46t-40.5 -110q0 -55 31 -95t88 -50q-17 -97 -100 -180l-23 -21q-25 -19 -27 -20q-16 -16 -16 -37zM424 1063q0 -21 30 -57.5
t58 -36.5q17 0 29 8q108 57 175.5 188t67.5 250q0 26 -3 51t-13.5 54.5t-27.5 51t-47 36t-70 14.5q-72 0 -113 -46.5t-41 -109.5q0 -54 32 -94.5t89 -50.5q-13 -64 -47.5 -112t-102.5 -109q-16 -16 -16 -37z" />
    <glyph glyph-name="numbersign" unicode="#" horiz-adv-x="1513" 
d="M201 43q0 -17 12 -30t35 -13h96q22 0 38 13.5t19 29.5l111 410h291l-21 -75q-22 -74 -34 -120q-56 -203 -56 -215q0 -22 16 -32.5t33 -10.5h97q46 0 57 43l111 410h237q20 0 36.5 13t23.5 30q1 4 14 43q2 4 3.5 8t2.5 9t2 7q6 24 6 25q0 21 -14.5 31t-34.5 10h-229
l80 293h206q43 0 58 39q1 2 7 17.5t9 25.5q6 12 10 24q1 2 2 6t2 6l1 5q2 5 2 8q0 19 -14 31t-34 12h-206q8 25 29 101t30 108q61 209 61 229t-15 32.5t-34 12.5h-98q-41 0 -55 -43l-119 -440h-289l57 209q58 212 58 231q0 20 -13.5 31.5t-33.5 11.5h-97q-22 0 -38 -13.5
t-19 -29.5l-117 -440h-207q-48 0 -61 -41l-16 -43q-9 -17 -11 -27q-4 -12 -4 -24q0 -19 14 -29t31 -10h205l-78 -293h-180q-21 0 -38 -11.5t-23 -29.5l-15 -43l-4.5 -13.5t-5.5 -13.5q0 -2 -1 -6t-1 -6q-2 -4 -2 -10q0 -21 16 -32t33 -11h172q-32 -113 -51 -193
q-55 -200 -55 -217zM639 922h289l-76 -293h-291z" />
    <glyph glyph-name="dollar" unicode="$" horiz-adv-x="1308" 
d="M571 -195q0 -21 13.5 -35t38.5 -14h69q25 0 38 14.5t13 34.5v177q216 15 340.5 133.5t124.5 318.5q0 79 -26.5 144.5t-68 110t-105 81t-125 59t-140.5 43.5v510q140 -19 271 -122q14 -11 30 -11q18 0 31 15q10 10 12 16q5 7 25 41q4 9 11 24.5t10 20.5q3 12 6 18
q4 16 4 19q0 21 -15 39q-9 11 -26 24q-5 3 -14 10t-13 9q-132 91 -330 108v27q0 21 -8 37q-16 24 -45 24h-61q-15 0 -23 -2q-12 -3 -24 -12q-10 -14 -13 -22q0 -4 -1 -11t-1 -10v-31q-192 -24 -323 -141.5t-131 -294.5q0 -99 35 -178.5t99.5 -135.5t143 -94.5t178.5 -66.5
v-489q-91 14 -176.5 52.5t-146.5 94.5l-12 12h-13q-4 2 -14 2q-27 0 -67 -64t-40 -81q0 -18 15 -37q11 -14 30 -29q3 -3 13.5 -10t15.5 -12q163 -116 395 -139v-177zM571 1382v-458q-120 38 -179.5 89t-59.5 146q0 87 67.5 146t171.5 77zM743 188v451q55 -17 94.5 -33.5
t77 -41t57 -58.5t19.5 -76q0 -102 -67.5 -165t-180.5 -77z" />
    <glyph glyph-name="percent" unicode="%" horiz-adv-x="1712" 
d="M424 0h121q13 0 29 9t22 20l885 1546q6 8 6 27q0 38 -45 38h-119q-20 0 -35 -12q-6 -6 -14 -18l-883 -1547l-6 -8q-4 -8 -4 -18q0 -21 14.5 -29t28.5 -8zM86 1233q0 -158 100 -261.5t273 -103.5q174 0 273 103.5t99 261.5q0 157 -99 260.5t-273 103.5q-173 0 -273 -104
t-100 -260zM616 1235q0 -74 -40.5 -118t-116.5 -44q-74 0 -118 45t-44 117q0 69 45 114.5t117 45.5q75 0 116 -44t41 -116zM993 344q0 -157 101 -262t274 -105t273 104.5t100 262.5q0 157 -100 261t-273 104t-274 -105t-101 -260zM1528 344q0 -73 -43.5 -117.5t-118.5 -44.5
q-74 0 -116 45t-42 117q0 70 43 115t115 45q74 0 118 -44.5t44 -115.5z" />
    <glyph glyph-name="ampersand" unicode="&#x26;" horiz-adv-x="1548" 
d="M68 487q0 -121 51 -221t137.5 -165t199.5 -100.5t240 -35.5q266 0 447 178l133 -120q8 -8 29 -15.5t32 -7.5h142q12 0 20 4q9 2 18 11t9 22q0 10 -8 20q-1 1 -4 5t-5 6l-30 30q-13 13 -45.5 43t-42.5 39l-131 119q129 235 129 539q0 18 -15.5 33.5t-38.5 15.5h-110
q-26 0 -39 -14.5t-15 -32.5q-2 -19 -3 -57t-3 -58q-16 -151 -71 -272l-416 383l-86 79q-55 55 -86 93q-90 107 -90 192q0 88 47.5 143.5t134.5 55.5q76 0 129 -53l18 -21q2 -5 8 -11.5t7 -8.5l6 -7q6 -8 10 -10q14 -14 33 -14q13 0 29 12q3 2 24 16.5t35 24.5q11 7 37 27
l14 14q8 16 8 25q0 13 -6 22q-48 92 -136.5 137t-203.5 45q-187 0 -298 -111.5t-111 -281.5q0 -155 129 -301q-129 -62 -195.5 -170t-66.5 -246zM983 291q-117 -123 -289 -123q-109 0 -201 36.5t-150 110.5t-58 172q0 92 49 165t137 108z" />
    <glyph glyph-name="quotesingle" unicode="'" horiz-adv-x="528" 
d="M84 1063q0 -20 31 -57t59 -37q13 0 29 8q108 57 175.5 187.5t67.5 250.5q0 26 -3 51t-13.5 54.5t-27.5 51t-47 36t-70 14.5q-73 0 -113.5 -46t-40.5 -110q0 -54 32 -94.5t89 -50.5q-20 -98 -102 -180l-23 -21q-25 -19 -27 -20q-16 -16 -16 -37z" />
    <glyph glyph-name="parenleft" unicode="(" horiz-adv-x="706" 
d="M422 -352h104q15 0 23 4q20 12 20 33q0 8 -8 24q-117 175 -182.5 418t-65.5 463v20q0 235 64 468t186 440q8 16 8 24q0 19 -20 31q-15 6 -25 6h-104q-39 0 -62 -35q-33 -54 -41 -71q-29 -60 -34 -72q-183 -388 -183 -791q0 -415 183 -790q13 -29 34 -70q11 -23 43 -69
q24 -33 60 -33z" />
    <glyph glyph-name="parenright" unicode=")" horiz-adv-x="706" 
d="M180 -352h107q33 0 57 30q16 19 39 62q7 11 17.5 31.5t13.5 25.5q192 381 192 813q0 409 -194 813q-9 15 -29 62q-35 58 -37 61q-27 33 -59 33h-107q-14 0 -24 -6q-21 -11 -21 -31q0 -10 8 -26q117 -188 183.5 -434.5t66.5 -471.5v-20q0 -412 -186 -772
q-10 -20 -33 -56.5t-31 -52.5q-8 -12 -8 -24q0 -21 16 -29t29 -8z" />
    <glyph glyph-name="asterisk" unicode="*" horiz-adv-x="987" 
d="M254 733q15 -12 35 -12q27 0 45 22l162 224l159 -224q22 -22 41 -22q22 0 37 12l78 74q18 18 18 37q0 21 -14 35l-170 194l250 139q25 16 25 43q0 9 -5 19l-6 14q0 1 -8 13.5t-12 19.5l-37 51q-15 23 -43 23q-2 0 -6 -1t-6 -1h-11l-198 -133l12 264q2 21 -12.5 36
t-38.5 15h-111q-24 0 -38.5 -15t-12.5 -36l12 -264l-198 133h-11q-2 0 -6 1t-6 1q-30 0 -43 -23q-3 -5 -17 -23.5t-20 -27.5q-2 -5 -9 -16t-9 -17l-8 -16q-4 -8 -4 -19q0 -26 26 -41l250 -137l-172 -196q-14 -14 -14 -35t16 -37z" />
    <glyph glyph-name="plus" unicode="+" horiz-adv-x="1288" 
d="M588 162h112q25 0 38.5 14.5t13.5 34.5v358h358q23 0 38 15t15 34v101q0 19 -15 34t-38 15h-358v356q0 21 -13.5 36.5t-38.5 15.5h-112q-24 0 -38.5 -16t-14.5 -36v-356h-355q-25 0 -39 -14.5t-14 -34.5v-101q0 -20 14 -34.5t39 -14.5h355v-358q0 -20 14 -34.5t39 -14.5z
" />
    <glyph glyph-name="comma" unicode="," horiz-adv-x="573" 
d="M106 -254q0 -20 32 -59t59 -39q12 0 28 8q109 59 176.5 189t67.5 251q0 26 -3.5 50.5t-14 53.5t-27.5 50t-47 35t-70 14q-72 0 -112.5 -42.5t-40.5 -104.5q0 -56 31.5 -98t88.5 -52q-17 -96 -102 -178q-14 -14 -22 -19q-7 -7 -27 -22q-17 -17 -17 -37z" />
    <glyph glyph-name="hyphen" unicode="-" horiz-adv-x="948" 
d="M180 571h588q25 0 39 15t14 35v100q0 20 -14 34.5t-39 14.5h-588q-25 0 -39 -14.5t-14 -34.5v-100q0 -20 14 -35t39 -15z" />
    <glyph glyph-name="period" unicode="." horiz-adv-x="653" 
d="M172 129q0 -62 42 -107t112 -45t111.5 45t41.5 107q0 63 -40.5 106.5t-112.5 43.5q-71 0 -112.5 -43.5t-41.5 -106.5z" />
    <glyph glyph-name="slash" unicode="/" horiz-adv-x="894" 
d="M45 0h107q17 0 35 11.5t24 25.5q42 91 358 815q220 498 224 508q49 119 71 166q4 11 12 27t9 20l6 14q2 8 2 15q0 15 -9.5 24t-18.5 11.5t-17 2.5h-105q-42 0 -59 -34l-358 -815q-28 -64 -77 -174.5t-85 -191.5t-62 -142q-46 -103 -71 -168q-16 -32 -21 -47
q-4 -10 -6 -13l-4 -14q0 -18 12.5 -29.5t32.5 -11.5z" />
    <glyph glyph-name="zero" unicode="0" horiz-adv-x="1865" 
d="M215 776q0 -117 27.5 -228t86 -211t141.5 -175.5t202.5 -119.5t259.5 -44q141 0 260.5 44t203.5 119t143 175t87.5 211.5t28.5 228.5q0 118 -28.5 230t-87.5 212.5t-143 176t-204 120t-260 44.5q-141 0 -260.5 -44.5t-202 -120t-141 -176.5t-86 -213t-27.5 -229z
M1432 776q0 -87 -19 -172t-59.5 -163t-98 -137t-141 -94.5t-182.5 -35.5t-183 35.5t-141.5 94.5t-97.5 137t-59 163t-19 172q0 89 18.5 174.5t59 164.5t97.5 138.5t141 95t184 35.5t184 -35.5t141 -95t97.5 -138.5t59 -164.5t18.5 -174.5z" />
    <glyph glyph-name="one" unicode="1" horiz-adv-x="927" 
d="M502 27h84q26 0 45.5 18t19.5 41v1387q0 8 -4 24l-6 16l-3 3q-2 3 -4.5 5.5t-6 5t-8.5 4t-11 1.5h-12q-4 0 -16 -4l-433 -164q-38 -15 -38 -51v-25q0 -23 2 -33q10 -59 65 -59q12 0 14 2q5 0 13 4l35 10q63 25 90 35q31 11 108 43v-1204q0 -24 19.5 -41.5t46.5 -17.5z
" />
    <glyph glyph-name="two" unicode="2" horiz-adv-x="1503" 
d="M258 27h969q27 0 44 18t17 41v23q3 16 0 32q-12 58 -61 58h-692l489 444q75 69 121.5 124.5t79 134.5t32.5 169q0 222 -152 355t-396 133q-149 0 -286 -54t-224 -157q-17 -21 -17 -39q0 -31 49 -66t74 -35q26 0 49 23q5 4 27 26q19 19 29 27q121 100 292 100
q155 0 245.5 -82t90.5 -223q0 -88 -43 -155t-133 -152l-629 -569l-18 -19q-2 -2 -5 -6t-5 -6q-7 -13 -8 -20v-2q0 -4 -1 -16t-1 -24t2 -22q6 -61 61 -61z" />
    <glyph glyph-name="three" unicode="3" horiz-adv-x="1585" 
d="M1083 797q110 47 175 133.5t65 197.5q0 89 -37.5 163t-98.5 122.5t-142 82t-164 48.5t-168 15q-138 0 -268.5 -37.5t-213.5 -120.5q-20 -20 -20 -45q0 -29 25 -47q4 -2 16 -12t20 -15l23 -16q27 -9 33 -9q26 0 45 19q67 60 149 84t191 24q78 0 145.5 -14.5t124 -44.5
t89 -81.5t32.5 -119.5q0 -65 -32 -114t-87 -76.5t-120.5 -41t-141.5 -13.5h-199q-29 0 -47 -19t-18 -43v-24q-1 -4 -1 -10t0.5 -13t0.5 -10q10 -58 65 -58h207q79 0 150 -14t133 -43t98.5 -81t36.5 -120q0 -72 -37.5 -126t-101 -84.5t-137 -45t-156.5 -14.5q-198 0 -318 72
q-10 6 -26 18q-3 3 -9.5 7.5t-11 8t-8.5 7.5q-20 16 -45 16q-30 0 -70.5 -38.5t-40.5 -65.5t21 -45q88 -79 230.5 -117.5t279.5 -38.5q73 0 146 10.5t147 32t138 58t113.5 83.5t78 113.5t28.5 144.5q0 125 -79 216.5t-208 140.5z" />
    <glyph glyph-name="four" unicode="4" horiz-adv-x="1558" 
d="M920 86q0 -23 18 -41t45 -18h80q28 0 45.5 18t17.5 41v276h226q28 0 46.5 19.5t18.5 42.5v20q0 23 -2 33q-2 22 -16.5 40t-46.5 18h-226v438q0 22 -17 40.5t-46 18.5h-80q-28 0 -45.5 -18.5t-17.5 -40.5v-438h-531l541 892q12 20 12 37q0 28 -21 48t-51 20h-82
q-34 0 -53 -29l-594 -991q-8 -8 -8 -25q0 -1 -1.5 -23.5t-0.5 -37.5q13 -64 66 -64h723v-276z" />
    <glyph glyph-name="five" unicode="5" horiz-adv-x="1560" 
d="M272 145q89 -75 212 -111t255 -36q94 0 183.5 18t170.5 57t141.5 94.5t96 135t35.5 174.5t-35.5 174.5t-96 134.5t-141.5 93.5t-170.5 56.5t-183.5 18q-122 0 -213 -26l23 432h665q27 0 45.5 17.5t18.5 41.5q0 3 1 11t1 12q0 23 -2 35q-4 21 -19 38t-45 17h-802
q-27 0 -45.5 -15.5t-20.5 -39.5l-39 -621q0 -27 19 -43l51 -49q30 -25 35 -29q12 -8 18 -10q12 -6 25 -6q16 0 28 6q113 51 256 51q112 0 202.5 -31.5t148 -100.5t57.5 -167q0 -146 -117.5 -224.5t-292.5 -78.5q-198 0 -317 94l-29 25q-4 5 -13 14.5t-13 14.5q-27 22 -54 22
q-28 0 -68 -40t-40 -66q0 -18 8 -31q21 -30 61 -62z" />
    <glyph glyph-name="six" unicode="6" horiz-adv-x="1632" 
d="M213 518q0 -161 83 -281t221 -179.5t312 -59.5q175 0 313.5 61.5t220 182t81.5 282.5q0 144 -84 257.5t-217 173t-287 59.5q-70 0 -141 -15l284 426q13 16 13 39q0 28 -21 48t-53 20h-82q-34 0 -49 -27l-512 -745q-82 -116 -82 -242zM1227 520q0 -162 -108 -254t-290 -92
t-291.5 91.5t-109.5 252.5q0 95 58.5 164t148.5 101t199 32q107 0 194.5 -32t143 -100t55.5 -163z" />
    <glyph glyph-name="seven" unicode="7" 
d="M303 94q0 -26 21 -46.5t53 -20.5h76q38 0 53 30l747 1321q4 8 4 21v8v66q0 24 -18.5 41.5t-44.5 17.5h-1034q-26 0 -45 -18t-19 -41q0 -3 -1 -10t-1 -13q0 -23 2 -33q2 -22 17 -39.5t47 -17.5h846l-695 -1233q-8 -13 -8 -33z" />
    <glyph glyph-name="eight" unicode="8" horiz-adv-x="1726" 
d="M1223 795q121 51 182 130.5t61 200.5q0 89 -36.5 163t-97 123t-140 83t-163 49t-169.5 15q-85 0 -167.5 -15t-161 -48.5t-138 -82.5t-95.5 -122.5t-36 -162.5q0 -213 193 -309q27 -14 45 -20q4 -2 8 -2q-139 -52 -216 -135.5t-77 -219.5q0 -93 41 -170t107 -126.5
t152.5 -84t174.5 -49t176 -14.5t175.5 15t173.5 49t151.5 84t106 126t40.5 168q0 72 -22 130t-63 100t-90.5 71t-114.5 54zM1249 1124q0 -66 -32.5 -115t-89 -76t-123 -39.5t-144.5 -12.5t-143.5 13t-121 40t-87 76.5t-31.5 115.5q0 89 56 149t139.5 84.5t187.5 24.5
q77 0 145 -15t123.5 -45t88 -81.5t32.5 -118.5zM1294 444q0 -72 -37 -126t-99.5 -84.5t-136 -45t-155.5 -14.5t-156 14.5t-138 44.5t-102 84t-38 125q0 48 17.5 88t49.5 68t73 48.5t90.5 32.5t100 17.5t103.5 5.5q81 0 153.5 -13.5t136 -42t101 -80.5t37.5 -122z" />
    <glyph glyph-name="nine" unicode="9" horiz-adv-x="1628" 
d="M618 66q0 -28 21.5 -48t52.5 -20h84q31 0 49 27l512 745q82 116 82 244q0 161 -83.5 280.5t-221.5 178.5t-311 59q-176 0 -315.5 -61.5t-221.5 -182.5t-82 -284q0 -143 85 -257t219.5 -173.5t287.5 -59.5q67 0 139 16l-284 -426q-13 -16 -13 -38zM1202 1012
q0 -95 -57 -164t-146.5 -102t-197.5 -33q-167 0 -282.5 78t-115.5 217q0 166 107.5 258t292.5 92q180 0 289.5 -92.5t109.5 -253.5z" />
    <glyph glyph-name="colon" unicode=":" horiz-adv-x="595" 
d="M129 989q0 -69 45.5 -115.5t124.5 -46.5q78 0 123 47t45 115q0 69 -45.5 115.5t-122.5 46.5t-123.5 -46.5t-46.5 -115.5zM129 145q0 -71 45 -118t125 -47t124 47.5t44 117.5q0 68 -46 113t-122 45q-77 0 -123.5 -44.5t-46.5 -113.5z" />
    <glyph glyph-name="semicolon" unicode=";" horiz-adv-x="632" 
d="M154 989q0 -69 45.5 -115.5t124.5 -46.5q78 0 121.5 46t43.5 116t-44 116t-121 46q-78 0 -124 -46.5t-46 -115.5zM174 -342q12 -10 31 -10q12 0 28 8q72 36 129 116t85 166.5t28 159.5q0 35 -6 65.5t-21.5 63.5t-49.5 52.5t-83 19.5q-71 0 -113 -42.5t-42 -104.5
q0 -57 33 -98.5t90 -51.5q-25 -108 -107 -184q-15 -15 -18 -17q-20 -15 -23 -18q-20 -15 -20 -39q0 -12 8 -25l14 -18q21 -25 23 -29z" />
    <glyph glyph-name="less" unicode="&#x3c;" horiz-adv-x="1263" 
d="M1112 131l23 -8q24 0 36 20q7 9 7 23v119q0 38 -37 53l-815 344l815 340q17 7 27 24.5t10 32.5v119q0 8 -2.5 16.5t-13 17.5t-27.5 9q-9 -2 -23 -8q-12 -3 -33 -12l-106 -45q-156 -69 -326 -142q-99 -42 -227.5 -97.5t-204.5 -88.5t-92 -39q-37 -18 -37 -57v-142
q0 -15 11 -31t26 -24q16 -6 92 -39t204.5 -88.5t227.5 -97.5q52 -23 165 -72t161 -70q21 -9 57.5 -24.5t50.5 -20.5q17 -9 31 -12z" />
    <glyph glyph-name="equal" unicode="=" horiz-adv-x="1234" 
d="M225 766h785q25 0 39 16.5t14 34.5v96q0 20 -14 36t-39 16h-785q-26 0 -39.5 -15.5t-13.5 -36.5v-96q0 -18 13.5 -34.5t39.5 -16.5zM225 438h785q25 0 39 14.5t14 34.5v99q0 19 -15 34t-38 15h-785q-25 0 -39 -14.5t-14 -34.5v-99q0 -21 13.5 -35t39.5 -14z" />
    <glyph glyph-name="greater" unicode="&#x3e;" horiz-adv-x="1263" 
d="M129 123h16l9 8h4q8 5 28 12l107 47q50 22 166 72.5t159 69.5l523 223q14 6 25.5 23.5t11.5 31.5v142q0 15 -10 32t-27 25q-16 6 -92 39t-205.5 88.5l-227.5 97.5q-65 29 -176.5 77.5t-148.5 64.5q-16 7 -39 17t-39.5 17t-28.5 11l-30 12l-25 8q-24 0 -33.5 -14.5
t-9.5 -28.5v-119q0 -39 37 -57l815 -340l-815 -344q-37 -15 -37 -53v-119q0 -15 6 -23q12 -20 37 -20z" />
    <glyph glyph-name="question" unicode="?" horiz-adv-x="1132" 
d="M440 406h125q24 0 36.5 15t14.5 30q8 46 11 61q8 31 20 53q12 25 32.5 52.5t35 43t45.5 48.5q53 52 80 81t63 75t52.5 84.5t29 93t12.5 116.5q0 189 -121.5 313.5t-330.5 124.5q-265 0 -430 -198q-13 -13 -13 -33q0 -24 49 -76.5t74 -52.5t39 18q69 72 133 108t150 36
q107 0 169 -68t62 -172q0 -93 -38 -157.5t-115 -139.5l-66 -61q-28 -25 -63 -68q-73 -87 -95 -176q-14 -54 -14 -102q0 -19 14 -34t39 -15zM369 117q0 -58 37.5 -99t103.5 -41t104.5 41t38.5 99t-39 96.5t-104 38.5t-103 -38.5t-38 -96.5z" />
    <glyph glyph-name="at" unicode="@" horiz-adv-x="2082" 
d="M129 707q0 -194 68.5 -359t192 -281.5t303 -182.5t394.5 -66q357 0 594 223q15 15 15 33q0 21 -52.5 76t-76.5 55q-18 0 -41 -17q-189 -170 -439 -170q-223 0 -394.5 86.5t-265 243t-93.5 359.5q0 204 92.5 362t264.5 246t396 88q146 0 271.5 -51t211.5 -138
t134.5 -204.5t48.5 -249.5q0 -108 -35 -182q-45 -95 -129 -95q-58 0 -91.5 32.5t-33.5 88.5v465q0 15 -12 28t-31 13h-63q-33 0 -49 -14q-3 -3 -15 -21q-1 -1 -3.5 -8t-4.5 -12v-6q-110 104 -280 104q-105 0 -188.5 -37.5t-134.5 -101t-78 -142.5t-27 -167t27 -168
t78.5 -144t135 -102.5t187.5 -38.5q212 0 321 151q92 -106 244 -106q63 0 137 29q67 27 116.5 76.5t76.5 110t40 122t13 125.5q0 176 -60 328.5t-169.5 265.5t-274 178t-363.5 65q-216 0 -396 -66t-303 -183t-191 -282t-68 -359zM1249 702q0 -109 -60.5 -179t-170.5 -70
q-113 0 -174.5 69.5t-61.5 179.5q0 109 61.5 179.5t174.5 70.5t172 -69.5t59 -180.5z" />
    <glyph glyph-name="A" unicode="A" horiz-adv-x="1495" 
d="M16 41q0 -21 16.5 -31t33.5 -10h112q40 0 53 33l189 459h657l189 -459q4 -13 20 -23t31 -10h117q17 0 32 10t15 31q0 6 -4 14q0 1 -4 13l-19 45q-9 21 -31.5 76t-33.5 83q-31 76 -105.5 256t-95.5 232q-267 647 -324 778q-17 39 -57 39h-117q-43 0 -55 -39
q-98 -226 -326 -778q-126 -303 -200 -486q-49 -111 -66 -159q-14 -35 -18 -47l-7 -13q-2 -8 -2 -14zM752 1288l245 -604h-497z" />
    <glyph glyph-name="B" unicode="B" horiz-adv-x="1380" 
d="M248 0h510q236 0 381 129t145 344q0 134 -65.5 239.5t-190.5 164.5q77 53 119.5 129.5t42.5 167.5q0 84 -29 152.5t-78.5 115t-117.5 78t-143.5 45.5t-159.5 14h-412q-25 0 -40 -13.5t-15 -35.5v-1481q0 -19 14 -34t39 -15zM410 1384h258q89 0 154.5 -20t107 -69
t41.5 -124q0 -117 -73.5 -174t-209.5 -57h-278v444zM410 770q60 0 177 1t175 1q143 0 223 -82.5t80 -216.5q0 -130 -88.5 -203t-235.5 -73q-55 0 -165 -1t-166 -1v575z" />
    <glyph glyph-name="C" unicode="C" horiz-adv-x="1585" 
d="M98 788q0 -167 55 -314t157 -258t258 -175t347 -64q164 0 315.5 53t262.5 156q16 20 16 37q0 5 -8 21q-2 6 -10 14l-29 29q-10 10 -28 25t-21 18q-10 10 -22 10q-4 2 -15 2q-10 0 -14 -2q-11 0 -23 -8q-6 -4 -19 -14.5t-20 -14.5q-13 -13 -34 -27q-152 -92 -351 -92
q-141 0 -256 46.5t-190 128t-115.5 191t-40.5 236.5q0 171 69.5 307.5t208 219t324.5 82.5q248 0 426 -148l13 -8q12 -6 24 -6q22 0 75.5 49.5t53.5 69.5q0 21 -16 32q-235 213 -576 213q-184 0 -346 -67q-159 -66 -267 -184t-156 -258t-48 -300z" />
    <glyph glyph-name="D" unicode="D" horiz-adv-x="1562" 
d="M248 0h397q192 0 348 59t259 164.5t158.5 249.5t55.5 315t-56 315.5t-159 250.5t-259 165.5t-347 59.5h-397q-26 0 -39.5 -15t-13.5 -34v-1481q0 -19 14 -34t39 -15zM410 1384h235q286 0 444 -164t158 -432t-157 -429.5t-445 -161.5h-235v1187z" />
    <glyph glyph-name="E" unicode="E" horiz-adv-x="1210" 
d="M248 0h825q22 0 35.5 14.5t13.5 32.5v100q0 19 -14 34.5t-37 15.5h-661v510h589q25 0 39.5 14.5t14.5 34.5v96q0 20 -14.5 34.5t-39.5 14.5h-589v483h641q26 0 38.5 14.5t12.5 35.5v96q0 21 -12.5 35t-38.5 14h-803q-26 0 -39.5 -15t-13.5 -34v-1481q0 -19 14 -34t39 -15
z" />
    <glyph glyph-name="F" unicode="F" horiz-adv-x="1165" 
d="M248 0h110q23 0 37.5 15t14.5 34v658h589q25 0 39.5 14.5t14.5 34.5v96q0 20 -14.5 34.5t-39.5 14.5h-589v483h639q25 0 39 13.5t14 36.5v96q0 21 -12.5 35t-38.5 14h-801q-25 0 -40 -13.5t-15 -35.5v-1481q0 -19 14 -34t39 -15z" />
    <glyph glyph-name="G" unicode="G" horiz-adv-x="1736" 
d="M98 788q0 -131 31.5 -250.5t97 -221.5t158 -176.5t222 -117t282.5 -42.5q156 0 283 43.5t213 119t144.5 179.5t84.5 221.5t26 249.5q0 17 -13 33t-38 16h-678q-23 0 -37 -15t-14 -34v-97q0 -20 13 -34.5t38 -14.5h512q-35 -219 -166 -341t-368 -122q-137 0 -248 48
t-182 131t-108.5 192t-37.5 233q0 172 70.5 308.5t210 217.5t328.5 81q242 0 419 -146q9 -9 11 -10q12 -6 26 -6q19 0 74 52t55 69q0 16 -16 32q-233 211 -569 211q-193 0 -350 -62.5t-260 -172t-158.5 -257t-55.5 -317.5z" />
    <glyph glyph-name="H" unicode="H" horiz-adv-x="1560" 
d="M248 0h112q23 0 36.5 16.5t13.5 32.5v658h737v-658q0 -21 13.5 -35t39.5 -14h113q23 0 38 15t15 34v1481q0 19 -14 34t-37 15h-115q-26 0 -39.5 -14t-13.5 -35v-629h-737v629q0 21 -12.5 35t-37.5 14h-112q-26 0 -39.5 -15t-13.5 -34v-1481q0 -19 14 -34t39 -15z" />
    <glyph glyph-name="I" unicode="I" horiz-adv-x="604" 
d="M248 0h112q22 0 36 15t14 32v1483q0 19 -13.5 34t-38.5 15h-112q-26 0 -38.5 -16t-12.5 -33v-1483q0 -20 15.5 -33.5t37.5 -13.5z" />
    <glyph glyph-name="J" unicode="J" horiz-adv-x="940" 
d="M137 -20h31q123 0 222.5 35.5t165 95.5t110 143.5t63.5 175t19 193.5v907q0 19 -14.5 34t-39.5 15h-114q-26 0 -40 -15t-14 -34v-907q0 -73 -11 -135.5t-37 -119.5t-66 -97t-102.5 -63.5t-141.5 -23.5q-7 0 -21 1t-20 1q-48 0 -61 -41l-17 -45q-9 -23 -10 -26
q-4 -16 -4 -27q0 -52 61 -65q14 -2 41 -2z" />
    <glyph glyph-name="K" unicode="K" horiz-adv-x="1308" 
d="M248 0h112q22 0 36 15t14 32v645l628 -669q20 -23 52 -23h159q17 0 25 4q26 10 26 35q0 14 -8 22l-10 11l-688 719l618 718q7 7 9 11q8 8 8 22q0 23 -25 33q-16 4 -22 4h-150q-30 0 -49 -23l-573 -665v639q0 19 -13.5 34t-38.5 15h-112q-26 0 -38.5 -16t-12.5 -33v-1483
q0 -20 15.5 -33.5t37.5 -13.5z" />
    <glyph glyph-name="L" unicode="L" horiz-adv-x="1050" 
d="M248 0h690q22 0 35.5 14.5t13.5 32.5v100q0 19 -14 34.5t-37 15.5h-526v1333q0 19 -13.5 34t-38.5 15h-112q-26 0 -38.5 -16t-12.5 -33v-1483q0 -20 15.5 -33.5t37.5 -13.5z" />
    <glyph glyph-name="M" unicode="M" horiz-adv-x="1959" 
d="M195 61q0 -25 15.5 -43t47.5 -18h100q23 0 37.5 15t14.5 34v1043l452 -1057q18 -35 60 -35h116q40 0 58 35l452 1061v-1047q0 -19 15 -34t39 -15h112q23 0 38 15t15 34v1481q0 19 -14 34t-39 15h-143q-41 0 -53 -35l-539 -1245l-535 1243q-10 24 -41 33q-12 4 -34 4h-111
q-30 0 -46.5 -17.5t-16.5 -41.5v-1459z" />
    <glyph glyph-name="N" unicode="N" horiz-adv-x="1650" 
d="M195 49q0 -19 14 -34t39 -15h110q23 0 37.5 15t14.5 34v1170l802 -1194q6 -9 22.5 -17t27.5 -8h141q23 0 38 15t15 34v1481q0 16 -13 32.5t-38 16.5h-113q-25 0 -39 -15t-14 -34v-1172l-799 1190q-2 4 -6 8q-4 8 -10 11q-12 12 -33 12h-143q-26 0 -39.5 -15t-13.5 -34
v-1481z" />
    <glyph glyph-name="O" unicode="O" horiz-adv-x="1839" 
d="M98 788q0 -135 35 -257t104 -222.5t167 -174t230.5 -114t287.5 -40.5q193 0 350 62.5t259.5 172.5t158 256.5t55.5 316.5t-55.5 317t-158.5 256.5t-260 172.5t-349 63q-193 0 -350 -63t-260 -172.5t-158.5 -256.5t-55.5 -317zM1526 788q0 -128 -40.5 -238t-116 -191.5
t-190.5 -128t-257 -46.5q-188 0 -328 80.5t-210.5 216.5t-70.5 307q0 172 70.5 308.5t210 217.5t328.5 81q142 0 257 -47t190.5 -129t116 -192.5t40.5 -238.5z" />
    <glyph glyph-name="P" unicode="P" horiz-adv-x="1280" 
d="M248 0h112q25 0 38.5 15t13.5 34v606h319q242 0 384 121t142 342q0 218 -143 339.5t-383 121.5h-481q-25 0 -40 -13.5t-15 -35.5v-1481q0 -19 14 -34t39 -15zM412 1384h323q147 0 226 -68.5t79 -199.5q0 -130 -79 -197t-226 -67h-323v532z" />
    <glyph glyph-name="Q" unicode="Q" horiz-adv-x="1820" 
d="M1180 12q227 -315 489 -315q105 0 215 45q2 1 23 8.5t32 13.5q50 28 50 62q0 7 -13 33q-12 20 -20 30l-39 43q-16 21 -49 21q-16 0 -41 -10l-12 -6q-5 -5 -9 -5q-68 -22 -129 -22q-153 0 -297 186q95 56 166.5 134.5t114 169.5t63.5 188t21 200q0 170 -55.5 317
t-158.5 256.5t-260 172.5t-349 63q-193 0 -350 -62.5t-260 -172t-158.5 -257t-55.5 -317.5q0 -135 35 -257t104 -222.5t167 -174t230.5 -114t287.5 -40.5q141 0 258 32zM1059 197q-73 -13 -137 -13q-188 0 -328 80.5t-210.5 216.5t-70.5 307q0 172 70.5 308.5t210 217.5
t328.5 81q142 0 257 -47t190.5 -129t116 -192.5t40.5 -238.5q0 -160 -66 -296.5t-198 -219.5l-254 404q-3 6 -13 16q-13 10 -32 10q-9 0 -17 -2l-14 -6q-2 0 -37 -12q-11 -4 -24.5 -10l-22.5 -10t-12 -5q-33 -13 -33 -47q0 -3 6 -18l8 -14q5 -10 29 -50q14 -20 44 -68.5
t44 -70.5q25 -39 69 -105.5t56 -86.5z" />
    <glyph glyph-name="R" unicode="R" horiz-adv-x="1298" 
d="M248 0h112q25 0 38.5 15t13.5 34v606h174l389 -628q17 -27 49 -27h147q17 0 27 6q23 9 23 33q0 5 -9 20q-1 3 -5.5 10.5t-6.5 12.5l-45 70q-42 65 -137 210q-41 63 -111 170t-88 136q188 32 290.5 150t102.5 300q0 218 -142.5 339.5t-383.5 121.5h-438q-26 0 -39.5 -15
t-13.5 -34v-1481q0 -19 14 -34t39 -15zM412 1384h278q147 0 226 -68.5t79 -199.5t-78.5 -197.5t-226.5 -66.5h-278v532z" />
    <glyph glyph-name="S" unicode="S" horiz-adv-x="1308" 
d="M236 348q-12 6 -27 6q-27 0 -67 -64t-40 -81q0 -20 17 -37q91 -95 243.5 -145t301.5 -50q163 0 283 48.5t190.5 152.5t70.5 256q0 61 -15 113t-40 91.5t-64 73.5t-78.5 58t-93.5 46t-100.5 36t-105.5 29q-67 18 -102.5 29t-95 33.5t-98 49t-57.5 58.5q-26 43 -26 108
q0 105 96 169.5t225 64.5q166 0 308 -93q3 -4 11.5 -9.5t10.5 -6.5q8 -6 18 -16q3 -3 7 -7.5t7.5 -6t8.5 -1.5q8 -2 18 -2q33 0 48 27q2 6 12.5 26t15.5 31q15 30 17 35l6 16q2 4 2 17q0 23 -19 39q-85 79 -206 117t-252 38q-84 0 -164.5 -18.5t-150.5 -55.5t-122.5 -88.5
t-83 -123t-30.5 -154.5q0 -85 27 -156.5t72 -122.5t110.5 -92t136 -67.5t155.5 -46.5q83 -21 125 -33q65 -17 125 -45q125 -66 125 -164q0 -119 -88.5 -182.5t-228.5 -63.5q-117 0 -229 41t-193 115l-10 8h-6z" />
    <glyph glyph-name="T" unicode="T" horiz-adv-x="1249" 
d="M516 47q0 -18 14.5 -32.5t36.5 -14.5h113q22 0 37.5 13.5t15.5 33.5v1337h445q24 0 37.5 15t13.5 35v96q0 19 -14 34t-37 15h-1104q-25 0 -38 -16.5t-13 -32.5v-98q0 -19 13 -33.5t38 -14.5h442v-1337z" />
    <glyph glyph-name="U" unicode="U" horiz-adv-x="1550" 
d="M195 625q0 -104 19 -196t63 -175t110 -143t166 -95.5t225 -35.5q123 0 222.5 35.5t164.5 95.5t109 143.5t63 175t19 193.5v907q0 19 -14 34t-39 15h-113q-25 0 -39 -15t-14 -34v-907q0 -92 -18.5 -167.5t-58.5 -138.5t-112 -98t-170 -35q-99 0 -172 35t-114.5 97
t-61.5 138.5t-20 168.5v907q0 17 -14 32t-36 15h-116q-26 0 -37.5 -16t-11.5 -31v-905z" />
    <glyph glyph-name="V" unicode="V" horiz-adv-x="1484" 
d="M627 37q15 -37 57 -37h115q18 0 35.5 11t25.5 26q9 23 57.5 139t126 302.5t140.5 338.5q291 708 291 717q0 24 -18 33.5t-34 9.5h-131q-39 0 -53 -35l-496 -1249l-499 1249q-12 35 -54 35h-127q-11 0 -21.5 -2.5t-21 -13t-10.5 -27.5q0 -5 15.5 -45t47 -116.5t63.5 -155
t81 -197.5t84 -205q271 -652 326 -778z" />
    <glyph glyph-name="W" unicode="W" horiz-adv-x="1976" 
d="M465 39q12 -39 55 -39h94q20 0 36 10.5t20 28.5l317 1196l313 -1196q5 -17 19.5 -28t34.5 -11h102q18 0 33 12t20 27l240 780q217 701 217 717q0 21 -14.5 32t-34.5 11h-123q-32 0 -47 -37l-336 -1157l-307 1153q-4 17 -21 29t-36 12h-125q-39 0 -54 -41l-305 -1145
l-332 1145q-5 17 -19 29t-36 12h-119q-19 0 -33 -10.5t-14 -30.5q0 -8 4 -16z" />
    <glyph glyph-name="X" unicode="X" horiz-adv-x="1333" 
d="M57 0h146q32 0 51 25l410 579l391 -579q15 -25 53 -25h149q15 0 25 4q23 14 23 33q0 11 -9 24l-16 25q-5 8 -55 80q-24 36 -168 244l-266 378l524 723q10 13 10 27q0 22 -25 35q-20 4 -24 4h-143q-38 0 -56 -27l-407 -581l-391 583q-18 27 -52 27h-151q-5 0 -25 -4
q-24 -10 -24 -33q0 -9 10 -24q1 -4 14 -25l55 -82q25 -38 84.5 -124.5t83.5 -121.5q46 -66 106.5 -152t101.5 -145t57 -82q-25 -36 -273 -376q-33 -44 -174 -242l-57 -82q-4 -6 -11 -16l-6 -9q-8 -12 -8 -22q0 -20 21 -33q12 -6 26 -6z" />
    <glyph glyph-name="Y" unicode="Y" horiz-adv-x="1310" 
d="M547 49q0 -19 14 -34t39 -15h113q23 0 38 15t15 34v307q0 24 -0.5 65.5t-0.5 72t1 53.5v63q0 4 -1 9t-1 6q22 67 76 147q64 89 98 146l354 591q6 12 6 27q0 23 -16.5 32t-32.5 9h-131q-37 0 -59 -33l-404 -708l-403 708q-21 33 -57 33h-132q-13 0 -28 -6q-25 -13 -25 -35
q0 -11 8 -27l355 -591q34 -57 98 -146q51 -76 74 -145v-17v-63q0 -23 1 -88.5t1 -102.5v-307z" />
    <glyph glyph-name="Z" unicode="Z" horiz-adv-x="1300" 
d="M113 0h1075q24 0 37.5 15t13.5 34v98q0 19 -13.5 34.5t-37.5 15.5h-795l811 1302q8 16 8 33q0 24 -18 35.5t-37 11.5h-1026q-24 0 -37.5 -15t-13.5 -34v-98q0 -21 14.5 -34.5t36.5 -13.5h741l-809 -1308q-10 -20 -10 -31q0 -27 27 -39q12 -6 33 -6z" />
    <glyph glyph-name="bracketleft" unicode="[" horiz-adv-x="802" 
d="M225 -354h400q25 0 38 14.5t13 34.5v88q0 19 -14 34t-37 15h-246v1563h246q23 0 37 15t14 34v86q0 19 -14 34t-37 15h-400q-26 0 -39.5 -15t-13.5 -34v-1835q0 -21 13.5 -35t39.5 -14z" />
    <glyph glyph-name="backslash" unicode="\" horiz-adv-x="874" 
d="M739 0h103q18 0 33.5 11t15.5 32q0 6 -4 14l-4 15q-7 11 -21 47q-7 16 -71 166q-4 10 -224 508l-358 813q-5 14 -19 24t-32 10h-105q-18 0 -34.5 -11t-16.5 -32q0 -8 4 -16l4 -12q7 -14 21 -49q3 -6 71 -166q4 -10 224 -508l358 -815q7 -14 24 -22.5t31 -8.5z" />
    <glyph glyph-name="bracketright" unicode="]" horiz-adv-x="802" 
d="M182 -354h398q26 0 38.5 14t12.5 35v1835q0 19 -13.5 34t-37.5 15h-398q-26 0 -39.5 -15t-13.5 -34v-86q0 -20 14 -34.5t39 -14.5h244v-1561h-242q-24 0 -39.5 -13.5t-15.5 -35.5v-88q0 -18 13.5 -34.5t39.5 -16.5z" />
    <glyph glyph-name="asciicircum" unicode="^" horiz-adv-x="1353" 
d="M182 569h117q40 0 51 31l328 739l326 -739q6 -14 21 -22.5t30 -8.5h119q16 0 33.5 10t17.5 33l-6 21q-7 10 -13 29q-23 48 -45 98l-135 299q-44 96 -95 208.5t-85 187t-39 85.5q-16 37 -59 37h-140q-40 0 -59 -37q-6 -14 -39.5 -87t-85.5 -186t-94 -208
q-30 -64 -80.5 -173.5t-56.5 -123.5q-7 -18 -15.5 -36.5t-16.5 -36.5t-11 -25q-10 -21 -13 -31q-6 -12 -6 -21q0 -22 16 -32.5t35 -10.5z" />
    <glyph glyph-name="underscore" unicode="_" horiz-adv-x="1357" 
d="M182 -295h996q25 0 39 15t14 34v82q0 20 -14 34.5t-39 14.5h-996q-26 0 -39.5 -14t-13.5 -35v-82q0 -19 13.5 -34t39.5 -15z" />
    <glyph glyph-name="a" unicode="a" 
d="M86 514q0 -108 35 -204.5t99.5 -171t166.5 -118t227 -43.5q230 0 369 148v-64q0 -23 15.5 -42t45.5 -19q21 0 31 -2q29 0 43 2q70 5 70 61v908q0 23 -19 41t-45 18h-28q-22 3 -41 0q-27 -2 -48.5 -15.5t-21.5 -43.5v-64q-141 144 -371 144q-125 0 -227 -43t-167 -117
t-99.5 -170t-34.5 -205zM983 514q0 -147 -98 -243.5t-256 -96.5q-159 0 -250.5 95.5t-91.5 244.5q0 150 92 246t250 96q160 0 257 -96t97 -246z" />
    <glyph glyph-name="b" unicode="b" 
d="M369 125q139 -148 366 -148q126 0 228 43.5t167 118t99.5 171t34.5 204.5q0 109 -35 205t-100 170t-167 117t-227 43q-230 0 -368 -144v615q0 24 -19.5 41.5t-46.5 17.5h-29h-41q-26 -2 -47.5 -15.5t-21.5 -43.5v-1459q0 -23 18 -42t47 -19q19 0 31 -2q29 0 41 2
q27 2 48.5 16.5t21.5 44.5v64zM1063 514q0 -150 -91.5 -245t-250.5 -95q-156 0 -254 97.5t-98 242.5q0 149 96.5 245.5t255.5 96.5t250.5 -96t91.5 -246z" />
    <glyph glyph-name="c" unicode="c" horiz-adv-x="1173" 
d="M86 514q0 -148 62.5 -269t187.5 -194.5t293 -73.5q144 0 261.5 56.5t192.5 167.5q11 11 11 28q0 12 -9 21q-2 2 -5.5 7t-4.5 7l-28 27q-45 36 -48 39q-14 12 -34 12q-21 0 -33 -8q-7 -6 -14 -19q-94 -141 -289 -141q-159 0 -250.5 95.5t-91.5 244.5q0 150 92 246t250 96
q187 0 289 -145q6 -9 12 -15q15 -12 35 -12q9 0 22 8q8 4 12 8l29 23q44 40 45 41q6 4 12 10q9 12 9 25q0 8 -11 30q-71 106 -191 164t-257 58q-167 0 -293.5 -72.5t-191 -193.5t-64.5 -271z" />
    <glyph glyph-name="d" unicode="d" 
d="M88 512q0 -108 35 -204.5t100.5 -171t167.5 -118t227 -43.5q224 0 367 146v-62q0 -22 16.5 -41.5t45.5 -19.5h79q30 0 46 19t16 42v1459q0 22 -18 40.5t-44 18.5h-28q-22 3 -41 0q-27 -2 -48.5 -15.5t-21.5 -43.5v-615q-138 144 -369 144q-126 0 -228 -43t-167 -116.5
t-100 -170t-35 -205.5zM985 512q0 -147 -97.5 -243.5t-256.5 -96.5t-250.5 95.5t-91.5 244.5q0 150 92 247t250 97q159 0 256.5 -97.5t97.5 -246.5z" />
    <glyph glyph-name="e" unicode="e" horiz-adv-x="1257" 
d="M86 514q0 -153 68 -274t198 -192t301 -71q269 0 424 166q15 15 15 33q0 21 -52.5 69t-74.5 48q-17 0 -29 -8q-2 -1 -12 -11q-56 -53 -120.5 -76.5t-150.5 -23.5q-137 0 -232 66.5t-124 183.5h825q24 0 38 14.5t14 34.5q0 119 -31.5 220.5t-95 182.5t-171 127t-247.5 46
q-127 0 -230.5 -42t-171.5 -115t-104.5 -170t-36.5 -208zM961 606h-664q27 116 114.5 183t217.5 67t217.5 -67t114.5 -183z" />
    <glyph glyph-name="f" unicode="f" horiz-adv-x="722" 
d="M256 0h100q23 0 37.5 15t14.5 34v799h223q24 0 37.5 14.5t13.5 34.5v82q0 19 -13.5 34t-37.5 15h-223v240q0 80 24 135q25 67 88 67q61 0 125 -38q15 -15 33 -15q25 0 45 27q2 4 6.5 10.5t13 18t13.5 18.5q15 25 18 29l6 14q4 8 4 16q0 19 -8 27l-14 14q-117 74 -246 74
q-70 0 -125.5 -24t-89.5 -62.5t-57 -90t-32 -102t-9 -102.5v-256h-137q-25 0 -39.5 -15t-14.5 -34v-82q0 -19 14.5 -34t39.5 -15h137l2 -799q0 -19 14 -34t37 -15z" />
    <glyph glyph-name="g" unicode="g" 
d="M229 -416q81 -48 190.5 -75t211.5 -27q257 0 407 150t150 384v953q0 23 -19 41t-45 18h-28q-22 3 -41 0q-27 -2 -48.5 -15.5t-21.5 -43.5v-64q-141 144 -371 144q-125 0 -227 -43t-167 -117t-99.5 -170t-34.5 -205q0 -108 35 -204.5t99.5 -171t166.5 -118t227 -43.5
q227 0 369 148q0 -21 1 -61t1 -60q0 -155 -93 -243.5t-261 -88.5q-165 0 -299 84q-8 4 -10 4q-7 7 -21 7h-8l-8 -5q-20 -10 -51 -62t-31 -71q0 -29 26 -45zM983 514q0 -147 -98 -243.5t-256 -96.5q-159 0 -250.5 95.5t-91.5 244.5q0 150 92 246t250 96q160 0 257 -96
t97 -246z" />
    <glyph glyph-name="h" unicode="h" horiz-adv-x="1275" 
d="M215 0h100q25 0 38.5 15t13.5 34v449q1 85 37.5 166t108 136.5t161.5 55.5q129 0 184 -68.5t55 -199.5v-541q0 -20 15 -33.5t37 -13.5h100q22 0 37.5 13.5t15.5 33.5v541q0 97 -23 177.5t-72 145.5t-134 101.5t-199 36.5q-205 0 -328 -142l-2 613q-2 22 -19.5 40.5
t-43.5 18.5h-31q-19 3 -41 0q-25 -2 -46 -15.5t-21 -43.5l4 -1473q0 -20 15.5 -33.5t37.5 -13.5z" />
    <glyph glyph-name="i" unicode="i" horiz-adv-x="544" 
d="M131 1376q0 -59 39 -99t106 -40t103.5 40.5t36.5 98.5q0 57 -37.5 96t-102.5 39t-105 -38t-40 -97zM223 0h101q22 0 36.5 13.5t14.5 33.5v934q0 20 -14.5 33.5t-36.5 13.5h-103q-23 0 -36 -14t-13 -33v-934q0 -20 14.5 -33.5t36.5 -13.5z" />
    <glyph glyph-name="j" unicode="j" horiz-adv-x="595" 
d="M176 1374q0 -58 39 -97.5t104 -39.5q66 0 104 39.5t38 97.5t-38 97.5t-104 39.5q-65 0 -104 -39.5t-39 -97.5zM-102 -469q101 -53 211 -53q70 0 125.5 24t90 62t58 89t32.5 101.5t9 102.5q0 187 -1 560.5t-1 561.5q0 19 -13.5 34t-39.5 15h-97q-24 0 -39.5 -13.5
t-15.5 -35.5v-1104q0 -85 -22 -135q-28 -68 -89 -68q-28 0 -90 23l-34 16q-9 6 -15 6q-14 7 -20 7q-31 0 -68 -57.5t-37 -76.5q0 -20 19 -36q9 -10 20 -13q2 -1 8.5 -4.5t8.5 -5.5z" />
    <glyph glyph-name="k" unicode="k" horiz-adv-x="1071" 
d="M215 0h100q22 0 38 13.5t16 33.5v408l442 -435q20 -20 53 -20h150q14 0 24 4q29 12 29 35q0 12 -10 27l-10 10l-492 479l420 397q7 7 10 13q10 10 10 24q0 28 -28 35q-10 4 -25 4h-151q-30 0 -50 -20l-374 -371v958q0 20 -15 32.5t-37 12.5h-100q-19 0 -36 -12.5
t-17 -32.5v-1548q0 -20 15.5 -33.5t37.5 -13.5z" />
    <glyph glyph-name="l" unicode="l" horiz-adv-x="546" 
d="M225 0h99q22 0 37.5 13.5t15.5 33.5v1483q0 23 -16.5 35t-36.5 12h-101q-22 0 -36.5 -13t-14.5 -34v-1483q0 -20 15.5 -33.5t37.5 -13.5z" />
    <glyph glyph-name="m" unicode="m" horiz-adv-x="1908" 
d="M166 47q0 -16 12 -31.5t37 -15.5h94q25 0 39 15t14 34v449q0 83 31.5 163.5t98.5 137.5t153 57q163 0 203 -147q12 -50 12 -74v-586q0 -19 14 -34t39 -15h97q23 0 36 16t13 31v506q0 9 4 33q1 6 4 18.5t4 18.5q29 102 94.5 167.5t163.5 65.5q116 0 163.5 -71t47.5 -197
v-539q0 -19 14 -34t39 -15h101q25 0 39 15t14 34q-2 180 -2 539q0 72 -11.5 135.5t-40 124.5t-72 104.5t-113.5 70t-160 26.5q-219 0 -351 -179q-102 179 -340 179q-187 0 -301 -140v60q0 22 -17.5 40.5t-45.5 18.5h-27h-37q-63 -9 -63 -59v-922z" />
    <glyph glyph-name="n" unicode="n" horiz-adv-x="1275" 
d="M215 0h100q25 0 39.5 15t14.5 34v449q0 85 36 166t107.5 136.5t161.5 55.5q129 0 184 -68.5t55 -199.5v-541q0 -20 15 -33.5t37 -13.5h100q22 0 37.5 13.5t15.5 33.5v541q0 97 -23 177.5t-72 145.5t-134 101.5t-199 36.5q-205 0 -325 -142v62q0 24 -19.5 41.5t-46.5 17.5
h-29h-39q-27 -2 -48 -15.5t-21 -43.5v-922q0 -20 15.5 -33.5t37.5 -13.5z" />
    <glyph glyph-name="o" unicode="o" horiz-adv-x="1257" 
d="M86 514q0 -148 62.5 -269t187.5 -194.5t293 -73.5t293.5 73.5t188.5 194.5t63 269q0 111 -37 208t-105 170t-172 115t-231 42t-230.5 -42t-171.5 -115t-104.5 -170t-36.5 -208zM971 514q0 -150 -91.5 -245t-250.5 -95t-250.5 95.5t-91.5 244.5q0 150 92 246t250 96
q159 0 250.5 -96t91.5 -246z" />
    <glyph glyph-name="p" unicode="p" 
d="M166 -487q0 -25 17 -43.5t48 -18.5q17 0 29 -2q27 0 41 2q26 2 47 17t21 45v612q139 -145 368 -145q125 0 227 43t167 117t100 170t35 204q0 109 -34.5 205.5t-99.5 170.5t-167 117.5t-228 43.5q-229 0 -364 -144v64q0 22 -20 40.5t-46 18.5q-5 0 -18.5 0.5t-26.5 0.5
t-24 -1q-27 -2 -49.5 -15.5t-22.5 -43.5v-1458zM1065 514q0 -150 -91.5 -245t-250.5 -95t-254.5 95.5t-95.5 244.5t95.5 245.5t254.5 96.5t250.5 -96t91.5 -246z" />
    <glyph glyph-name="q" unicode="q" 
d="M987 -487q0 -22 16.5 -42t45.5 -20h77q30 0 46 19.5t16 42.5v1458q0 22 -18 40.5t-44 18.5q-4 0 -18.5 0.5t-28 0.5t-24.5 -1q-26 -2 -48 -15.5t-22 -43.5v-66q-140 146 -367 146q-125 0 -227 -43.5t-167.5 -117.5t-100.5 -170.5t-35 -205.5t35 -205t100.5 -169.5
t167.5 -116.5t227 -43q230 0 369 145v-612zM985 514q0 -148 -97.5 -244t-256.5 -96t-250.5 95.5t-91.5 244.5q0 150 92 246t250 96q159 0 256.5 -96.5t97.5 -245.5z" />
    <glyph glyph-name="r" unicode="r" horiz-adv-x="798" 
d="M215 0h100q25 0 39.5 15t14.5 34v449q0 85 36 166t107.5 136.5t161.5 55.5h14q17 0 31 14q7 6 10 17q7 11 14 37q13 37 13 61q0 20 -18.5 42t-45.5 22q-210 0 -327 -142v62q0 24 -19.5 41.5t-46.5 17.5h-72q-27 0 -46 -17.5t-19 -41.5v-922q0 -20 15.5 -33.5t37.5 -13.5z
" />
    <glyph glyph-name="s" unicode="s" horiz-adv-x="942" 
d="M78 147q-2 -6 -2 -16q0 -23 14 -37q4 -4 8.5 -7.5t10 -7t8.5 -5.5q3 -1 12 -6.5t12 -6.5q141 -81 320 -81h6q75 0 145 18.5t127.5 54.5t92 96t34.5 136q0 61 -20 110.5t-51 82t-80 60t-93.5 43.5t-105.5 33q-11 3 -37 10.5t-41 10.5q-45 13 -71 29q-68 33 -68 92
q0 49 51 74.5t125 25.5q58 0 118 -16.5t103 -46.5q22 -11 27 -11q28 0 45 25q5 12 27 47q20 36 20 64q0 22 -18 36q-60 47 -145.5 72t-168.5 25h-6q-99 0 -184 -32t-142 -102t-57 -167q0 -59 19 -107.5t46.5 -79.5t71.5 -57t80.5 -40.5t87.5 -29.5l107 -30q65 -21 86 -31
q38 -19 56 -40.5t18 -51.5q0 -55 -58 -83t-139 -28q-66 0 -141 21.5t-125 56.5q-16 12 -31 12q-5 0 -11 -2t-11 -4.5l-7 -3.5q-10 -10 -14 -16q-10 -13 -25 -35q-11 -19 -18 -37l-5 -10z" />
    <glyph glyph-name="t" unicode="t" horiz-adv-x="755" 
d="M213 365q0 -53 5 -99.5t23 -102t47.5 -94.5t83.5 -65.5t126 -26.5q114 0 219 84q2 3 12 13q8 11 8 24q0 7 -6 19l-6 14q-13 17 -20 29q-6 8 -14.5 19t-14 18t-8.5 10q-15 20 -43 20q-15 0 -23 -6l-12 -6q-12 -9 -27 -18q-38 -23 -59 -23q-53 0 -74 68q-6 24 -10 71
q-2 23 -2 64v471h225q21 0 36 13.5t15 33.5v84q0 19 -14 34t-37 15h-225v313q0 20 -14.5 32.5t-34.5 12.5h-105q-25 0 -37 -16t-12 -33v-309h-139q-25 0 -39 -15t-14 -34v-84q0 -20 15.5 -33.5t37.5 -13.5h137v-483z" />
    <glyph glyph-name="u" unicode="u" horiz-adv-x="1275" 
d="M162 440q0 -96 23 -176.5t71.5 -146.5t133.5 -103t200 -37q204 0 328 146v-62q0 -23 15.5 -42t45.5 -19q19 0 29 -2q29 0 41 2q27 2 48 16.5t21 44.5v920q0 20 -15.5 33.5t-37.5 13.5h-100q-26 0 -39 -14t-13 -35v-449q-1 -86 -38 -167t-109 -136t-162 -55
q-126 0 -180.5 68t-54.5 196v545q0 20 -16 33.5t-38 13.5h-102q-23 0 -37 -15t-14 -32v-541z" />
    <glyph glyph-name="v" unicode="v" horiz-adv-x="1062" 
d="M479 0h107q43 0 55 37q44 95 215 489q23 54 54.5 128t53 123.5t42 98.5t31 75.5t10.5 31.5q0 24 -16.5 34.5t-35.5 10.5h-116q-20 0 -37 -11.5t-23 -27.5l-289 -719l-290 721q-14 37 -52 37h-120q-19 0 -35.5 -10.5t-16.5 -34.5q0 -11 189 -457l213 -489q16 -37 61 -37z
" />
    <glyph glyph-name="w" unicode="w" horiz-adv-x="1466" 
d="M303 39q12 -39 55 -39h121q15 0 34.5 11.5t23.5 27.5l198 682l199 -682q12 -39 53 -39h121q41 0 53 39l283 932q4 12 4 16q0 20 -14 30.5t-31 10.5h-123q-22 0 -35.5 -13t-17.5 -28l-183 -684l-202 684q-5 16 -20.5 28.5t-37.5 12.5h-106q-20 0 -35 -12.5t-20 -28.5
l-203 -682l-182 682q-4 15 -18 28t-36 13h-121q-8 0 -17.5 -2.5t-19.5 -12t-10 -24.5q0 -19 136 -457z" />
    <glyph glyph-name="x" unicode="x" horiz-adv-x="1073" 
d="M102 0h134q15 0 34 9t29 22l231 311l236 -311q24 -31 63 -31h136q16 0 24 4q25 8 25 35q0 18 -13 31l-344 444l363 444q12 12 12 31q0 25 -24 33q-15 6 -27 6h-133q-38 0 -62 -31l-251 -325l-244 325q-24 31 -62 31h-135q-14 0 -26 -6q-27 -9 -27 -35q0 -6 6 -18
q3 -8 8 -13l348 -452q-12 -16 -178 -228q-13 -17 -55 -71t-61 -78l-37 -51q-10 -15 -11 -17q-8 -10 -8 -20q0 -21 23 -35q10 -4 26 -4z" />
    <glyph glyph-name="y" unicode="y" horiz-adv-x="1075" 
d="M283 -502h102q40 0 57 39q46 103 320 752q109 254 199 469l65 153q12 27 18 45q5 10 5 13q4 8 4 14q0 21 -17 33t-37 12h-114q-43 0 -60 -39l-293 -706l-284 706q-14 39 -58 39h-114q-18 0 -35.5 -10.5t-17.5 -34.5q0 -16 192 -463q39 -90 88 -202t82 -187.5t43 -99.5
q-45 -105 -104 -244q-95 -230 -95 -244q0 -23 18 -34t36 -11z" />
    <glyph glyph-name="z" unicode="z" horiz-adv-x="1056" 
d="M160 0h743q26 0 39.5 14t13.5 35v82q0 21 -13.5 35t-39.5 14h-481l514 768l6 13q6 9 6 20q0 27 -20 37t-39 10h-711q-24 0 -37.5 -15t-13.5 -34v-84q0 -20 15 -33.5t36 -13.5h451l-516 -772q-11 -16 -11 -33q0 -29 27 -37q10 -6 31 -6z" />
    <glyph glyph-name="braceleft" unicode="{" horiz-adv-x="868" 
d="M594 -358h94q25 0 39 15t14 34v92q0 19 -15 34t-38 15h-88q-32 0 -43 41q-12 37 -12 92v350q0 190 -139 295q139 105 139 295v350q0 56 12 91q11 40 43 40h88q23 0 38 15.5t15 34.5v92q0 19 -14 34t-39 15h-94q-61 0 -108 -21.5t-74 -54t-44 -77t-22.5 -85t-5.5 -84.5
v-360q0 -59 -25.5 -110.5t-72.5 -73.5q-2 -1 -7 -2t-8 -2q-2 -1 -18 -5q-37 -15 -37 -43v-94q0 -38 39 -47q63 -14 96 -68t33 -124v-361q0 -44 5.5 -84.5t22.5 -85.5t44 -77.5t74 -54t108 -21.5z" />
    <glyph glyph-name="braceright" unicode="}" horiz-adv-x="868" 
d="M182 -358h94q61 0 107.5 21.5t73.5 54t43.5 77.5t22 85.5t5.5 84.5v361q0 71 33 123t98 69q39 8 39 45v92q0 38 -36 47q-2 1 -10 2.5t-11 2.5q-2 1 -5 2l-4.5 1.5t-2.5 0.5q-49 22 -75 73t-26 111v360q0 44 -5.5 84t-22 85t-43.5 77.5t-73.5 54t-107.5 21.5h-94
q-26 0 -39.5 -15t-13.5 -34v-92q0 -20 14 -35t39 -15h88q28 0 41 -40t13 -91q0 -59 -1 -175t-1 -175q0 -188 139 -295q-139 -107 -139 -295q0 -233 2 -350q0 -50 -13 -90q-13 -41 -41 -41h-88q-25 0 -39 -15t-14 -34v-94q0 -21 13.5 -35t39.5 -14z" />
    <glyph glyph-name="asciitilde" unicode="~" horiz-adv-x="1314" 
d="M604 469q59 -55 122.5 -88t154.5 -33q65 0 123 26t100 69t71.5 90.5t47.5 97.5q4 12 4 18q0 27 -17 41l-43 43q-5 6 -14 14.5t-12 10.5q-9 6 -13 10q-12 8 -24 8q-25 0 -37 -16q-7 -14 -8 -17q-11 -24 -31 -63q-14 -33 -37 -62q-46 -59 -106 -59q-39 0 -86 31
q-21 15 -41 35q-14 12 -43 41q-61 55 -125 87.5t-156 32.5q-66 0 -123.5 -26.5t-98.5 -70.5t-70 -90t-48 -97q-4 -8 -4 -19q0 -6 6 -18l8 -14q16 -20 27 -31q8 -9 24 -25t19 -20q17 -17 39 -17q23 0 35 15q2 2 5.5 8t4.5 8q5 12 15.5 36t13.5 30q21 41 37 61q46 59 108 59
q39 0 84 -30q27 -19 43 -33q29 -29 45 -43z" />
    <glyph glyph-name="cent" unicode="&#xa2;" horiz-adv-x="1417" 
d="M1235 131q18 14 18 41q0 17 -12 37q-8 10 -27 29q-9 9 -25.5 23.5t-19.5 17.5q-16 16 -43 16q-23 0 -47 -16q-64 -53 -129 -77t-151 -24q-176 0 -284.5 105t-108.5 268q0 161 109 266t284 105q134 0 231 -66q20 -15 21 -16q10 -10 22 -19q21 -14 45 -14t43 16
q4 6 21.5 21.5t23.5 21.5q11 8 27 29q12 16 12 37q0 26 -18 41q-62 62 -152.5 98.5t-187.5 46.5v156q0 23 -19 42t-47 19h-108q-28 0 -47 -19t-19 -42v-162q-219 -44 -353 -199.5t-134 -361.5q0 -208 133.5 -363.5t353.5 -199.5v-166q0 -22 19 -42t47 -20h108q28 0 47 20
t19 42v158q221 21 348 151z" />
    <glyph glyph-name="sterling" unicode="&#xa3;" horiz-adv-x="1519" 
d="M578 217v434h561q27 0 45 17t18 41v96q0 23 -17.5 42t-45.5 19h-561v152q0 137 92.5 222t242.5 85q130 0 222 -63l16 -13q12 -12 20 -16q19 -19 43 -19q7 0 21 7l16 6q20 12 35 22q30 17 57 37q31 19 31 51q0 19 -16 39q-72 81 -196.5 124.5t-248.5 43.5
q-168 0 -301.5 -66t-209.5 -186.5t-76 -273.5v-152h-138q-30 0 -46.5 -19.5t-16.5 -41.5v-96q0 -22 17.5 -40t45.5 -18h138v-434h-138q-30 0 -46.5 -19.5t-16.5 -41.5v-95q0 -23 16 -42t47 -19h1137q29 0 47.5 19t18.5 42v95q0 22 -18.5 41.5t-47.5 19.5h-747z" />
    <glyph glyph-name="yen" unicode="&#xa5;" horiz-adv-x="1714" 
d="M1391 866h-220l408 537q16 19 16 45q0 30 -23 49t-54 19h-134q-11 0 -26.5 -6t-22.5 -17l-477 -655l-475 655q-20 23 -51 23h-133q-32 0 -54 -20.5t-22 -49.5q0 -24 16 -43l404 -537h-213q-30 0 -47 -19.5t-17 -41.5v-78q0 -23 17.5 -41t46.5 -18h362l43 -54v-98h-405
q-30 0 -47 -19t-17 -42v-76q0 -22 16.5 -42t47.5 -20h405v-256q0 -24 17.5 -42.5t46.5 -18.5h123q30 0 46.5 19.5t16.5 41.5v256h406q29 0 46 19t17 43v76q0 25 -17 43t-46 18h-406v98l41 54h365q27 0 45 17t18 42v78q0 23 -17.5 42t-45.5 19z" />
    <glyph glyph-name="copyright" unicode="&#xa9;" horiz-adv-x="2160" 
d="M201 760q0 -228 114 -408t314 -279.5t450 -99.5q187 0 349.5 58t279 160.5t183.5 249.5t67 319q0 228 -115 407t-315 276t-449 97t-449 -97.5t-314.5 -276.5t-114.5 -406zM1749 760q0 -268 -187.5 -437t-482.5 -169q-195 0 -347.5 76t-237 214t-84.5 316q0 131 50 243
t138 190t212.5 122.5t268.5 44.5q145 0 269.5 -44t212.5 -122t138 -190t50 -244zM594 760q0 -99 33 -186t94 -153t154 -104t206 -38q124 0 233.5 51.5t172.5 146.5q8 16 8 29q0 23 -46.5 62.5t-70.5 39.5q-15 0 -32 -10q-11 -11 -13 -14q-90 -125 -252 -125
q-139 0 -220 84.5t-81 216.5t80.5 214.5t220.5 82.5q162 0 252 -125q2 -3 13 -14q14 -11 32 -11q21 0 69 40.5t48 62.5q0 12 -8 28q-61 93 -169 147t-228 54q-149 0 -263.5 -65.5t-173.5 -173.5t-59 -240z" />
    <glyph glyph-name="registered" unicode="&#xae;" horiz-adv-x="2160" 
d="M201 760q0 -228 114 -408t314 -279.5t450 -99.5q187 0 349.5 58t279 160.5t183.5 249.5t67 319q0 228 -115 407t-315 276t-449 97t-449 -97.5t-314.5 -276.5t-114.5 -406zM1749 760q0 -268 -187.5 -437t-482.5 -169q-195 0 -347.5 76t-237 214t-84.5 316q0 131 50 243
t138 190t212.5 122.5t268.5 44.5q145 0 269.5 -44t212.5 -122t138 -190t50 -244zM834 287h65q23 0 38 15t15 34v332h66l217 -355q21 -26 49 -26h86q10 0 20 2.5t20.5 13t10.5 27.5q0 8 -4 18q-1 1 -3.5 6t-4.5 8l-25 41q-47 77 -75 119q-69 108 -107 160q104 26 159.5 99.5
t55.5 176.5q0 136 -89 212.5t-238 76.5h-256q-22 0 -38 -14t-16 -35v-862q0 -22 15.5 -35.5t38.5 -13.5zM952 1092h140q155 0 155 -134q0 -68 -38.5 -99.5t-116.5 -31.5h-140v265z" />
    <glyph glyph-name="multiply" unicode="&#xd7;" horiz-adv-x="1097" 
d="M141 418q-14 -14 -14 -35t14 -35l80 -78q2 -1 5.5 -3t5.5 -3.5t4 -3.5q12 -4 24 -4q20 0 39 14l256 252l248 -248q16 -16 37 -16q22 0 39 14l73 74q15 15 15 35t-15 35l-256 248l258 254q17 17 17 34q0 18 -17 35l-77 78q-21 16 -39 16t-39 -16l-254 -252l-248 252
q-12 12 -39 12q-25 0 -39 -12l-74 -74q-14 -14 -14 -35q0 -20 14 -34l254 -248z" />
    <glyph glyph-name="divide" unicode="&#xf7;" horiz-adv-x="1288" 
d="M502 950q0 -59 39.5 -99t105.5 -40t102.5 41t36.5 98t-36.5 97t-102.5 40t-105.5 -39t-39.5 -98zM1110 768h-930q-25 0 -39 -14.5t-14 -34.5v-101q0 -20 14 -34.5t39 -14.5h930q23 0 38 15t15 34v101q0 19 -15 34t-38 15zM502 391q0 -59 39.5 -98t105.5 -39t102.5 40
t36.5 97t-36.5 97t-102.5 40t-105.5 -39t-39.5 -98z" />
    <glyph glyph-name="endash" unicode="&#x2013;" horiz-adv-x="1355" 
d="M225 569h908q23 0 38 15t15 34v101q0 19 -15 34t-38 15h-908q-25 0 -39 -14.5t-14 -34.5v-101q0 -20 14 -34.5t39 -14.5z" />
    <glyph glyph-name="emdash" unicode="&#x2014;" horiz-adv-x="1947" 
d="M225 567h1499q25 0 38.5 14.5t13.5 34.5v101q0 20 -13.5 34.5t-38.5 14.5h-1499q-25 0 -39 -14.5t-14 -34.5v-101q0 -21 13.5 -35t39.5 -14z" />
    <glyph glyph-name="quoteleft" unicode="&#x2018;" horiz-adv-x="526" 
d="M326 977q13 -8 28 -8q28 0 59 37t31 57q0 24 -16 37q-25 19 -27 20q-18 18 -22 21q-84 87 -100 180q57 10 88.5 50.5t31.5 94.5q0 63 -40.5 109.5t-112.5 46.5q-50 0 -84.5 -21t-50.5 -56t-22.5 -66.5t-6.5 -65.5q0 -122 67 -248t177 -188z" />
    <glyph glyph-name="quoteright" unicode="&#x2019;" horiz-adv-x="528" 
d="M84 1063q0 -20 31 -57t59 -37q13 0 29 8q108 57 175.5 187.5t67.5 250.5q0 26 -3 51t-13.5 54.5t-27.5 51t-47 36t-70 14.5q-73 0 -113.5 -46t-40.5 -110q0 -54 32 -94.5t89 -50.5q-20 -98 -102 -180l-23 -21q-25 -19 -27 -20q-16 -16 -16 -37z" />
    <glyph glyph-name="quotedblleft" unicode="&#x201c;" horiz-adv-x="866" 
d="M328 977q13 -8 28 -8q28 0 59 37t31 57q0 24 -16 37q-25 19 -27 20q-18 18 -22 21q-84 87 -100 180q55 10 86.5 50.5t31.5 94.5q0 64 -39 110t-112 46q-49 0 -83.5 -21t-51 -55.5t-23 -66.5t-6.5 -66q0 -122 67 -248t177 -188zM668 975q12 -6 28 -6q27 0 58.5 36.5
t31.5 57.5q0 13 -8 24q-4 7 -12 13q-124 108 -145 221q55 10 86.5 51t31.5 94q0 63 -40.5 109.5t-112.5 46.5q-40 0 -70 -14t-47 -35t-27.5 -50.5t-14 -54t-3.5 -51.5q0 -73 28 -159.5t85.5 -166.5t130.5 -116z" />
    <glyph glyph-name="quotedblright" unicode="&#x201d;" horiz-adv-x="866" 
d="M84 1063q0 -20 31 -57t59 -37q13 0 29 8q108 57 175.5 187.5t67.5 250.5q0 26 -3 51t-13.5 54.5t-27.5 51t-47 36t-70 14.5q-73 0 -113.5 -46t-40.5 -110q0 -55 31 -95t88 -50q-17 -97 -100 -180l-23 -21q-25 -19 -27 -20q-16 -16 -16 -37zM424 1063q0 -21 30 -57.5
t58 -36.5q17 0 29 8q108 57 175.5 188t67.5 250q0 26 -3 51t-13.5 54.5t-27.5 51t-47 36t-70 14.5q-72 0 -113 -46.5t-41 -109.5q0 -54 32 -94.5t89 -50.5q-13 -64 -47.5 -112t-102.5 -109q-16 -16 -16 -37z" />
    <glyph glyph-name="Euro" unicode="&#x20ac;" horiz-adv-x="1816" 
d="M1628 193q19 19 19 38q0 30 -25 48q-3 3 -11 10t-19 17.5t-19 17.5q-9 6 -33 24l-16 10q-21 7 -25 7q-29 0 -47 -23q-86 -78 -173.5 -112.5t-205.5 -34.5q-164 0 -287.5 76.5t-187.5 213.5h631q27 0 45 18t18 42q0 3 1.5 28.5t0.5 40.5q-4 29 -14 43q-17 27 -51 27h-686
q-2 25 -2 76q0 49 2 76h686q27 0 45 17t18 42v78q0 24 -18 41.5t-45 17.5h-629q64 136 188 214.5t285 78.5q176 0 307 -104q19 -19 27 -29q3 -2 8 -7t8 -7q11 -11 17 -15q22 -18 47 -18q27 0 45 18l55 49q14 12 31 33q16 20 16 41q0 25 -14 39q-30 36 -78 70
q-193 145 -465 145q-268 0 -470.5 -138t-282.5 -370h-158q-29 0 -46.5 -18.5t-17.5 -40.5v-78q0 -23 17.5 -41t46.5 -18h121q-4 -27 -4 -76q0 -51 2 -76h-119q-30 0 -47 -19.5t-17 -41.5q0 -2 -1.5 -27.5t-0.5 -40.5q4 -27 15 -43q15 -27 51 -27h158q80 -233 281 -372.5
t468 -139.5q159 0 307 56.5t248 163.5z" />
    <glyph glyph-name="trademark" unicode="&#x2122;" horiz-adv-x="1226" 
d="M180 1034q0 -17 13.5 -31t35.5 -14q2 0 7 -1t8 -1h24q17 2 32 13t15 34v428h121q9 0 15 2v-422q0 -20 13.5 -34.5t37.5 -14.5q2 0 6.5 -1t7.5 -1q15 0 23 2q45 5 45 45v207q98 -230 129 -248l-29 17q8 -13 31 -21q8 -2 22 -2q7 0 17.5 1t11.5 1q34 0 47 27l98 227v-209
q0 -16 11 -30.5t36 -14.5q2 0 7 -1t8 -1h22q18 2 32.5 13.5t14.5 33.5v502q0 16 -11 31.5t-34 15.5h-36q-11 0 -27 -4q-23 -5 -33 -24l-156 -363l-155 365q-4 15 -31 22q-16 4 -22 4h-17q-16 0 -22 -2q-18 0 -33 -12q-10 10 -29 10h-375q-19 0 -33 -12.5t-14 -32.5l-1 -4
q-1 -4 -1 -8v-21q2 -16 13.5 -29.5t35.5 -13.5h119v-428z" />
    <glyph glyph-name="minus" unicode="&#x2212;" horiz-adv-x="1288" 
d="M1110 768h-930q-25 0 -39 -14.5t-14 -34.5v-101q0 -20 14 -34.5t39 -14.5h930q23 0 38 15t15 34v101q0 19 -15 34t-38 15z" />
    <glyph glyph-name="_FSHallmark" horiz-adv-x="2007" 
d="M188 1409v197h1678v-197h-1678zM1851 1034h-202q0 19 -15 45q-18 21 -37 35q-35 18 -47 21q-5 1 -23 3.5t-26 2.5q-48 0 -96 -25q-41 -25 -41 -59q0 -61 37 -82q57 -28 90 -35l133 -31q33 -11 59 -14q13 -1 50 -12q5 -3 20.5 -11t22.5 -12q42 -25 63 -55q22 -40 25 -88
q3 -52 -21 -101q-51 -83 -147 -118q-102 -31 -191 -31q-79 0 -137 18q-53 14 -117 56q-51 36 -86 96q-30 56 -30 131l194 -4q0 -10 8 -29q3 -30 29 -53q22 -22 51 -35q35 -18 94 -18q67 0 107 24q41 18 41 52q0 59 -160 94q-154 39 -246 88q-100 53 -100 168q0 97 66 151
q66 53 147 80q73 17 139 17q101 0 191 -37q89 -38 133 -133q22 -55 22 -99zM410 737v-270h-222v833h707v-190h-485v-186h403v-187h-403zM877 567q0 44 28 72q27 27 72 27q40 0 80 -29q33 -26 33 -70q0 -40 -33 -69q-37 -27 -80 -27q-39 0 -70 31q-30 27 -30 65zM184 164v198
h1680v-198h-1680z" />
    <glyph glyph-name="_Fontastica" horiz-adv-x="2007" 
d="M580 692v-391h-232q-2 4 -2 10v1360h1018v-209h-784v-559h786v-211h-786zM727 1071v211h789v389h231v-1366h-1020v207h789v559h-789zM1516 168q-15 -8 -15 -21q0 -18 10 -28q10 -13 25 -13q17 0 37 13l12 -13q-19 -22 -49 -22q-22 0 -43 12q-12 15 -18 43q-3 26 16 45
q21 21 45 21q28 0 49 -21l-12 -16q-1 2 -5.5 5t-6.5 5q-2 4 -19 4h-6q-18 -7 -20 -14zM348 86v117h86v-21h-55v-32h53v-19h-53v-45h-31zM541 203q37 0 59 -31q16 -23 4 -53q-13 -32 -51 -35l-14 -6q-17 0 -25 8q-37 15 -37 51q0 31 19 47q14 19 45 19zM766 203v-117h-6
q-4 -2 -8 -2q-10 0 -19 12l-12 17q-1 3 -5 8t-5 8l-25 29v-72h-27v117h23q8 -2 12 -17q23 -23 27 -28q3 -4 10 -16.5t12 -18.5v80h23zM817 182v21h98v-21h-36v-96h-25v96h-37zM1182 147q24 -3 24 -26q3 -25 -20 -35q-4 -2 -23 -2q-40 0 -55 18q2 2 2 4l2 5q0 4 4 8l37 -13
h16q7 9 9 7q0 18 -27 24q-4 0 -6 2t-10 2q-19 5 -19 27q-5 18 17 31q12 4 26 4q29 0 47 -10l-10 -21q-4 2 -8 2q-2 0 -6 2q-2 2 -8 2q-3 0 -5 4h-16q-8 0 -8 -8q-4 -4 8 -16q11 -2 29 -11zM1245 182v21h103v-21h-37v-96h-27v96h-39zM1395 86v117h30v-117h-30zM1671 203h33
l25 -56q1 -4 12 -32q9 -22 14 -29h-26l-11 25h-57l-10 -25h-27q33 64 47 117zM991 199h27q4 -14 12 -27q3 -4 7.5 -14.5t6.5 -12.5q1 -3 5.5 -14t5.5 -16t5 -15.5t5 -13.5h-27q-2 2 -2 10q0 1 -1 3t-2.5 5.5t-2.5 6.5h-53q-2 -4 -2 -15q-2 -2 -2 -4l-6 -6h-25zM575 141v4
q0 16 -8 27q-13 10 -28 10q-4 -4 -9 -4q-12 -3 -22 -18q-12 -15 -2 -29q9 -27 35 -27q8 0 10 2q24 6 24 35zM983 131h39q-1 1 -2 5t-2 5q-2 2 -3.5 6t-2.5 5q-2 4 -2 12q-2 1 -3.5 5t-2.5 5zM1669 131h37q-2 2 -2 10q-5 11 -6 11q-1 2 -2 6t-2 6q-1 1 -2.5 5t-3.5 5z" />
    </font>
</defs>
</svg>
