<?xml version="1.0" standalone="no"?>
<!DOCTYPE svg PUBLIC "-//W3C//DTD SVG 1.1//EN" "http://www.w3.org/Graphics/SVG/1.1/DTD/svg11.dtd" >
<svg xmlns="http://www.w3.org/2000/svg" xmlns:xlink="http://www.w3.org/1999/xlink" version="1.1">
<metadata>
Created by FontForge 20170731 at Sat Jul 20 17:32:38 2019
 By Aleksey,,,
Copyright (c) 2019 by Fontastica. All rights reserved.
</metadata>
<defs>
<font id="Qartella-ExtraBold" horiz-adv-x="682" >
  <font-face 
    font-family="Qartella ExtraBold"
    font-weight="800"
    font-stretch="normal"
    units-per-em="1000"
    panose-1="0 0 9 0 0 0 0 0 0 0"
    ascent="800"
    descent="-200"
    x-height="513"
    cap-height="775"
    bbox="-77 -262 988 824"
    underline-thickness="50"
    underline-position="-150"
    unicode-range="U+0020-2212"
  />
<missing-glyph horiz-adv-x="637" 
d="M597 762v-759l-557 -2v759l1 2l555 2zM551 723l-465 -2v-679l465 2v679zM320 418l142 142l39 -39l1 -2l-143 -142l141 -139v-3l-36 -36l-140 140l-142 -142l-40 39l140 145l-139 140v2l36 36h3z" />
    <glyph glyph-name=".notdef" horiz-adv-x="637" 
d="M597 762v-759l-557 -2v759l1 2l555 2zM551 723l-465 -2v-679l465 2v679zM320 418l142 142l39 -39l1 -2l-143 -142l141 -139v-3l-36 -36l-140 140l-142 -142l-40 39l140 145l-139 140v2l36 36h3z" />
    <glyph glyph-name=".null" horiz-adv-x="0" 
 />
    <glyph glyph-name="nonmarkingreturn" horiz-adv-x="333" 
 />
    <glyph glyph-name="space" unicode=" " horiz-adv-x="276" 
 />
    <glyph glyph-name="exclam" unicode="!" horiz-adv-x="334" 
d="M194 198q18 0 29 10t11 24l2 507q0 14 -10.5 25t-29.5 11h-58q-18 0 -29 -11t-11 -25l2 -507q0 -14 11 -24t29 -10h54zM105.5 121.5q-21.5 -22.5 -21.5 -53.5t22 -54.5t61 -23.5t61 23.5t22 54.5t-22 53.5t-61 22.5q-40 0 -61.5 -22.5z" />
    <glyph glyph-name="quotedbl" unicode="&#x22;" horiz-adv-x="448" 
d="M41 518q0 -9 9 -23t22.5 -24.5t27.5 -10.5q11 0 21 6q50 26 82.5 81.5t39.5 111.5q14 -18 39 -27q-5 -19 -21 -43l-20 -22l-25 -24q-12 -12 -12 -25q0 -9 8.5 -23t22 -24.5t27.5 -10.5q10 0 22 6q38 20 66 57.5t43 81t15 80.5q0 42 -20.5 76t-72.5 34q-30 0 -51 -14
t-30 -36q-22 50 -82 50q-43 0 -66 -25.5t-23 -59.5q0 -25 14 -47t42 -31q-11 -38 -43 -69q-5 -5 -11.5 -10t-11.5 -10q-12 -12 -12 -25z" />
    <glyph glyph-name="numbersign" unicode="#" horiz-adv-x="760" 
d="M97 33q0 -13 10 -23t28 -10h46q16 0 28 9t15 21l50 186h109l-22 -78l-18 -69q-4 -9 -5 -17q-4 -12 -4 -20q0 -13 11 -22.5t28 -9.5h46q17 0 28 9t14 21l51 186h102q25 0 39 20q2 3 7 16l4 12l5 13q2 8 2 15q0 13 -10.5 22.5t-27.5 9.5h-92l32 114h88q24 0 38 20q3 5 7 15
l5 12l4 12q4 10 4 16q0 13 -10.5 22.5t-27.5 9.5h-80l24 85q12 42 20 73l6 18q4 12 4 21q0 13 -11 23t-28 10h-47q-17 0 -27 -9t-14 -21l-55 -200h-109l24 85q8 31 20 73q1 6 5 18q3 11 3 21q0 13 -10 23t-27 10h-47q-16 0 -27.5 -9t-14.5 -21l-53 -200h-89q-26 0 -39 -20
q-4 -5 -8 -15l-4 -13q-3 -7 -5 -13q-1 -3 -2 -6.5t-1 -8.5q0 -12 10.5 -21.5t26.5 -9.5h80l-31 -114h-74q-27 0 -40 -21q-3 -5 -7 -15l-5 -14l-4 -12l-2 -7l-1 -7q0 -14 11 -23t27 -9h65l-21 -78l-19 -68l-5 -17q-3 -18 -3 -20zM444 438l-30 -114h-110l31 114h109z" />
    <glyph glyph-name="dollar" unicode="$" horiz-adv-x="662" 
d="M276 -7v-74q0 -14 10 -24.5t30 -10.5l19 -1q15 0 22 2q14 2 23 11t9 23v74q108 11 166 72t58 154q0 89 -58.5 138t-165.5 79v218q28 -6 48 -16q18 -10 27 -16q8 -5 15.5 -10t14.5 -10q11 -8 25 -8q15 0 25 10q10 8 23 35.5t13 39.5q0 17 -13 30q-4 4 -12 10l-12 9
q-65 42 -153 53q-2 14 -4 19q-10 24 -37 24h-23q-27 0 -39 -10.5t-12 -31.5v-2q-64 -10 -114 -40.5t-77.5 -76t-27.5 -100.5q0 -173 220 -235v-209q-39 8 -75.5 26.5t-59.5 41.5l-5 5h-6q-3 0 -5 1h-9q-14 0 -29 -16.5t-26 -37.5t-11 -28q0 -15 16 -31l13 -11q8 -6 12 -8
q77 -55 185 -68zM276 469q-44 16 -65 37t-21 57q0 32 23.5 56t62.5 34v-184zM389 298q42 -15 65.5 -33.5t23.5 -48.5q0 -38 -23 -64t-66 -35v181z" />
    <glyph glyph-name="percent" unicode="%" horiz-adv-x="855" 
d="M278 0q11 0 21.5 6t16.5 15l426 735q5 8 5 18q0 13 -10.5 21.5t-26.5 8.5h-57q-25 0 -37 -22l-426 -734q-6 -10 -6 -19q0 -12 10 -20.5t25 -8.5h59zM130 758q-44 -26 -66 -68.5t-22 -91.5t22 -91.5t66 -68t107 -25.5t106.5 26t65 68t21.5 91t-21.5 91.5t-65 68.5
t-106.5 26t-107 -26zM282.5 645.5q15.5 -17.5 15.5 -46.5q0 -30 -15.5 -47t-45.5 -17t-46.5 18t-16.5 46t17 46t46 18q30 0 45.5 -17.5zM568 335.5q-44 -26.5 -66 -69t-22 -90.5q0 -49 22 -91.5t66 -68.5t106 -26q63 0 107 26t66 68.5t22 91.5t-22 91.5t-66 68.5t-107 26
q-62 0 -106 -26.5zM719.5 221.5q16.5 -17.5 16.5 -45.5q0 -29 -16 -47t-47 -18q-29 0 -45 18t-16 47q0 27 16.5 45t44.5 18q30 0 46.5 -17.5z" />
    <glyph glyph-name="ampersand" unicode="&#x26;" horiz-adv-x="776" 
d="M62.5 360q-29.5 -53 -29.5 -116q0 -76 41 -135t113.5 -92t163.5 -33q125 0 215 79l53 -48q6 -6 18.5 -10.5t21.5 -4.5h69q15 0 26.5 7.5t11.5 22.5q0 5 -3 9l-3 6q-10 14 -61 59l-60 53q30 56 45 121.5t15 131.5q0 13 -11 24.5t-29 11.5h-54q-18 0 -28 -10t-12 -23
q-1 -9 -1 -27l-2 -28q-7 -60 -26 -107l-183 167l-40 37q-24 22 -40 41q-42 49 -42 87q0 36 18.5 59t54.5 23q19 0 31 -6.5t22 -18.5q5 -5 9 -10t9 -10q12 -14 30 -14q8 0 29.5 12t39 28t17.5 28q0 6 -4 16q-24 46 -71 70t-107 24q-67 0 -115 -27.5t-72.5 -73t-24.5 -98.5
q0 -70 56 -140q-61 -32 -90.5 -85zM469 150q-51 -46 -119 -46q-77 0 -129.5 39t-52.5 101q0 37 18 67.5t53 47.5z" />
    <glyph glyph-name="quotesingle" unicode="'" horiz-adv-x="286" 
d="M41 518q0 -9 9 -23t22.5 -24.5t27.5 -10.5q11 0 21 6q38 20 66 57.5t43 81t15 80.5q0 42 -20.5 76t-72.5 34q-43 0 -66 -25.5t-23 -59.5q0 -25 14 -47t42 -31q-11 -38 -43 -69q-5 -5 -11.5 -10t-11.5 -10q-12 -12 -12 -25z" />
    <glyph glyph-name="parenleft" unicode="(" horiz-adv-x="371" 
d="M269 -167q15 0 25.5 8t10.5 21q0 4 -2 10q0 1 -5 8q-56 88 -86 197.5t-30 214.5q0 117 29 223.5t89 213.5q5 10 5 16q0 13 -10.5 21.5t-25.5 8.5h-51q-25 0 -41 -22q-11 -15 -21 -35q-12 -24 -17 -36q-89 -189 -89 -380q0 -197 89 -380l17 -34q10 -21 21 -34
q17 -21 41 -21h51z" />
    <glyph glyph-name="parenright" unicode=")" horiz-adv-x="371" 
d="M154 -167q17 0 31 12q12 9 20 22q7 12 14 26.5t9 18.5q94 186 94 390q0 193 -94 391q-2 5 -9 19.5t-14 26.5q-10 16 -19 23q-15 13 -32 13h-52q-15 0 -25.5 -8.5t-10.5 -21.5q0 -10 5 -18q60 -100 90 -210t30 -225q0 -92 -22.5 -185t-66.5 -176l-20 -32l-10 -19l-4 -9
q-2 -4 -2 -9q0 -13 10.5 -21t25.5 -8h52z" />
    <glyph glyph-name="asterisk" unicode="*" horiz-adv-x="506" 
d="M76 413q0 -14 13 -25l37 -35q11 -10 29 -10q22 0 33 17l66 88l65 -88q4 -7 13 -12t19 -5q18 0 29 10l37 35q13 11 13 25q0 12 -10 24l-73 83l108 59q9 5 13.5 13t4.5 17t-5 17q-2 5 -10 17q-5 8 -10 15t-9 13q-13 17 -34 17l-8 -1h-3h-5l-74 -50q4 68 4 101
q0 14 -11 24.5t-29 10.5h-52q-18 0 -29 -10.5t-11 -24.5q0 -33 4 -101l-74 50h-5h-3l-8 1q-21 0 -34 -18l-19 -28q-2 -2 -10 -16q-1 -2 -3 -7.5t-2 -10.5q0 -8 5 -16.5t14 -12.5l108 -59l-74 -83q-10 -12 -10 -24z" />
    <glyph glyph-name="plus" unicode="+" horiz-adv-x="651" 
d="M353 77q19 0 29.5 10.5t10.5 24.5v158h157q18 0 29 11.5t11 24.5v48q0 14 -11 25t-29 11h-157v157q0 14 -11 25t-29 11h-54q-18 0 -29.5 -11.5t-11.5 -24.5v-157h-156q-18 0 -29 -11t-11 -25v-48q0 -14 11 -25t29 -11h156v-158q0 -13 11 -24t30 -11h54z" />
    <glyph glyph-name="comma" unicode="," horiz-adv-x="308" 
d="M52 -109q0 -8 9 -22.5t22.5 -25t27.5 -10.5q9 0 21 5q38 20 66 57.5t43 81.5t15 81q0 42 -20 75.5t-73 33.5q-42 0 -65.5 -24.5t-23.5 -58.5q0 -25 14.5 -47.5t42.5 -31.5q-13 -40 -43 -69q-6 -4 -9 -7l-12 -9q-15 -15 -15 -29z" />
    <glyph glyph-name="hyphen" unicode="-" horiz-adv-x="488" 
d="M386 271q18 0 29 11t11 25v48q0 14 -11 25t-29 11h-284q-18 0 -29 -11t-11 -25v-48q0 -14 11 -25t29 -11h284z" />
    <glyph glyph-name="period" unicode="." horiz-adv-x="346" 
d="M107.5 131.5q-23.5 -24.5 -23.5 -57.5t23.5 -58.5t65.5 -25.5t65 25t23 59t-23 58t-65 24t-65.5 -24.5z" />
    <glyph glyph-name="slash" unicode="/" horiz-adv-x="460" 
d="M88 0q25 0 42 24q5 9 10 22l8 19l41 90l114 258l84 187q73 164 73 173q0 13 -10.5 22t-26.5 9h-50q-27 0 -42 -23q-5 -9 -10 -22q-3 -5 -4.5 -10.5t-3.5 -9.5l-40 -90l-115 -257l-16 -36q-25 -53 -68 -151q-74 -166 -74 -174q0 -12 10 -21.5t26 -9.5h52z" />
    <glyph glyph-name="zero" unicode="0" horiz-adv-x="931" 
d="M263.5 708q-81.5 -57 -120 -145t-38.5 -181t39 -181t120 -145t201 -57t202 57t121.5 145t39.5 181t-39.5 181t-121.5 145t-202 57t-201.5 -57zM592 616q51 -42 75 -105t24 -129q0 -65 -24.5 -128.5t-75.5 -105t-126 -41.5q-76 0 -126.5 41.5t-74.5 105t-24 128.5
t24 128.5t74.5 105.5t126.5 42t127 -42z" />
    <glyph glyph-name="one" unicode="1" horiz-adv-x="479" 
d="M298 12q19 0 32.5 13t13.5 28v660q0 12 -6 22q-9 18 -30 18q-12 0 -19 -3l-208 -79q-20 -7 -25 -24q-1 -3 -2 -7t-1 -6v-12q0 -20 8 -33q11 -21 40 -21l6 1q1 0 7 2l15 4l39 14l43 17v-553q0 -15 13 -28t33 -13h41z" />
    <glyph glyph-name="two" unicode="2" horiz-adv-x="756" 
d="M607 12q15 0 25 6.5t14 16.5q6 11 6 33q0 18 -7 31q-13 20 -38 20h-300l213 190q59 53 88 101.5t29 111.5q0 69 -33.5 124.5t-97 87t-148.5 31.5q-77 0 -146.5 -27.5t-112.5 -78.5q-10 -14 -10 -25q0 -17 27 -38.5t47 -21.5q18 0 35 15l13 13l12 12q26 21 60.5 32.5
t71.5 11.5q70 0 108 -36t38 -97q0 -39 -20 -69.5t-61 -67.5l-302 -271q-17 -15 -20 -25q-1 -3 -2 -7t-1 -6v-14q0 -19 7 -32q5 -9 15 -15t24 -6h466z" />
    <glyph glyph-name="three" unicode="3" horiz-adv-x="795" 
d="M658 320.5q-32 43.5 -89 71.5q48 26 73.5 67.5t25.5 89.5q0 70 -43.5 118.5t-114 73t-150.5 24.5q-71 0 -137.5 -19t-106.5 -61q-14 -12 -14 -28q0 -10 4.5 -17t12.5 -14q15 -12 22 -16q6 -4 15 -8q10 -5 18 -5q14 0 22.5 6t9.5 7q33 28 67.5 38t86.5 10q75 0 124 -28
t49 -83q0 -54 -47.5 -79.5t-121.5 -25.5h-96q-29 0 -41 -23q-5 -11 -5 -34q0 -19 7 -31q13 -20 39 -20h100q78 0 132.5 -27.5t54.5 -82.5q0 -59 -56 -88t-137 -29q-90 0 -145 32q-4 2 -9 7l-13 9q-17 13 -35 13q-14 0 -30 -10.5t-27 -25.5t-11 -25q0 -16 14 -30
q40 -38 114 -58t143 -20q83 0 157.5 25t122 75t47.5 123q0 55 -32 98.5z" />
    <glyph glyph-name="four" unicode="4" horiz-adv-x="783" 
d="M444 172v-119q0 -15 12.5 -28t32.5 -13h23q17 0 26 2q35 7 35 39v119h94q30 0 41 23q6 13 6 33q0 18 -8 31q-12 19 -39 19h-94v196q0 16 -12.5 28.5t-32.5 12.5h-23q-17 0 -26 -2q-35 -7 -35 -39v-196h-216l249 408q7 11 7 23q0 17 -13.5 30.5t-35.5 13.5h-39
q-27 0 -39 -20l-287 -472q-5 -7 -5 -20q-1 -6 -1 -17q0 -19 8 -32q13 -20 39 -20h333z" />
    <glyph glyph-name="five" unicode="5" horiz-adv-x="784" 
d="M136.5 177q-15.5 -11 -26.5 -26.5t-11 -25.5q0 -13 14 -31l12 -11l11 -10q46 -38 107 -56t129 -18q87 0 159 29t115 83t43 128t-43 128t-115 82.5t-159 28.5q-48 0 -87 -8l10 177h306q30 0 41 22q5 11 5 33q0 19 -7 31q-13 20 -39 20h-387q-19 0 -32 -11.5t-14 -26.5
l-18 -295v-3q0 -14 11 -25q10 -12 30 -29q10 -8 20 -14q16 -8 24 -8t20 5q31 12 57.5 17.5t59.5 5.5q80 0 131 -34t51 -96q0 -63 -51 -97.5t-131 -34.5q-91 0 -144 42l-12 11l-14 13q-15 15 -36 15q-14 0 -29.5 -11z" />
    <glyph glyph-name="six" unicode="6" horiz-adv-x="819" 
d="M104 259q0 -76 39 -135t109.5 -92t162.5 -33q94 0 164.5 33.5t109 93t38.5 136.5q0 68 -39.5 124t-108 88t-150.5 32q-27 0 -40 -2l122 180q8 11 8 24q0 17 -14.5 31t-36.5 14h-39q-14 0 -22 -5t-15 -14l-247 -354q-41 -61 -41 -121zM543 354q49 -34 49 -94
q0 -71 -46.5 -112t-130.5 -41q-83 0 -130 41t-47 111q0 60 51 94.5t128 34.5t126 -34z" />
    <glyph glyph-name="seven" unicode="7" 
d="M147 58q0 -17 13.5 -31.5t36.5 -14.5h17l10 -1l10 1q27 2 39 22l359 629q4 4 4 10v8l1 18q0 6 -2 22q-4 13 -14.5 22.5t-29.5 9.5h-498q-29 0 -41 -23q-6 -12 -6 -34q0 -18 10 -33.5t37 -15.5h383l-324 -569q-5 -9 -5 -20z" />
    <glyph glyph-name="eight" unicode="8" horiz-adv-x="864" 
d="M728.5 322.5q-31.5 40.5 -92.5 68.5q52 26 77 65t25 92q0 70 -43 119t-113.5 73.5t-150.5 24.5t-149.5 -24.5t-112 -73.5t-42.5 -118q0 -50 25.5 -92t74.5 -66q-122 -55 -122 -168q0 -73 47.5 -123.5t123 -75.5t158.5 -25q82 0 157 25t122 75.5t47 122.5
q0 60 -31.5 100.5zM554.5 630q48.5 -28 48.5 -83t-48 -79.5t-124 -24.5q-75 0 -122.5 25t-47.5 80t47.5 82.5t122.5 27.5t123.5 -28zM570 307.5q55 -26.5 55 -83.5q0 -59 -55 -88t-136 -29t-137.5 28.5t-56.5 87.5q0 58 56 84.5t138 26.5q81 0 136 -26.5z" />
    <glyph glyph-name="nine" unicode="9" horiz-adv-x="817" 
d="M299 44q0 -18 14 -31.5t37 -13.5q5 0 16.5 -0.5t20.5 0.5q28 2 40 19l247 354q41 61 41 122q0 76 -39 135t-110.5 91.5t-163.5 32.5q-93 0 -164 -33.5t-109.5 -93.5t-38.5 -137q0 -68 40 -124t109 -88t151 -32q13 0 39 2l-122 -179q-8 -11 -8 -24zM532.5 604.5
q47.5 -41.5 47.5 -111.5q0 -60 -51 -94.5t-128 -34.5q-76 0 -125.5 34t-49.5 93q0 72 46 113.5t130 41.5q83 0 130.5 -41.5z" />
    <glyph glyph-name="colon" unicode=":" horiz-adv-x="318" 
d="M88.5 545q-25.5 -26 -25.5 -62q0 -37 25.5 -63.5t70.5 -26.5q46 0 71 27t25 63t-25.5 62t-70.5 26t-70.5 -26zM89 143q-26 -26 -26 -62q0 -37 25 -63.5t71 -26.5t71 27t25 63t-25.5 62t-70.5 26q-44 0 -70 -26z" />
    <glyph glyph-name="semicolon" unicode=";" horiz-adv-x="336" 
d="M100 545q-26 -26 -26 -62t26 -63t71 -27q46 0 70.5 26.5t24.5 63.5q0 36 -25 62t-70 26t-71 -26zM56 -109q0 -9 13 -27.5t22 -24.5q11 -6 24 -6t21 5q37 18 65.5 57t43.5 83.5t15 80.5q0 42 -20 75t-73 33q-42 0 -66 -25t-24 -58q0 -26 15 -48t43 -31q-15 -43 -46 -71
q-2 -3 -8 -7l-11 -9q-14 -12 -14 -27z" />
    <glyph glyph-name="less" unicode="&#x3c;" horiz-adv-x="640" 
d="M42 302q0 -11 7 -21t18 -15q25 -11 92 -40t155 -66q237 -101 248 -101q18 0 27 10.5t9 21.5v56q0 12 -7 22t-20 15l-366 152l366 151q13 6 20 16.5t7 21.5v57q0 12 -9 22t-27 10q-11 0 -248 -101l-114 -49q-45 -19 -81.5 -34.5t-51.5 -22.5q-25 -12 -25 -38v-67z" />
    <glyph glyph-name="equal" unicode="=" horiz-adv-x="626" 
d="M502 364q19 0 29.5 11.5t10.5 25.5v46q0 14 -10.5 25t-29.5 11h-378q-19 0 -29.5 -11t-10.5 -25v-46q0 -14 10.5 -25.5t29.5 -11.5h378zM502 208q19 0 29.5 11t10.5 25v47q0 13 -11 24.5t-29 11.5h-378q-18 0 -29 -11.5t-11 -24.5v-47q0 -14 10.5 -25t29.5 -11h378z" />
    <glyph glyph-name="greater" unicode="&#x3e;" horiz-adv-x="640" 
d="M90 59l8 5l6 2l8 4l208 89l167 71q9 3 38.5 15t47.5 21q11 5 18 15.5t7 20.5v67q0 11 -7 21.5t-18 16.5q-15 7 -51.5 22.5t-81.5 34.5l-114 49q-237 101 -249 101q-17 0 -26 -10t-9 -22v-57q0 -11 6.5 -21.5t19.5 -16.5l366 -151l-366 -152q-13 -5 -19.5 -15t-6.5 -22
v-56q0 -11 8.5 -21.5t26.5 -10.5h13z" />
    <glyph glyph-name="question" unicode="?" horiz-adv-x="576" 
d="M287 193q17 0 27 9.5t13 21.5l6 28q1 11 8 24q7 16 19 30t33 35q43 43 66.5 72t37 65t13.5 85q0 59 -26.5 109.5t-79 81t-126.5 30.5q-67 0 -124.5 -26.5t-95.5 -73.5q-8 -11 -8 -22q0 -9 13 -27.5t30 -32.5t31 -14q17 0 30 13q36 34 61 49t64 15q47 0 72 -29t25 -73
q0 -41 -18.5 -71t-55.5 -65l-32 -30q-5 -5 -14.5 -15t-15.5 -18q-33 -38 -45 -84q-8 -27 -8 -51q0 -14 11 -25t29 -11h60zM200 121.5q-22 -22.5 -22 -53.5t22 -54.5t61 -23.5q40 0 62 23.5t22 54.5t-22.5 53.5t-61.5 22.5t-61 -22.5z" />
    <glyph glyph-name="at" unicode="@" horiz-adv-x="1035" 
d="M283 725.5q-108 -58.5 -164 -157.5t-56 -220q0 -120 56 -219.5t164 -157.5t257 -58q88 0 163.5 27.5t133.5 82.5q11 13 11 25q0 9 -14 27t-32.5 32.5t-31.5 14.5q-15 0 -29 -12q-46 -38 -93.5 -57t-107.5 -19q-108 0 -187 41t-120.5 112.5t-41.5 161.5q0 89 41.5 161.5
t120.5 114t187 41.5q93 0 162.5 -40.5t106.5 -108t37 -144.5q0 -44 -14 -77q-17 -42 -50 -42q-23 0 -34.5 12t-11.5 34v221q0 22 -24 29q-6 2 -10.5 2.5t-7.5 0.5h-14q-21 0 -33 -4.5t-18 -15.5q-54 39 -129 39q-74 0 -123.5 -33t-73.5 -84.5t-24 -107.5t24 -108t74 -85.5
t123 -33.5q48 0 88.5 16t68.5 47q47 -42 115 -42q36 0 73 15q67 27 97 88t30 129q0 110 -49.5 203.5t-147.5 150.5t-235 57q-149 0 -257 -58.5zM579 423q24 -30 24 -77q0 -45 -24.5 -75.5t-72.5 -30.5t-73 30t-25 76t25 76.5t73 30.5q49 0 73 -30z" />
    <glyph glyph-name="A" unicode="A" horiz-adv-x="751" 
d="M8 32q0 -14 11 -23t27 -9h55q13 0 23.5 6.5t15.5 16.5l87 210h296l88 -210q4 -9 15 -16t23 -7h56q16 0 27 9t11 23q0 7 -66 166q-67 161 -76 179l-103 246l-37 86q-12 30 -16 39q-12 26 -41 26h-56q-29 0 -41 -26q-19 -42 -154 -361q-145 -344 -145 -355zM475 349h-198
l100 238z" />
    <glyph glyph-name="B" unicode="B" horiz-adv-x="697" 
d="M381 0q83 0 144 31t93 84.5t32 121.5q0 60 -28.5 111t-85.5 83q34 27 51 62.5t17 76.5q0 99 -75 152t-195 53h-198q-19 0 -30 -11t-11 -25v-703q0 -14 11 -25t29 -11h246zM337 658q62 0 97 -21.5t35 -67.5q0 -98 -121 -98h-119v187h108zM229 366l154 1q64 0 97.5 -36.5
t33.5 -93.5q0 -56 -37 -87.5t-104 -31.5l-144 -1v249z" />
    <glyph glyph-name="C" unicode="C" horiz-adv-x="794" 
d="M105.5 602q-57.5 -97 -57.5 -215q0 -105 46 -195.5t138.5 -146t224.5 -55.5q81 0 160 27t129 76q11 13 11 25q0 15 -26.5 40t-41.5 28q-4 1 -11 1q-17 0 -27 -8q-6 -4 -18 -14q-8 -7 -17 -11q-67 -42 -159 -42q-89 0 -151 37.5t-93 100t-31 136.5q0 75 31 138t93 101
t151 38q58 0 104.5 -16t90.5 -50q11 -11 27 -11q11 0 29.5 13.5t33 30t14.5 25.5q0 14 -12 24q-54 51 -129.5 78t-157.5 27q-96 0 -174 -34q-120 -51 -177.5 -148z" />
    <glyph glyph-name="D" unicode="D" horiz-adv-x="784" 
d="M327 0q133 0 225.5 52.5t138.5 140t46 194.5t-46.5 195t-139 140.5t-224.5 52.5h-192q-19 0 -29.5 -11t-10.5 -25v-703q0 -14 11 -25t29 -11h192zM327 658q91 0 153 -36t92.5 -97t30.5 -138t-30 -137.5t-92 -96t-154 -35.5h-98v540h98z" />
    <glyph glyph-name="E" unicode="E" horiz-adv-x="615" 
d="M533 0q18 0 28.5 11t10.5 24v47q0 14 -11 25t-29 11h-303v218h269q18 0 29 11t11 24v47q0 13 -11 24t-29 11h-269v205h293q20 0 30 10.5t10 25.5v45q0 14 -10 25t-30 11h-387q-19 0 -29.5 -11t-10.5 -25v-703q0 -14 11 -25t29 -11h398z" />
    <glyph glyph-name="F" unicode="F" horiz-adv-x="593" 
d="M189 0q18 0 29 11t11 25v300h269q18 0 29 11t11 24v47q0 13 -11 24t-29 11h-269v205h292q19 0 30 10.5t11 25.5v45q0 14 -10 25t-30 11h-386q-19 0 -30 -11t-11 -25v-703q0 -14 11 -25t29 -11h54z" />
    <glyph glyph-name="G" unicode="G" horiz-adv-x="868" 
d="M234 729q-93 -55 -139.5 -145.5t-46.5 -196.5q0 -103 43.5 -193.5t132.5 -146.5t220 -56q133 0 217.5 56.5t122 147t37.5 194.5q0 13 -10.5 24.5t-29.5 11.5h-326q-18 0 -29 -11.5t-11 -24.5v-46q0 -14 10.5 -25t29.5 -11h229q-18 -91 -76 -143t-164 -52q-86 0 -145 38.5
t-88 101t-29 135.5q0 75 31.5 138t94 100.5t152.5 37.5q59 0 103.5 -15.5t87.5 -50.5l5 -4l6 -3q7 -4 17 -4q11 0 29.5 14t33 31t14.5 25q0 14 -12 24q-115 104 -284 104q-133 0 -226 -55z" />
    <glyph glyph-name="H" unicode="H" horiz-adv-x="784" 
d="M106 11q11 -11 29 -11h55q18 0 28.5 11.5t10.5 24.5v300h325v-300q0 -14 10.5 -25t29.5 -11h55q18 0 29 11t11 25v704q0 13 -10.5 24t-28.5 11h-56q-19 0 -29.5 -11t-10.5 -25v-286h-325v287q0 13 -10.5 24t-28.5 11h-55q-19 0 -29.5 -11t-10.5 -25v-703q0 -14 11 -25z
" />
    <glyph glyph-name="I" unicode="I" horiz-adv-x="324" 
d="M190 0q17 0 28 11t11 24v704q0 14 -11 25t-29 11h-55q-19 0 -29 -11t-10 -25v-704q0 -14 11 -24.5t29 -10.5h55z" />
    <glyph glyph-name="J" unicode="J" horiz-adv-x="484" 
d="M36 0q19 -10 45 -10l15 1q106 0 171.5 45.5t94 117.5t28.5 154v431q0 14 -11 25t-30 11h-55q-19 0 -29.5 -11t-10.5 -25v-431q0 -85 -35.5 -140.5t-122.5 -55.5l-20 1q-32 0 -43 -28q-3 -6 -5.5 -12t-4.5 -11q-6 -18 -6 -27q0 -25 19 -35z" />
    <glyph glyph-name="K" unicode="K" horiz-adv-x="662" 
d="M190 0q17 0 28 11t11 24v271l275 -291q15 -15 37 -15h77q16 0 27.5 8t11.5 22q0 8 -3.5 14t-7.5 10l-326 334l293 335q10 13 10 22q0 14 -11.5 22t-26.5 8h-72q-10 0 -20 -4.5t-16 -11.5l-248 -285v265q0 14 -11 25t-29 11h-55q-19 0 -29 -11t-10 -25v-704
q0 -14 11 -24.5t29 -10.5h55z" />
    <glyph glyph-name="L" unicode="L" horiz-adv-x="538" 
d="M468 0q18 0 28.5 11t10.5 24v47q0 14 -11 25t-29 11h-238v621q0 14 -11 25t-29 11h-55q-19 0 -29 -11t-10 -25v-704q0 -14 11 -24.5t29 -10.5h333z" />
    <glyph glyph-name="M" unicode="M" horiz-adv-x="976" 
d="M95 41q0 -16 11.5 -28.5t33.5 -12.5h49q18 0 29 11t11 25v425l189 -436q5 -11 16.5 -18t25.5 -7h56q15 0 25.5 7t15.5 18l191 438v-427q0 -14 11 -25t29 -11h54q18 0 29 11t11 25v703q0 14 -11 25t-29 11h-69q-15 0 -25 -6.5t-15 -17.5l-245 -560l-244 559q-11 25 -51 25
h-53q-21 0 -33 -12.5t-12 -28.5v-693z" />
    <glyph glyph-name="N" unicode="N" horiz-adv-x="827" 
d="M95 36q0 -14 11 -25t29 -11h54q18 0 29 11t11 25v509l358 -527q5 -7 16 -12.5t21 -5.5h68q18 0 29 11t11 25v703q0 13 -10 24.5t-29 11.5h-54q-19 0 -29.5 -11t-10.5 -25v-510l-358 526q-13 20 -37 20h-69q-19 0 -29.5 -11t-10.5 -25v-703z" />
    <glyph glyph-name="O" unicode="O" horiz-adv-x="917" 
d="M234 729q-93 -55 -139.5 -145.5t-46.5 -196.5t46 -196.5t139 -145t227 -54.5q133 0 225.5 55t139 145t46.5 196t-46.5 196.5t-139 145.5t-225.5 55t-226 -55zM611.5 625.5q62.5 -37.5 93.5 -100.5t31 -138t-31 -137.5t-93.5 -100t-151.5 -37.5q-90 0 -152.5 37.5t-94 100
t-31.5 137.5t31.5 138t94 100.5t152.5 37.5q89 0 151.5 -37.5z" />
    <glyph glyph-name="P" unicode="P" horiz-adv-x="648" 
d="M190 0q18 0 29 11t11 25v276h138q85 0 145.5 29t92 81t31.5 121t-31.5 121.5t-92.5 81.5t-145 29h-232q-19 0 -30 -11t-11 -25v-703q0 -14 11 -25t29 -11h55zM370 658q66 0 99 -30t33 -86q0 -112 -132 -112h-140v228h140z" />
    <glyph glyph-name="Q" unicode="Q" horiz-adv-x="906" 
d="M577 4q48 -64 107 -106t136 -42q52 0 110 22l17 7q6 2 10.5 4.5t7.5 4.5q23 15 23 35q0 13 -15 34q-14 18 -23 25q-14 14 -34 14q-9 0 -24 -5l-7 -3l-5 -3q-32 -10 -56 -10q-36 0 -66 20t-58 54q88 56 129.5 144t41.5 188q0 106 -46.5 196.5t-139 145.5t-225.5 55
t-226 -55t-139.5 -145.5t-46.5 -196.5t46 -196.5t139 -145t227 -54.5q62 0 117 13zM503 115q-21 -3 -43 -3q-90 0 -152.5 37.5t-94 100t-31.5 137.5t31.5 138t94 100.5t152.5 37.5q89 0 151.5 -37.5t93.5 -100.5t31 -138q0 -68 -26.5 -128t-81.5 -98l-114 178q-11 20 -35 20
q-9 0 -34 -9.5t-35 -14.5q-11 -6 -16.5 -14t-5.5 -19q0 -4 2 -8l4 -8l12 -22l39 -62z" />
    <glyph glyph-name="R" unicode="R" horiz-adv-x="657" 
d="M190 0q18 0 29 11t11 25v276h60l183 -293q12 -19 36 -19h71q16 0 27.5 8.5t11.5 22.5q0 11 -91 147q-45 69 -95 143q91 21 136.5 80.5t45.5 141.5q0 106 -70.5 169t-197.5 63h-212q-19 0 -29.5 -11t-10.5 -25v-703q0 -14 11 -25t29 -11h55zM349 658q66 0 99 -30t33 -86
q0 -112 -132 -112h-119v228h119z" />
    <glyph glyph-name="S" unicode="S" horiz-adv-x="662" 
d="M133 190q-12 2 -17 2q-14 0 -29 -16.5t-26 -37t-11 -27.5q0 -12 10 -24q42 -46 120.5 -71.5t154.5 -25.5q131 0 204.5 60t73.5 169q0 85 -51.5 131.5t-138.5 74.5q-15 5 -32 9.5t-36 10.5q-33 8 -70 20q-65 22 -84 53q-11 18 -11 45q0 44 41.5 71.5t98.5 27.5
q82 0 150 -49l3 -3l4 -4q11 -8 18 -9l5 -2h8q14 0 21.5 5.5t13.5 14.5q8 10 16 29q12 22 12 35q0 15 -12 27q-41 38 -104.5 58t-128.5 20q-77 0 -141 -28t-101.5 -78.5t-37.5 -115.5q0 -99 66.5 -156t186.5 -87q48 -11 57 -14q29 -7 56 -20q56 -26 56 -69q0 -50 -37.5 -77
t-100.5 -27q-56 0 -107.5 19.5t-89.5 54.5l-4 4h-6z" />
    <glyph glyph-name="T" unicode="T" horiz-adv-x="632" 
d="M249 658v-623q0 -13 10.5 -24t28.5 -11h55q17 0 28.5 11t11.5 24v623h199q18 0 29 11t11 25v45q0 14 -11 25t-29 11h-532q-19 0 -29 -11.5t-10 -24.5v-46q0 -13 10.5 -24t28.5 -11h199z" />
    <glyph glyph-name="U" unicode="U" horiz-adv-x="779" 
d="M95 309q0 -83 28.5 -154.5t94.5 -117.5t173 -46q106 0 171.5 45.5t93.5 117.5t28 154v431q0 14 -10.5 25t-29.5 11h-55q-18 0 -29 -11.5t-11 -24.5v-431q0 -85 -35.5 -140.5t-122.5 -55.5t-124.5 56t-37.5 140v431q0 13 -10.5 24t-28.5 11h-57q-19 0 -28.5 -11t-9.5 -24
v-430z" />
    <glyph glyph-name="V" unicode="V" horiz-adv-x="746" 
d="M16.5 765q-11.5 -9 -11.5 -24q0 -7 22.5 -61t29.5 -72q2 -7 14 -35l75 -177l109 -257l31 -74l7 -19q5 -14 10 -21q7 -11 16 -18t26 -7h55q16 0 25.5 6.5t16.5 17.5q4 6 6 10.5t3 7.5l5 15l35 81l108 258l75 178q66 159 66 168q0 15 -11.5 23.5t-27.5 8.5h-64
q-14 0 -24.5 -7t-14.5 -18l-225 -559l-226 559q-5 11 -16 18t-25 7h-61q-17 0 -28.5 -9z" />
    <glyph glyph-name="W" unicode="W" horiz-adv-x="982" 
d="M15.5 765.5q-10.5 -9.5 -10.5 -22.5q0 -3 2 -11l218 -705q3 -11 14.5 -19t26.5 -8h45q15 0 26.5 8t14.5 20l138 515l137 -515q3 -11 14 -19.5t26 -8.5h49q15 0 25 8t15 18q3 8 6.5 20.5t5.5 19.5l104 332l80 260q8 24 13 42l8 25q2 8 2 10l2 8q0 13 -10.5 22.5t-27.5 9.5
h-60q-15 0 -24 -8t-13 -19l-147 -499l-134 497q-3 12 -15 20.5t-27 8.5h-60q-16 0 -26.5 -8.5t-13.5 -20.5l-133 -493l-145 493q-4 12 -14.5 20.5t-26.5 8.5h-58q-16 0 -26.5 -9.5z" />
    <glyph glyph-name="X" unicode="X" horiz-adv-x="672" 
d="M112 0q11 0 21.5 5t16.5 13l184 257l176 -257q6 -9 16.5 -13.5t22.5 -4.5h72q15 0 26.5 8t11.5 22q0 13 -120 181q-98 138 -126 176l248 338q7 9 7 19q0 14 -11.5 22t-26.5 8h-70q-12 0 -22.5 -5t-16.5 -14l-184 -258l-175 259q-13 19 -37 19h-74q-15 0 -26.5 -8
t-11.5 -22q0 -7 33 -56.5t72 -105.5q5 -6 8 -11t6 -9q65 -95 111 -157l14 -20l-127 -173l-84 -115q-27 -36 -35 -51l-4 -6q-2 -4 -2 -11q0 -13 11 -21.5t26 -8.5h70z" />
    <glyph glyph-name="Y" unicode="Y" horiz-adv-x="661" 
d="M17 765q-12 -9 -12 -23q0 -10 5 -18l171 -281q3 -5 29 -43l18 -26q30 -44 35 -66q1 -3 1 -16q-1 -7 -1 -19v-92l1 -145q0 -14 11 -25t29 -11h54q18 0 29 11t11 25v266q0 4 -1 6q3 14 35 65l17 25q20 26 31 45l171 281q5 10 5 18q0 14 -11 23t-28 9h-63q-14 0 -25.5 -6.5
t-16.5 -16.5l-181 -313l-182 313q-6 10 -16.5 16.5t-24.5 6.5h-63q-16 0 -28 -9z" />
    <glyph glyph-name="Z" unicode="Z" horiz-adv-x="657" 
d="M587 0q18 0 29 11t11 25v46q0 14 -11 25t-29 11h-358l379 601q7 12 7 21q0 15 -12 25t-30 10h-494q-19 0 -29.5 -11t-10.5 -25v-46q0 -14 11 -24.5t29 -10.5h333l-380 -605q-6 -12 -6 -20q0 -16 13 -24.5t30 -8.5h518z" />
    <glyph glyph-name="bracketleft" unicode="[" horiz-adv-x="419" 
d="M317 -168q18 0 29 11t11 24v42q0 13 -11 24.5t-29 11.5h-104v718h104q18 0 29 11t11 24v41q0 14 -11 25t-29 11h-193q-19 0 -29.5 -11t-10.5 -25v-872q0 -14 10.5 -24.5t29.5 -10.5h193z" />
    <glyph glyph-name="backslash" unicode="\" horiz-adv-x="450" 
d="M420 0q17 0 28 9.5t11 23.5q0 9 -73 173q-70 160 -84 187l-154 347q-3 6 -8.5 19t-10.5 22q-14 23 -38 23h-51q-17 0 -28 -9.5t-11 -23.5q0 -10 73 -174q59 -133 84 -187l120 -270l35 -77l8 -20q7 -16 11 -22q5 -9 15 -15t24 -6h49z" />
    <glyph glyph-name="bracketright" unicode="]" horiz-adv-x="419" 
d="M295 -168q19 0 29.5 10.5t10.5 24.5v872q0 14 -11 25t-29 11h-192q-19 0 -29.5 -11t-10.5 -25v-41q0 -13 11 -24t29 -11h103v-717h-102q-19 0 -30 -11t-11 -25v-42q0 -14 10.5 -25t29.5 -11h192z" />
    <glyph glyph-name="asciicircum" unicode="^" horiz-adv-x="684" 
d="M160 270q13 0 23.5 6.5t15.5 16.5l143 321l143 -321q5 -10 15.5 -16.5t23.5 -6.5h57q17 0 28 9.5t11 23.5q0 8 -98 222q-96 209 -104 224q-12 25 -43 25h-67q-16 0 -25.5 -6.5t-15.5 -18.5q-8 -14 -105 -225q-98 -210 -98 -221q0 -14 11 -23.5t28 -9.5h57z" />
    <glyph glyph-name="underscore" unicode="_" horiz-adv-x="686" 
d="M583 -140q19 0 30 11t11 25v39q0 13 -11 24t-30 11h-480q-19 0 -29.5 -11t-10.5 -24v-39q0 -14 10.5 -25t29.5 -11h480z" />
    <glyph glyph-name="a" unicode="a" 
d="M475 32q9 -32 44 -32l24 -1q24 0 42 10t18 32v431q0 26 -27 36q-16 6 -42 6q-43 0 -55 -25q-2 -6 -4 -16q-66 50 -163 50q-88 0 -149 -38t-91 -98.5t-30 -129.5t30 -130t91 -99t149 -38q95 0 162 50zM432.5 364q41.5 -43 41.5 -107q0 -41 -18.5 -75t-54 -54.5
t-83.5 -20.5q-72 0 -111 43t-39 107t39.5 107t110.5 43q73 0 114.5 -43z" />
    <glyph glyph-name="b" unicode="b" 
d="M370 -10q88 0 149 38t91 99t30 130t-30 130t-91 98.5t-149 37.5q-97 0 -163 -50v261q0 26 -26 36q-13 5 -42 5q-23 0 -41.5 -9t-18.5 -32v-693q0 -27 27 -37q13 -5 43 -5q44 0 55 26q2 5 4 15q67 -50 162 -50zM474 364q39 -43 39 -107q0 -65 -39 -107.5t-111 -42.5
q-47 0 -82.5 20.5t-54 54.5t-18.5 75t18.5 75t53.5 54.5t83 20.5q72 0 111 -43z" />
    <glyph glyph-name="c" unicode="c" horiz-adv-x="596" 
d="M169 486.5q-63 -37.5 -95 -98.5t-32 -131t31 -131t93.5 -98.5t151.5 -37.5q75 0 135 29t97 82q7 11 7 20t-8 19q-6 7 -15 15q-13 13 -28 23q-12 9 -26 9q-13 0 -24 -7q-2 -1 -8 -7l-3 -4q-44 -62 -127 -62q-72 0 -111 43t-39 107q0 63 39.5 106t110.5 43q82 0 127 -62
l3 -4q2 -3 6 -6q13 -9 26 -9q6 0 12 3l10 5l20 14q25 21 29 27q6 9 6 18q0 10 -7 20q-34 52 -96 82t-133 30q-89 0 -152 -37.5z" />
    <glyph glyph-name="d" unicode="d" 
d="M477 31q3 -13 13.5 -22.5t29.5 -9.5h23q17 0 25 2q35 7 35 39v693q0 26 -26 36q-16 6 -42 6q-23 0 -41 -9.5t-18 -32.5v-260q-67 49 -162 49q-89 0 -150 -37.5t-91 -98.5t-30 -130t30 -130t91.5 -99t149.5 -38q94 0 161 50zM402.5 385.5q35.5 -20.5 54 -54.5t18.5 -75
q0 -64 -42 -107t-114 -43t-111 43t-39 107t39.5 107t110.5 43q48 0 83.5 -20.5z" />
    <glyph glyph-name="e" unicode="e" horiz-adv-x="637" 
d="M166.5 486q-62.5 -37 -93.5 -98t-31 -131q0 -72 33.5 -133t98.5 -97.5t156 -36.5q66 0 121.5 20.5t94.5 62.5q10 10 10 23q0 9 -14 25.5t-32 29.5t-30 13q-9 0 -17 -4q-7 -3 -12 -8l-25 -19q-38 -26 -96 -26q-56 0 -96 25t-56 69h378q18 0 29 11.5t11 24.5
q0 76 -28 140.5t-90 105t-160 40.5q-89 0 -151.5 -37zM177 312q15 44 51.5 69.5t89.5 25.5q54 0 90.5 -25.5t51.5 -69.5h-283z" />
    <glyph glyph-name="f" unicode="f" horiz-adv-x="378" 
d="M186 0q18 0 29 11t11 25v367h92q19 0 29.5 11t10.5 24v39q0 14 -10.5 25t-29.5 11h-92v102q0 31 8 55q12 29 32 29q16 0 40 -11q12 -6 16 -9l9 -3q6 -2 11 -2q21 0 34 18l18 26l9 15q5 13 5 17q0 9 -4 15.5t-13 12.5q-57 38 -127 38q-61 0 -98.5 -30t-53 -74t-15.5 -89
v-110h-51q-18 0 -29 -11t-11 -25q0 -32 1 -41q2 -19 16 -27q10 -7 35 -7q23 0 39 1l1 -367q0 -14 11 -25t29 -11h48z" />
    <glyph glyph-name="g" unicode="g" 
d="M312 523q-88 0 -149 -38t-91 -98.5t-30 -129.5t30 -130t91 -99t149 -38q95 0 163 51v-27q0 -66 -40 -105.5t-116 -39.5q-72 0 -135 37q-12 7 -27 8h-4l-4 -2q-15 -6 -33 -34t-18 -42q0 -19 18 -30q35 -24 94.5 -38.5t108.5 -14.5q91 0 155 36.5t96.5 97.5t32.5 133v452
q0 26 -27 36q-16 6 -42 6q-43 0 -55 -25q-2 -4 -4 -16q-66 50 -163 50zM432.5 364q41.5 -43 41.5 -107q0 -41 -18.5 -75t-54 -54.5t-83.5 -20.5q-72 0 -111 43t-39 107t39.5 107t110.5 43q73 0 114.5 -43z" />
    <glyph glyph-name="h" unicode="h" horiz-adv-x="646" 
d="M168 0q18 0 29 11t11 25v212q0 36 16 73t46.5 61.5t70.5 24.5q56 0 78 -30t22 -85v-257q0 -14 11 -24.5t29 -10.5h48q18 0 29 10.5t11 24.5v257q0 98 -51.5 164.5t-168.5 66.5q-86 0 -144 -47l-1 258q0 28 -27 36q-16 6 -42 6q-23 0 -40.5 -10t-17.5 -32l2 -699
q0 -13 11.5 -24t28.5 -11h49z" />
    <glyph glyph-name="i" unicode="i" horiz-adv-x="294" 
d="M87 720.5q-23 -22.5 -23 -54.5t22.5 -55t62.5 -23t61 23.5t21 54.5t-21.5 54t-60.5 23t-62 -22.5zM171 0q18 0 29 10.5t11 24.5v443q0 14 -11 24.5t-29 10.5h-48q-18 0 -29 -11t-11 -24v-443q0 -14 11.5 -24.5t29.5 -10.5h47z" />
    <glyph glyph-name="j" unicode="j" horiz-adv-x="316" 
d="M105.5 719.5q-22.5 -23.5 -22.5 -54.5t22.5 -54t61.5 -23q40 0 61.5 23t21.5 54t-21.5 54.5t-61.5 23.5q-39 0 -61.5 -23.5zM-42 -122q-15 -15 -25 -34t-10 -27q0 -15 13 -25q3 -3 11 -7l10 -6q54 -28 109 -28q60 0 97.5 30t53.5 74t16 89l-1 533q0 14 -11 25t-29 11h-47
q-19 0 -30 -11t-11 -25v-524q0 -31 -8 -55q-10 -29 -31 -29q-13 0 -39 10l-18 9q-12 5 -20 5q-15 0 -30 -15z" />
    <glyph glyph-name="k" unicode="k" horiz-adv-x="547" 
d="M168 0q17 0 28.5 11t11.5 24v160l188 -181q6 -6 16 -10t20 -4h72q16 0 28 8t12 23q0 14 -13 25l-228 220l194 181q13 13 13 26q0 15 -12 22.5t-28 7.5h-73q-20 0 -35 -13l-154 -151l-1 421q0 13 -11 23.5t-28 10.5h-49q-17 0 -28.5 -10t-11.5 -24v-735q0 -13 11.5 -24
t28.5 -11h49z" />
    <glyph glyph-name="l" unicode="l" horiz-adv-x="295" 
d="M172 0q17 0 28.5 11t11.5 24v705q0 14 -11.5 24t-28.5 10h-49q-17 0 -28 -10.5t-11 -23.5v-705q0 -14 11 -24.5t29 -10.5h48z" />
    <glyph glyph-name="m" unicode="m" horiz-adv-x="951" 
d="M196 493q-6 11 -20.5 15.5t-37.5 4.5t-40 -9.5t-17 -31.5v-437q0 -13 10 -24t28 -11h46q18 0 29 11t11 25v212q0 35 14 72t41.5 62t65.5 25q35 0 55.5 -14.5t28.5 -45.5q6 -24 6 -33v-278q0 -13 11 -24.5t29 -11.5h46q18 0 28 11t10 24v240q0 4 2 14l5 16
q12 43 39.5 72.5t69.5 29.5q50 0 68.5 -31t18.5 -84v-256q0 -14 11 -25t29 -11h49q18 0 29 11t11 25l-1 256q0 95 -46.5 163t-159.5 68q-51 0 -93.5 -19.5t-73.5 -53.5q-27 36 -69 54.5t-96 18.5q-78 0 -132 -45q-2 10 -5 15z" />
    <glyph glyph-name="n" unicode="n" horiz-adv-x="647" 
d="M199 494q-12 20 -60 20q-24 0 -42 -9.5t-18 -32.5v-437q0 -13 11.5 -24t28.5 -11h49q18 0 29 11t11 25v212q0 36 16 73t46.5 61.5t70.5 24.5q56 0 78 -30t22 -85v-257q0 -14 11 -24.5t29 -10.5h48q18 0 29.5 10.5t11.5 24.5v257q0 98 -52 164.5t-169 66.5q-86 0 -144 -47
q-2 12 -6 18z" />
    <glyph glyph-name="o" unicode="o" horiz-adv-x="637" 
d="M166.5 486q-62.5 -37 -93.5 -98t-31 -131t31 -131t93.5 -98.5t151.5 -37.5t152 37.5t94.5 98.5t31.5 131t-31.5 131t-94.5 98t-152 37t-151.5 -37zM429 364q39 -43 39 -107q0 -65 -39 -107.5t-111 -42.5t-111 43t-39 107t39.5 107t110.5 43q72 0 111 -43z" />
    <glyph glyph-name="p" unicode="p" 
d="M203 495q-8 11 -23.5 15.5t-39.5 4.5q-23 0 -41 -10t-18 -32v-693q0 -26 26 -36q13 -6 43 -6q23 0 40.5 10t17.5 32v261q66 -50 163 -50q88 0 149 37.5t91 98.5t30 130t-30 130t-91 99t-149 38q-97 0 -162 -50q0 11 -6 21zM475 364q39 -43 39 -107q0 -65 -39 -107.5
t-111 -42.5t-113 43t-41 107q0 41 18 75t53 54.5t83 20.5q72 0 111 -43z" />
    <glyph glyph-name="q" unicode="q" 
d="M314 524q-88 0 -149.5 -38t-91.5 -99t-30 -130t30 -130t91.5 -98.5t149.5 -37.5q96 0 162 50v-261q0 -15 12 -28t33 -13h22q17 0 26 2q16 3 25 13t9 26v693q0 27 -27 37q-13 5 -42 5q-44 0 -55 -26q-4 -10 -4 -15q-67 50 -161 50zM402.5 386.5q35.5 -20.5 54 -54.5
t18.5 -75q0 -64 -42 -107t-114 -43t-111 43t-39 107t39.5 107t110.5 43q48 0 83.5 -20.5z" />
    <glyph glyph-name="r" unicode="r" horiz-adv-x="415" 
d="M204 482q-4 13 -14.5 22t-29.5 9h-35q-20 0 -33 -13t-13 -28v-437q0 -13 11.5 -24t28.5 -11h49q18 0 29 11t11 25v212q0 36 16 73t46.5 61.5t70.5 24.5h7q2 1 8 1q10 3 17 10q9 9 15.5 30t6.5 33q0 14 -13 28t-32 14q-87 0 -145 -47z" />
    <glyph glyph-name="s" unicode="s" horiz-adv-x="485" 
d="M98 149q-15 0 -29 -14.5t-23 -33t-9 -26.5q0 -17 14 -29l12 -9l12 -6q73 -40 165 -40q88 0 148 41.5t60 115.5q0 67 -40 102t-106 56l-51 14q-8 3 -18.5 6t-23.5 8q-34 15 -34 37q0 18 19.5 27t49.5 9q51 0 98 -28l8 -4q10 -4 14 -4q21 0 34 19q12 20 16 27q9 20 9 32
q0 15 -14 26q-29 24 -74 36.5t-89 12.5q-55 0 -101 -19t-72.5 -54t-26.5 -82q0 -67 40 -102t107 -56l51 -15q30 -8 42 -14q35 -13 35 -36q0 -19 -23.5 -29.5t-56.5 -10.5q-30 0 -62.5 9.5t-55.5 25.5l-4 2l-6 3q-6 3 -15 3z" />
    <glyph glyph-name="t" unicode="t" horiz-adv-x="394" 
d="M102 403v-218q0 -77 31.5 -136t120.5 -59q62 0 116 43q15 12 15 26q0 8 -6 16q-2 5 -10 17q-6 8 -20 26q-13 15 -33 15q-11 0 -21 -6t-15 -10q-17 -10 -23 -10q-14 0 -22 28q-3 15 -3 29q-1 10 -1 24v215h93q18 0 29 10.5t11 23.5v40q0 14 -10.5 25t-29.5 11h-93v137
q0 13 -11 23.5t-28 10.5h-50q-19 0 -29 -11t-10 -25v-135h-52q-18 0 -29 -11t-11 -25v-40q0 -13 11.5 -23.5t28.5 -10.5h51z" />
    <glyph glyph-name="u" unicode="u" horiz-adv-x="647" 
d="M444 32q9 -32 44 -32l22 -1q24 0 42 10t18 32v437q0 14 -11.5 24.5t-29.5 10.5h-48q-20 0 -30 -11t-10 -25v-213q0 -35 -16.5 -72t-47 -61.5t-70.5 -24.5q-55 0 -77 30t-22 84v258q0 14 -11 24.5t-29 10.5h-50q-18 0 -28.5 -11t-10.5 -24v-256q0 -99 52 -165.5t169 -66.5
q86 0 143 48q1 -2 1 -6z" />
    <glyph glyph-name="v" unicode="v" horiz-adv-x="542" 
d="M297 0q27 0 41 25q6 11 13 28t11 25q10 25 11 27l68 154q12 25 49 112q44 101 44 109q0 14 -11 23.5t-29 9.5h-56q-15 0 -26.5 -8t-15.5 -19l-125 -307l-126 308q-4 11 -14.5 18.5t-25.5 7.5h-58q-17 0 -28 -9.5t-11 -23.5q0 -11 43 -109l49 -112l71 -162l23 -51
q3 -8 4 -10q1 -6 5 -11q15 -25 42 -25h52z" />
    <glyph glyph-name="w" unicode="w" horiz-adv-x="736" 
d="M18.5 504q-10.5 -9 -10.5 -22l1 -6l1 -6l5 -17l8 -27l51 -164l48 -155l12 -38q8 -28 13 -42q10 -27 40 -27h58q14 0 26.5 8.5t16.5 19.5l81 275l81 -275q4 -12 14.5 -20t26.5 -8h58q15 0 26 8t14 19l136 444q1 1 1 4q1 3 1 7q0 13 -10 22t-26 9h-59q-16 0 -27 -8.5
t-14 -20.5l-74 -274l-83 274q-3 12 -14 20.5t-27 8.5h-51q-16 0 -27 -8.5t-14 -20.5l-83 -274l-74 274q-3 12 -13.5 20.5t-26.5 8.5h-59q-16 0 -26.5 -9z" />
    <glyph glyph-name="x" unicode="x" horiz-adv-x="547" 
d="M128 0q13 0 25 5.5t18 14.5l99 132l102 -132q7 -9 18.5 -14.5t24.5 -5.5h65q16 0 27.5 8t11.5 22q0 11 -9 22l-160 205l169 204q8 8 8 21q0 14 -11.5 22.5t-27.5 8.5h-64q-27 0 -42 -20l-109 -138l-106 138q-6 9 -17.5 14.5t-24.5 5.5h-65q-16 0 -28 -8.5t-12 -22.5
q0 -8 9 -22l163 -209q-15 -17 -85 -105q-28 -35 -55 -71q-17 -24 -18 -26l-5 -9q-3 -4 -3 -10q0 -14 11 -22t27 -8h64z" />
    <glyph glyph-name="y" unicode="y" horiz-adv-x="548" 
d="M122.5 -228.5q11.5 -9.5 28.5 -9.5h50q27 0 41 25l150 345l37 87q108 251 108 260q0 14 -11.5 24t-29.5 10h-55q-15 0 -26 -7.5t-16 -18.5l-128 -303l-122 302q-5 12 -16 19.5t-26 7.5h-56q-17 0 -28.5 -9t-11.5 -24q0 -9 35 -90t41 -96l13 -30q12 -26 27 -61t34 -76
l44 -100q-6 -16 -29 -67l-22 -52q-43 -102 -43 -113q0 -14 11.5 -23.5z" />
    <glyph glyph-name="z" unicode="z" horiz-adv-x="540" 
d="M451 0q19 0 29.5 11t10.5 25v38q0 15 -10.5 25.5t-29.5 10.5h-207l235 347q8 12 8 22q0 15 -12.5 24.5t-30.5 9.5h-342q-19 0 -29.5 -11t-10.5 -25v-40q0 -14 11 -24t29 -10h191l-236 -349q-7 -10 -7 -21q0 -16 12.5 -24.5t29.5 -8.5h359z" />
    <glyph glyph-name="braceleft" unicode="{" horiz-adv-x="450" 
d="M348 -170q18 0 29 11t11 25v43q0 16 -11 24.5t-26 10.5q-10 2 -16 2l-10 -1h-21l-1 1q-2 2 -5 10q-4 12 -4 40v166q0 40 -15 76.5t-46 63.5q31 27 46 64t15 76v167q0 28 4 39q3 8 5 10l2 1l20 -1q17 0 26 1q37 6 37 36v43q0 14 -11 25t-29 11h-46q-77 0 -107 -50.5
t-30 -114.5v-172q0 -24 -10 -45.5t-30 -30.5q-1 0 -2 -0.5t-3 -0.5q-4 -2 -8 -2q-13 -4 -20.5 -12t-7.5 -20v-45q0 -25 29 -34q27 -8 39.5 -29t12.5 -51v-171q0 -65 30 -115.5t107 -50.5h46z" />
    <glyph glyph-name="braceright" unicode="}" horiz-adv-x="450" 
d="M149 -170q77 0 106.5 50.5t29.5 115.5v171q0 64 54 80q28 8 28 33v44q0 23 -27 33l-10 3q-2 0 -3 0.5t-2 0.5q-20 9 -30 30.5t-10 45.5v172q0 65 -29.5 115t-106.5 50h-46q-19 0 -29.5 -11t-10.5 -25v-43q0 -14 11 -25t29 -11h42l2 -2q4 -4 6 -14q3 -13 3 -34l-1 -167
q0 -39 15.5 -76t46.5 -64q-32 -27 -47 -63.5t-15 -76.5q0 -19 1 -34l1 -75q0 -82 -5 -96q-3 -8 -5 -10l-1 -1h-43q-18 0 -29 -11t-11 -25v-44q0 -14 10.5 -25t29.5 -11h46z" />
    <glyph glyph-name="asciitilde" unicode="~" horiz-adv-x="664" 
d="M223 273q17 0 35 -14q6 -4 20 -16l22 -20q30 -26 62.5 -42t77.5 -16q66 0 112.5 44t66.5 100q2 8 2 12q0 14 -11 27q-7 8 -25 25l-16 13q-13 8 -22 8q-19 0 -30 -14q-5 -7 -11 -21l-8 -19q-15 -26 -24 -34q-13 -15 -32 -15q-18 0 -35 13q-1 1 -20 17l-21 20
q-30 26 -62.5 41.5t-79.5 15.5q-66 0 -110.5 -43.5t-66.5 -99.5q-3 -6 -3 -13q0 -8 6 -18l13 -16l25 -25q13 -13 30 -13q18 0 28 12q3 2 7 10l5 11q3 7 5.5 12.5t3.5 8.5q16 27 23 35q16 14 33 14z" />
    <glyph glyph-name="cent" unicode="&#xa2;" horiz-adv-x="715" 
d="M458 -8q48 6 91.5 25t73.5 49q12 14 12 28q0 13 -18 35q-7 7 -28 25q-15 11 -31 11q-17 0 -32 -11q-34 -25 -60 -35t-65 -10q-54 0 -94 22t-60.5 59.5t-20.5 83.5t21 83t60.5 59t93.5 22q60 0 102 -29q3 -1 5 -3l4 -4l5 -4l7 -5q14 -9 30 -9q18 0 31 11q17 13 28 25
q18 20 18 35t-12 27q-28 29 -71 47.5t-90 25.5v63q0 15 -13 28t-33 13h-53q-20 0 -33 -12.5t-13 -28.5v-68q-73 -17 -126 -58.5t-81 -98t-28 -119.5t27.5 -120t81 -98.5t126.5 -58.5v-69q0 -15 13 -28t33 -13h53q20 0 33 13t13 28v64z" />
    <glyph glyph-name="sterling" unicode="&#xa3;" horiz-adv-x="763" 
d="M308 309h256q20 0 33 12.5t13 28.5v45q0 16 -12.5 28.5t-33.5 12.5h-256v60q0 58 40 96t108 38q57 0 96 -27l8 -6q6 -6 10 -8q13 -11 31 -11q6 0 21 5l19 11q5 3 31 20q21 14 21 33q0 15 -12 27q-36 40 -99 62.5t-126 22.5q-89 0 -157 -35.5t-105 -95.5t-37 -132v-60h-51
q-20 0 -32.5 -13t-12.5 -28q0 -36 1 -47q2 -20 14 -30q10 -7 38 -9h43v-182h-51q-21 0 -33 -13t-12 -28v-45q0 -15 12 -28t33 -13h548q21 0 33.5 12.5t12.5 28.5v45q0 15 -12.5 28t-33.5 13h-346v182z" />
    <glyph glyph-name="yen" unicode="&#xa5;" horiz-adv-x="858" 
d="M607 436l182 236q10 13 10 28q0 18 -14.5 31t-37.5 13h-64q-11 0 -21 -4.5t-16 -11.5l-217 -294l-217 294q-12 16 -36 16h-64q-23 0 -37.5 -13.5t-14.5 -31.5q0 -14 10 -27l181 -236h-77q-20 0 -32.5 -13t-12.5 -28l-1 -18q0 -16 2 -24q7 -35 44 -35h167l14 -18v-30h-181
q-21 0 -33 -13t-12 -28q0 -11 -1 -18q0 -16 2 -24q7 -36 44 -36h181v-110q0 -16 12.5 -28.5t33.5 -12.5h59q21 0 33 13t12 28v110h181q21 0 33 13t12 29l1 18q0 16 -2 23q-3 15 -13 25.5t-31 10.5h-181v30l13 18h168q20 0 32.5 12t12.5 28l1 18q0 16 -2 24q-3 15 -13.5 25.5
t-30.5 10.5h-79z" />
    <glyph glyph-name="copyright" unicode="&#xa9;" horiz-adv-x="1074" 
d="M306.5 706q-99.5 -51 -154 -139t-54.5 -194t54 -194t154 -139.5t230 -51.5q131 0 230.5 51.5t154 139.5t54.5 194t-54.5 194t-154.5 139t-230 51t-229.5 -51zM699 611q70 -36 107.5 -98.5t37.5 -139.5t-37.5 -140t-107.5 -99t-163 -36q-94 0 -163.5 36t-106.5 99t-37 140
t37.5 139.5t107.5 98.5t162 36q93 0 163 -36zM404 579.5q-57 -33.5 -86.5 -88.5t-29.5 -118q0 -62 28.5 -117.5t84.5 -89.5t136 -34q64 0 121 27t87 74q6 9 6 19t-12.5 24.5t-29.5 25.5t-29 11q-14 0 -25 -8q-1 -1 -6 -5l-3 -4q-21 -27 -47 -40t-62 -13q-62 0 -96 37t-34 93
t33.5 92.5t96.5 36.5q36 0 62 -13.5t47 -40.5l3 -3q2 -3 6 -6q11 -8 25 -8q11 0 28 11t30 26t13 24q0 10 -6 19q-28 46 -84.5 74t-119.5 28q-80 0 -137 -33.5z" />
    <glyph glyph-name="registered" unicode="&#xae;" horiz-adv-x="1074" 
d="M306.5 706q-99.5 -51 -154 -139t-54.5 -194t54 -194t154 -139.5t230 -51.5q131 0 230.5 51.5t154 139.5t54.5 194t-54.5 194t-154.5 139t-230 51t-229.5 -51zM699 611q70 -36 107.5 -98.5t37.5 -139.5t-37.5 -140t-107.5 -99t-163 -36q-94 0 -163.5 36t-106.5 99t-37 140
t37.5 139.5t107.5 98.5t162 36q93 0 163 -36zM449 136q18 0 29 11.5t11 24.5v146h9l100 -162q14 -20 37 -20h41q17 0 28.5 9t11.5 24q0 4 -2 8q0 2 -1 3.5t-2 3.5q-2 3 -4 7.5t-7 11.5l-33 53q-23 35 -50 74q49 17 73 54t24 84q0 67 -46 108.5t-127 41.5h-123
q-18 0 -29.5 -11t-11.5 -25v-410q0 -14 11 -25t30 -11h31zM542 519q31 0 46 -12.5t15 -38.5q0 -27 -14.5 -39t-46.5 -12h-53v102h53z" />
    <glyph glyph-name="multiply" unicode="&#xd7;" horiz-adv-x="560" 
d="M188 332l-116 -113q-10 -10 -10 -24q0 -15 11 -25l38 -37q14 -12 30 -12t30 12l112 108l108 -107q11 -11 30 -11q18 0 29 11l36 35q10 10 10 25q0 14 -10 24l-115 110l116 113q11 9 11 24t-11 24l-38 37q-12 12 -30 12t-30 -12l-111 -108l-108 108q-11 11 -30 11t-30 -11
l-36 -35q-10 -10 -10 -24q0 -15 10 -25z" />
    <glyph glyph-name="divide" unicode="&#xf7;" horiz-adv-x="651" 
d="M550 270q18 0 29 11.5t11 24.5v48q0 14 -11 25t-29 11h-193q26 8 39.5 29t13.5 45q0 31 -21.5 54t-60.5 23q-40 0 -62.5 -23t-22.5 -54q0 -24 14.5 -45t40.5 -29h-196q-18 0 -29 -11t-11 -25v-48q0 -14 11 -25t29 -11h193q-25 -8 -38.5 -28t-13.5 -44q0 -31 22.5 -54
t62.5 -23q39 0 60.5 23t21.5 54q0 23 -13 43t-37 29h190z" />
    <glyph glyph-name="endash" unicode="&#x2013;" horiz-adv-x="685" 
d="M562 270q18 0 29 11.5t11 24.5v48q0 14 -11 25t-29 11h-438q-18 0 -29 -11t-11 -25v-48q0 -14 11 -25t29 -11h438z" />
    <glyph glyph-name="emdash" unicode="&#x2014;" horiz-adv-x="971" 
d="M847 269q18 0 29 11t11 25v48q0 14 -11 25t-29 11h-723q-18 0 -29 -11t-11 -25v-48q0 -14 10.5 -25t29.5 -11h723z" />
    <glyph glyph-name="quoteleft" unicode="&#x2018;" horiz-adv-x="285" 
d="M60.5 760.5q-20.5 -34.5 -20.5 -76.5q0 -60 33.5 -123.5t90.5 -94.5q12 -6 22 -6q14 0 27.5 10.5t22.5 24.5t9 23q0 13 -12 25l-24 20q-31 32 -42 69q27 9 41 31t14 47q0 34 -22.5 59.5t-65.5 25.5q-53 0 -73.5 -34.5z" />
    <glyph glyph-name="quoteright" unicode="&#x2019;" horiz-adv-x="286" 
d="M41 518q0 -9 9 -23t22.5 -24.5t27.5 -10.5q11 0 21 6q38 20 66 57.5t43 81t15 80.5q0 42 -20.5 76t-72.5 34q-43 0 -66 -25.5t-23 -59.5q0 -25 14 -47t42 -31q-11 -38 -43 -69q-5 -5 -11.5 -10t-11.5 -10q-12 -12 -12 -25z" />
    <glyph glyph-name="quotedblleft" unicode="&#x201c;" horiz-adv-x="448" 
d="M215 745q-9 22 -29 36t-51 14q-53 0 -73.5 -34.5t-20.5 -76.5q0 -60 33.5 -123.5t90.5 -94.5q12 -6 22 -6q14 0 27.5 10.5t22.5 24.5t9 23q0 13 -12 25l-24 20q-33 33 -43 69q24 8 39 28q7 -57 40.5 -113.5t82.5 -80.5q12 -6 21 -6q14 0 27.5 10.5t22.5 24.5t9 22
q0 16 -14 26q-26 23 -41.5 43.5t-22.5 45.5q28 9 42 31t14 47q0 33 -23.5 59t-65.5 26q-59 0 -83 -50z" />
    <glyph glyph-name="quotedblright" unicode="&#x201d;" horiz-adv-x="448" 
d="M41 518q0 -9 9 -23t22.5 -24.5t27.5 -10.5q11 0 21 6q50 26 82.5 81.5t39.5 111.5q14 -18 39 -27q-5 -19 -21 -43l-20 -22l-25 -24q-12 -12 -12 -25q0 -9 8.5 -23t22 -24.5t27.5 -10.5q10 0 22 6q38 20 66 57.5t43 81t15 80.5q0 42 -20.5 76t-72.5 34q-30 0 -51 -14
t-30 -36q-22 50 -82 50q-43 0 -66 -25.5t-23 -59.5q0 -25 14 -47t42 -31q-11 -38 -43 -69q-5 -5 -11.5 -10t-11.5 -10q-12 -12 -12 -25z" />
    <glyph glyph-name="Euro" unicode="&#x20ac;" horiz-adv-x="906" 
d="M300 55.5q98 -67.5 233 -67.5q81 0 156.5 28t122.5 80q11 13 11 26q0 18 -15 31q-12 12 -28 24q-11 9 -19 13q-11 7 -23 7q-19 0 -34 -13q-41 -36 -79 -51.5t-92 -15.5q-70 0 -123 30t-84 84h281q33 0 43 27q4 9 4 20v17q0 20 -7 33q-11 21 -40 21h-316v24v24h316
q21 0 33.5 12.5t12.5 27.5l1 19q0 16 -1 24q-9 35 -46 35h-280q30 53 83.5 84t122.5 31q79 0 137 -47l6 -6q4 -3 7 -7q3 -2 7.5 -6.5t9.5 -7.5q15 -11 32 -11q18 0 32 12q12 9 15 12q12 10 17 16q22 22 22 39q0 16 -20 36l-16 14q-15 12 -14 11q-99 72 -234 72
q-90 0 -165.5 -31t-128.5 -86t-79 -125h-66q-20 0 -32.5 -12.5t-12.5 -28.5v-37q0 -15 12.5 -27.5t32.5 -12.5h42v-24v-24q-11 1 -28 1q-21 0 -34 -5q-16 -6 -21 -22q-5 -12 -5 -38q0 -20 7 -32q11 -22 39 -22h66q41 -108 139 -175.5z" />
    <glyph glyph-name="trademark" unicode="&#x2122;" horiz-adv-x="622" 
d="M217 507q0 -20 15 -28t35 -8q18 0 30.5 9t12.5 26v32l1 -1l6 -12l-6 4l20 -40q10 -18 41 -18q8 0 12 1q9 0 13 2q17 5 23 19l19 43v-30q0 -35 50 -35q19 0 31 9.5t12 25.5v239q0 21 -15 27.5t-36 6.5q-36 0 -46 -22l-61 -140l-61 141q-4 12 -25 19q-9 2 -26 2
q-13 0 -24 -4q-8 2 -13 2h-180q-25 0 -34 -18q-5 -9 -5 -26q0 -14 9 -26t30 -12h42v-191q0 -35 51 -35q18 0 31 9t13 26v190h18h17v-187z" />
    <glyph glyph-name="minus" unicode="&#x2212;" horiz-adv-x="651" 
d="M102 390q-18 0 -29 -11t-11 -25v-48q0 -14 11 -25t29 -11h448q18 0 29 11.5t11 24.5v48q0 14 -11 25t-29 11h-448z" />
    <glyph glyph-name="_FSHallmark" horiz-adv-x="980" 
d="M92 784h819v-96h-819v96zM805 505q0 10 -7 22q-9 10 -18 17q-16 8 -23 10q-5 1 -11 2t-13 1q-24 0 -47 -12q-20 -13 -20 -29q0 -29 18 -40q25 -13 44 -17l65 -15q17 -6 29 -7q5 -1 24 -6q5 -3 10.5 -5.5t10.5 -5.5q21 -13 31 -27q12 -19 12 -48q0 -22 -10 -44
q-25 -41 -72 -58q-48 -15 -93 -15q-39 0 -67 9q-26 7 -57 27q-25 18 -42 47q-15 27 -15 64l95 -2q0 -5 4 -14q2 -15 14 -26q11 -11 25 -17q17 -9 46 -9q33 0 52 12q20 9 20 25q0 30 -78 46q-74 18 -120 43q-49 26 -49 82q0 48 32 74t72 39q34 8 68 8q48 0 93 -18
q44 -18 65 -65q11 -27 11 -48h-99zM200 228h-108v407h345v-93h-237v-91h197v-91h-197v-132zM442 312q13 13 35 13q20 0 39 -14q16 -13 16 -34q0 -19 -16 -34q-17 -13 -39 -13q-19 0 -34 15q-15 14 -15 32q0 21 14 35zM90 177h820v-97h-820v97z" />
    <glyph glyph-name="_Fontastica" horiz-adv-x="980" 
d="M283 147h-113q-1 2 -1 5v664h497v-102h-383v-273h384v-103h-384v-191zM355 626h385v190h113v-667h-498v101h385v273h-385v103zM733 72q0 -9 5 -14q5 -6 12 -6q9 0 18 6l6 -6q-9 -11 -24 -11q-10 0 -21 6q-6 8 -9 21v3q0 11 8 19q10 10 22 10q14 0 24 -10l-6 -8q-1 2 -3 3
t-3 2q-1 2 -9 2h-3q-9 -4 -10 -7q-7 -3 -7 -10zM170 99h42v-10h-27v-16h26v-9h-26v-22h-15v57zM293 84q4 -5 4 -14q0 -8 -2 -12q-6 -16 -25 -17l-7 -3q-8 0 -12 4q-18 8 -18 25q0 15 9 23q6 9 22 9q19 0 29 -15zM374 42h-3l-4 -1q-5 0 -9 6l-6 8q-1 2 -2.5 4t-2.5 4l-12 14
v-35h-13v57h11q4 -1 6 -8l13 -14q2 -3 4.5 -7.5t6.5 -9.5v39h11v-57zM399 99h48v-10h-18v-47h-12v47h-18v10zM589 59v-3q0 -10 -10 -14q-2 -1 -11 -1q-19 0 -27 9l1 2l1 2q0 2 2 4l18 -6h8q1 2 2.5 3t1.5 0q0 9 -13 12q-2 0 -3 1t-5 1q-5 1 -7 4t-2 9l-1 4q0 7 9 11
q6 2 13 2q14 0 23 -5l-5 -10l-4 1l-3 1q-1 1 -4 1q-1 0 -2 2h-8q-4 0 -4 -4v-1q0 -3 4 -7q6 -1 14 -5q12 -1 12 -13zM608 99h50v-10h-18v-47h-13v47h-19v10zM681 99h15v-57h-15v57zM832 99l12 -27q0 -2 6 -16q4 -10 7 -14h-13l-5 12h-28l-5 -12h-13q15 29 23 57h16zM497 97
q2 -6 6 -13q3 -4 4.5 -7.5t2.5 -5.5q1 -3 2.5 -7t2.5 -8t2.5 -7.5t2.5 -6.5h-13q-1 1 -1 5q0 1 -1 2.5t-2 4.5h-26q-1 -2 -1 -7l-1 -2l-3 -3h-12l24 55h13zM281 71q0 8 -4 13q-7 5 -14 5q-2 -2 -4 -2q-6 -1 -11 -9q-6 -7 -1 -14q4 -13 17 -13q4 0 5 1q12 3 12 17v2zM499 64
q-1 1 -1 2.5t-1 2.5l-1.5 3t-1.5 2q-1 2 -1 6q-1 1 -1.5 2.5t-1.5 2.5l-10 -21h19zM833 64q-1 1 -1 5q-2 5 -3 5l-2 6q-1 1 -1.5 2.5t-1.5 2.5l-9 -21h18z" />
    </font>
</defs>
</svg>
