<?xml version="1.0" standalone="no"?>
<!DOCTYPE svg PUBLIC "-//W3C//DTD SVG 1.1//EN" "http://www.w3.org/Graphics/SVG/1.1/DTD/svg11.dtd" >
<svg xmlns="http://www.w3.org/2000/svg" xmlns:xlink="http://www.w3.org/1999/xlink" version="1.1">
<metadata>
Created by FontForge 20170731 at Sat Jul 20 17:31:45 2019
 By Aleksey,,,
Copyright (c) 2019 by Fontastica. All rights reserved.
</metadata>
<defs>
<font id="Qartella-ExtraBoldItalic" horiz-adv-x="682" >
  <font-face 
    font-family="Qartella ExtraBold Italic"
    font-weight="800"
    font-style="italic"
    font-stretch="normal"
    units-per-em="1000"
    panose-1="0 0 9 0 0 0 0 0 0 0"
    ascent="800"
    descent="-200"
    x-height="513"
    cap-height="775"
    bbox="-106 -262 1094.36 824"
    underline-thickness="50"
    underline-position="-150"
    unicode-range="U+0020-2212"
  />
<missing-glyph horiz-adv-x="637" 
d="M597 762v-759l-557 -2v759l1 2l555 2zM551 723l-465 -2v-679l465 2v679zM320 418l142 142l39 -39l1 -2l-143 -142l141 -139v-3l-36 -36l-140 140l-142 -142l-40 39l140 145l-139 140v2l36 36h3z" />
    <glyph glyph-name=".notdef" horiz-adv-x="637" 
d="M597 762v-759l-557 -2v759l1 2l555 2zM551 723l-465 -2v-679l465 2v679zM320 418l142 142l39 -39l1 -2l-143 -142l141 -139v-3l-36 -36l-140 140l-142 -142l-40 39l140 145l-139 140v2l36 36h3z" />
    <glyph glyph-name=".null" horiz-adv-x="0" 
 />
    <glyph glyph-name="nonmarkingreturn" horiz-adv-x="333" 
 />
    <glyph glyph-name="space" unicode=" " horiz-adv-x="276" 
 />
    <glyph glyph-name="exclam" unicode="!" horiz-adv-x="334" 
d="M225 198q19 0 31.5 10t14.5 24l82 507q2 14 -7 25t-27 11h-59q-18 0 -30.5 -11t-14.5 -25l-79 -507q-2 -14 7.5 -24t27.5 -10h54zM120 116.5q-26 -27.5 -26 -61.5q0 -27 18 -46t53 -19q39 0 65 23.5t30 54.5q1 5 1 14q0 26 -18.5 44t-52.5 18q-44 0 -70 -27.5z" />
    <glyph glyph-name="quotedbl" unicode="&#x22;" horiz-adv-x="448" 
d="M123 515q0 -16 15 -35.5t34 -19.5q12 0 22 6q54 26 96 81.5t58 111.5q11 -18 34 -27q-9 -23 -28 -43l-23 -22l-29 -24q-13 -12 -16 -25q-1 -9 5.5 -23t18 -24.5t25.5 -10.5q9 0 23 6q41 20 75.5 57.5t56 81t27.5 80.5q2 16 2 26q0 35 -17.5 59.5t-60.5 24.5
q-30 0 -53 -14t-36 -36q-15 50 -74 50q-33 0 -56 -15t-35 -38t-12 -46q0 -22 11 -39t33 -25q-16 -37 -53 -69q-6 -4 -13 -9t-14 -11q-16 -14 -16 -28z" />
    <glyph glyph-name="numbersign" unicode="#" horiz-adv-x="760" 
d="M102 33q-2 -13 6.5 -23t26.5 -10h46q16 0 29 9t18 21l80 186h109l-34 -78l-30 -69l-7 -17q-7 -12 -7 -25q0 -12 9.5 -19.5t24.5 -7.5h46q17 0 29 9t17 21l81 186h102q26 0 42 20q2 2 10 16l6 12l6 13q5 10 5 15q2 13 -6.5 22.5t-25.5 9.5h-92l49 114h88q25 0 41 20
q4 5 10 15l6 12l7 12q6 12 6 21q0 11 -8.5 19t-24.5 8h-80l38 85l32 73q2 6 8 18q7 12 7 26q0 12 -9 20t-24 8h-47q-17 0 -29 -9t-17 -21l-87 -200h-108l37 85l31 73q2 6 8 18q7 16 7 26q0 12 -8.5 20t-24.5 8h-46q-16 0 -29 -9t-18 -21l-85 -200h-88q-27 0 -43 -20
q-4 -5 -10 -15q-5 -11 -7 -13l-6 -13q-4 -10 -5 -15q-2 -12 6.5 -21.5t24.5 -9.5h81l-49 -114h-75q-26 0 -43 -21q-4 -5 -10 -15l-6 -14q-2 -2 -6 -12l-4 -7q0 -3 -2 -7q-2 -14 7.5 -23t25.5 -9h65l-33 -78l-30 -68l-7 -17q-3 -6 -7 -20zM513 438l-48 -114h-110l49 114h109z
" />
    <glyph glyph-name="dollar" unicode="$" horiz-adv-x="662" 
d="M275 -7l-12 -74q-2 -14 6.5 -24.5t27.5 -10.5l19 -1q15 0 23 2q14 2 24.5 11t12.5 23l12 74q110 11 177 72t82 154q3 18 3 35q0 71 -50.5 113t-141.5 69l34 218q27 -6 46 -16l25 -16l26 -20q10 -8 24 -8q15 0 27 10q11 8 28.5 35.5t19.5 39.5l1 6q0 12 -10 24l-10 10
l-11 9q-57 42 -145 53l1 8q0 3 -2 11q-2 10 -10 17t-23 7h-23q-26 0 -39.5 -10.5t-17.5 -31.5v-2q-100 -15 -170.5 -74.5t-83.5 -142.5q-3 -19 -3 -38q0 -143 186 -197l-34 -209q-37 8 -70.5 26.5t-53.5 41.5l-3 5h-7q-3 0 -4 1h-9q-15 0 -32.5 -16.5t-31.5 -37.5t-15 -28
v-5q0 -13 11 -26q5 -6 11 -11q10 -7 11 -8q69 -55 174 -68zM350 469q-36 14 -53.5 31.5t-17.5 45.5q0 39 27.5 67t72.5 40zM436 298q37 -14 57 -30t20 -42q0 -6 -1 -10q-6 -38 -33.5 -64t-71.5 -35z" />
    <glyph glyph-name="percent" unicode="%" horiz-adv-x="855" 
d="M278 0q12 0 23.5 6t17.5 15l543 735q7 10 8 18q2 13 -7 21.5t-25 8.5h-58q-26 0 -40 -22l-542 -734q-8 -10 -9 -19q-2 -12 6.5 -20.5t23.5 -8.5h59zM250 758q-48 -26 -76.5 -68.5t-36.5 -91.5q-3 -16 -3 -33q0 -66 42.5 -109t125.5 -43q63 0 110.5 26t76 68t36.5 91
q3 17 3 33q0 66 -42.5 109.5t-124.5 43.5q-63 0 -111 -26zM381 649.5q13 -13.5 13 -36.5q0 -35 -19 -56.5t-54 -21.5q-26 0 -39.5 13.5t-13.5 36.5q0 33 20.5 55.5t53.5 22.5q26 0 39 -13.5zM621 335.5q-48 -26.5 -77 -69t-37 -90.5q-2 -10 -2 -31q0 -66 42.5 -110.5
t125.5 -44.5q63 0 111 26t76.5 68.5t36.5 91.5q3 17 3 32q0 66 -43 110t-125 44q-63 0 -111 -26.5zM751.5 226q13.5 -13 13.5 -36q0 -35 -19.5 -57t-54.5 -22q-25 0 -38.5 14t-13.5 37q0 32 19.5 54.5t52.5 22.5q27 0 40.5 -13z" />
    <glyph glyph-name="ampersand" unicode="&#x26;" horiz-adv-x="776" 
d="M119.5 360q-37.5 -53 -47.5 -116q-3 -21 -3 -40q0 -65 35 -115t98.5 -77.5t146.5 -27.5q124 0 227 79l45 -48q5 -6 17 -10.5t21 -4.5h69q15 0 27.5 7.5t14.5 22.5q1 3 0.5 5t-0.5 4l-3 6q-7 13 -51 59l-52 53q39 56 64 121.5t36 131.5q2 13 -7.5 24.5t-27.5 11.5h-53
q-19 0 -30 -10t-16 -23l-6 -27q-5 -25 -6 -28q-14 -58 -42 -107l-157 167l-34 37q-21 23 -34 41q-29 43 -29 76q0 7 1 11q6 35 28 58.5t58 23.5q19 0 30 -6.5t20 -18.5q3 -4 7 -10.5t7 -9.5q10 -14 28 -14q8 0 31.5 12t43.5 28t22 28v5q0 3 -2 11q-16 46 -59 70t-103 24
q-68 0 -120.5 -27.5t-84 -73t-39.5 -98.5q-2 -18 -2 -28q0 -56 36 -112q-67 -32 -104.5 -85zM493 150q-59 -46 -126 -46q-72 0 -117.5 33t-45.5 88q0 41 24.5 77.5t67.5 56.5z" />
    <glyph glyph-name="quotesingle" unicode="'" horiz-adv-x="286" 
d="M123 515q0 -16 15 -35.5t34 -19.5q12 0 22 6q46 22 83 66t58 93.5t21 85.5q0 35 -17.5 59.5t-60.5 24.5q-33 0 -56 -15t-35 -38t-12 -46q0 -22 11 -39t34 -25q-18 -38 -54 -69q-6 -4 -13 -9t-14 -11q-16 -14 -16 -28z" />
    <glyph glyph-name="parenleft" unicode="(" horiz-adv-x="371" 
d="M243 -167q15 0 26.5 8t13.5 21q1 4 -1 10q0 3 -3 8q-30 63 -45.5 137.5t-15.5 152.5q0 55 10 122q19 117 65 223.5t123 213.5q1 2 4 7.5t3 12.5q0 11 -9 18.5t-22 7.5h-51q-25 0 -45 -22q-14 -15 -27 -35q-8 -12 -22 -36q-120 -191 -149 -380q-11 -71 -11 -133
q0 -127 39 -247l12 -34q7 -21 16 -34q7 -10 15 -15.5t23 -5.5h51z" />
    <glyph glyph-name="parenright" unicode=")" horiz-adv-x="371" 
d="M127 -167q19 0 34 12q11 8 23 22q11 14 30 45q124 186 156 390q10 60 10 126q0 130 -43 265q-1 4 -5 18.5t-10 27.5q-8 16 -16 23q-11 13 -30 13h-51q-15 0 -27 -8.5t-14 -21.5v-5q0 -7 3 -13q61 -141 61 -301q0 -63 -11 -134q-15 -93 -52 -186t-94 -175l-25 -32l-13 -19
q-1 -2 -2.5 -4.5t-2.5 -4.5q-3 -3 -3 -9q-2 -13 7 -21t24 -8h51z" />
    <glyph glyph-name="asterisk" unicode="*" horiz-adv-x="506" 
d="M142 413l-1 -5q0 -11 9 -20l32 -35q10 -10 27 -10q21 0 36 17l80 88l51 -88q3 -7 11 -12t19 -5q16 0 29 10l44 35q15 11 16 25l1 6q0 8 -6 18l-60 83l116 59q20 10 24 30v3q0 6 -2 14l-8 17q-4 9 -8 16t-7 12q-9 17 -31 17l-8 -1h-3h-5l-82 -50l6 27q10 50 14 74
q2 14 -7 24.5t-27 10.5h-53q-18 0 -31 -10.5t-15 -24.5q-3 -22 -7 -61q-2 -28 -4 -40l-66 50h-5h-3l-8 1q-23 0 -37 -18q-21 -25 -23 -28q-1 -1 -13 -16q-6 -12 -7 -18v-5q0 -7 3.5 -13.5t10.5 -10.5l98 -59l-87 -83q-12 -12 -13 -24z" />
    <glyph glyph-name="plus" unicode="+" horiz-adv-x="651" 
d="M365 77q19 0 31.5 10.5t14.5 24.5l25 158h157q18 0 30.5 11.5t15.5 24.5l8 48q2 14 -7.5 25t-27.5 11h-157l25 157q2 14 -7.5 25t-27.5 11h-54q-18 0 -30.5 -11.5t-15.5 -24.5l-25 -157h-156q-18 0 -31 -11t-15 -25l-8 -48q-2 -14 7.5 -25t27.5 -11h156l-25 -158
q-2 -14 7 -24.5t28 -10.5h54z" />
    <glyph glyph-name="comma" unicode="," horiz-adv-x="308" 
d="M40 -95q-5 -7 -5 -17q0 -16 15 -35.5t34 -19.5q10 0 22 5q41 20 75.5 57.5t56 81.5t27.5 81q2 18 2 28q0 34 -17 57.5t-60 23.5q-47 0 -75 -30t-28 -67q0 -22 11 -39.5t33 -25.5q-17 -39 -53 -69l-10 -7l-13 -9q-10 -8 -15 -15z" />
    <glyph glyph-name="hyphen" unicode="-" horiz-adv-x="488" 
d="M429 271q18 0 31 11t15 25l7 48q2 14 -7 25t-27 11h-284q-18 0 -31 -11t-15 -25l-7 -48q-2 -14 7 -25t27 -11h284z" />
    <glyph glyph-name="period" unicode="." horiz-adv-x="346" 
d="M142.5 141.5q-23.5 -14.5 -35.5 -36.5t-12 -45q0 -29 19.5 -49.5t56.5 -20.5q32 0 55.5 15t35.5 37.5t12 45.5q0 29 -19.5 48.5t-57.5 19.5q-31 0 -54.5 -14.5z" />
    <glyph glyph-name="slash" unicode="/" horiz-adv-x="460" 
d="M88 0q14 0 26.5 7.5t19.5 16.5l14 22l11 19l209 348l114 187q98 162 101 173q2 14 -7 22.5t-25 8.5h-51q-26 0 -45 -23q-10 -14 -14 -22q-4 -6 -6.5 -11l-4.5 -9l-55 -90l-155 -257q-35 -57 -113 -187q-101 -163 -102 -174q-2 -12 6.5 -21.5t24.5 -9.5h52z" />
    <glyph glyph-name="zero" unicode="0" horiz-adv-x="931" 
d="M375.5 708q-90.5 -57 -143 -145t-67.5 -181q-5 -37 -5 -68q0 -83 31.5 -154.5t100 -116t173.5 -44.5q120 0 211 57t144.5 145t67.5 181q5 29 5 69q0 83 -32 154.5t-101 115.5t-174 44q-120 0 -210.5 -57zM710.5 594q45.5 -64 45.5 -156q0 -32 -4 -56q-10 -65 -44.5 -128
t-92.5 -105t-133 -42q-95 0 -140.5 64t-45.5 156q0 31 4 55q10 65 44.5 128.5t91.5 105.5t133 42q96 0 141.5 -64z" />
    <glyph glyph-name="one" unicode="1" horiz-adv-x="479" 
d="M300 12q19 0 34.5 13t17.5 28l105 660v8q0 10 -2 14q-7 18 -27 18q-13 0 -20 -3l-221 -79q-20 -7 -29 -24q-1 -3 -4 -13l-3 -12l-1 -13q0 -11 4 -20q10 -21 37 -21l7 1l6 2l16 4l41 14l46 17l-88 -553q-2 -15 9 -28t31 -13h41z" />
    <glyph glyph-name="two" unicode="2" horiz-adv-x="756" 
d="M609 12q28 0 43 23q6 10 8.5 20.5t2.5 12.5l1 11q0 11 -4 20q-7 20 -35 20h-299l243 190q67 53 104 101.5t47 111.5q3 21 3 40q0 60 -28.5 105.5t-83.5 71.5t-132 26t-151 -27.5t-124 -78.5q-13 -13 -14 -25q-2 -11 8.5 -25.5t26.5 -24.5t29 -10q18 0 37 15l15 13l15 12
q29 21 65 32.5t73 11.5q62 0 95 -29t33 -79t-25.5 -85t-80.5 -77l-345 -271q-19 -15 -24 -25q-1 -3 -4 -13l-3 -14l-1 -14q0 -9 3 -18q10 -21 36 -21h466z" />
    <glyph glyph-name="three" unicode="3" horiz-adv-x="795" 
d="M728 249q0 46 -25 82.5t-72 60.5q52 26 84 67.5t40 89.5q2 10 2 30q0 60 -38.5 102t-101 63t-136.5 21q-71 0 -141 -19t-116 -61q-15 -12 -18 -28v-6q0 -13 12 -25q11 -11 19 -16q12 -7 14 -8q10 -5 17 -5q10 0 17.5 3t17.5 10q37 27 73.5 37.5t87.5 10.5q69 0 113 -23.5
t44 -70.5q0 -62 -53 -92t-134 -30h-96q-29 0 -44 -23q-9 -14 -11 -34q-1 -4 -1 -12q0 -10 3 -19q9 -20 36 -20h100q72 0 121 -23.5t49 -71.5q0 -10 -1 -15q-9 -59 -69.5 -88t-141.5 -29q-91 0 -140 32q-2 1 -8 7l-11 9q-15 13 -33 13q-15 0 -32.5 -10.5t-31 -25t-15.5 -25.5
v-4q0 -14 10 -26q34 -38 105 -58t139 -20q83 0 162 25t134.5 75t67.5 123q2 18 2 27z" />
    <glyph glyph-name="four" unicode="4" horiz-adv-x="783" 
d="M471 172l-18 -119q-2 -15 8 -28t30 -13h23q17 0 26 2q37 7 41 39l19 119h94q29 0 44 23q7 10 9.5 20.5t2.5 12.5l1 10q0 12 -4 21q-9 19 -36 19h-94l31 196q2 16 -8 28.5t-30 12.5h-23q-17 0 -26 -2q-37 -7 -42 -39l-31 -196h-216l314 408q8 10 11 23q2 17 -9.5 30.5
t-33.5 13.5h-39q-13 0 -24 -5.5t-18 -14.5l-361 -472q-7 -8 -9 -20q-1 -4 -4 -17l-1 -10q0 -13 4 -22q9 -20 36 -20h333z" />
    <glyph glyph-name="five" unicode="5" horiz-adv-x="784" 
d="M164.5 177q-17.5 -11 -30.5 -26.5t-15 -25.5v-5q0 -12 9 -26l10 -11l10 -10q39 -38 97.5 -56t126.5 -18q87 0 163.5 29t128 83t63.5 128q3 18 3 35q0 63 -37 109.5t-101.5 70.5t-143.5 24q-49 0 -88 -8l37 177h306q30 0 45 22q6 10 8.5 20.5t2.5 12.5l1 12q0 11 -4 19
q-9 20 -36 20h-387q-19 0 -34 -11.5t-18 -26.5l-65 -295l-1 -7q0 -11 8 -21q8 -12 25 -29q12 -10 18 -14q1 -1 8 -4.5t15 -3.5q6 0 21 5q32 12 60 17.5t61 5.5q73 0 118 -28.5t45 -81.5q0 -6 -2 -20q-10 -63 -66.5 -97.5t-136.5 -34.5q-91 0 -137 42l-11 11l-11 13
q-15 15 -34 15q-14 0 -31.5 -11z" />
    <glyph glyph-name="six" unicode="6" horiz-adv-x="819" 
d="M145 259q-3 -21 -3 -42q0 -65 33 -114.5t94.5 -76.5t145.5 -27q94 0 170 33.5t123.5 93t59.5 136.5q3 17 3 34q0 60 -33.5 108t-93.5 75t-135 27q-27 0 -40 -2l150 180q8 10 12 24q2 18 -9.5 31.5t-34.5 13.5h-39q-14 0 -22.5 -4.5t-17.5 -14.5l-303 -354
q-50 -60 -60 -121zM592 359.5q43 -28.5 43 -79.5q0 -6 -2 -20q-11 -71 -64 -112t-137 -41q-74 0 -114.5 33t-40.5 91q0 18 2 28q9 60 66 94.5t134 34.5q70 0 113 -28.5z" />
    <glyph glyph-name="seven" unicode="7" 
d="M156 58q-3 -17 8.5 -31.5t34.5 -14.5h17l10 -1l10 1q27 2 42 22l459 629q4 4 6 10l1 8l4 18q1 7 1 22q-4 32 -39 32h-498q-30 0 -45 -23q-6 -10 -11 -34q-2 -19 5.5 -34t33.5 -15h384l-415 -569q-6 -9 -8 -20z" />
    <glyph glyph-name="eight" unicode="8" horiz-adv-x="864" 
d="M798 253q0 47 -25.5 80.5t-74.5 57.5q110 52 126 157q2 11 2 31q0 60 -37.5 102t-100 63t-136.5 21q-80 0 -153 -24.5t-123.5 -73.5t-61.5 -118q-2 -10 -2 -29q0 -41 19 -75t58 -54q-131 -55 -149 -168q-2 -10 -2 -30q0 -63 41.5 -107t109.5 -65.5t145 -21.5q82 0 161 25
t134 75.5t66 122.5q3 17 3 31zM647.5 634.5q43.5 -23.5 43.5 -71.5q0 -10 -1 -16q-9 -55 -61 -79.5t-128 -24.5q-69 0 -111.5 21t-42.5 67q0 11 1 17q9 55 60.5 82.5t126.5 27.5q69 0 112.5 -23.5zM611.5 311q50.5 -23 50.5 -72q0 -10 -1 -15q-10 -59 -69.5 -88t-140.5 -29
q-75 0 -126 25t-51 76q0 10 1 15q9 58 69.5 84.5t142.5 26.5q74 0 124.5 -23z" />
    <glyph glyph-name="nine" unicode="9" horiz-adv-x="817" 
d="M306 38q0 -16 11.5 -27.5t32.5 -11.5q5 0 16.5 -0.5t19.5 0.5q28 2 43 19l304 354q50 59 60 122q3 21 3 41q0 65 -33.5 114.5t-95.5 76.5t-145 27q-94 0 -170 -33.5t-124 -93.5t-60 -137q-3 -16 -3 -33q0 -60 34 -108t94.5 -75.5t135.5 -27.5q13 0 39 2l-150 -179
q-12 -15 -12 -30zM619 612.5q41 -33.5 41 -91.5q0 -18 -2 -28q-9 -60 -65.5 -94.5t-133.5 -34.5q-70 0 -114 28.5t-44 79.5q0 5 2 19q11 72 64 113.5t138 41.5q73 0 114 -33.5z" />
    <glyph glyph-name="colon" unicode=":" horiz-adv-x="318" 
d="M168.5 539.5q-30.5 -31.5 -30.5 -71.5q0 -32 21.5 -53.5t62.5 -21.5q34 0 59 15.5t38 40t13 49.5q0 31 -21 52t-61 21q-51 0 -81.5 -31.5zM105.5 137.5q-30.5 -31.5 -30.5 -71.5q0 -32 21 -53.5t62 -21.5q34 0 59.5 15.5t38.5 39.5t13 49q0 31 -21.5 52.5t-61.5 21.5
q-50 0 -80.5 -31.5z" />
    <glyph glyph-name="semicolon" unicode=";" horiz-adv-x="336" 
d="M180.5 539.5q-30.5 -31.5 -30.5 -71.5q0 -32 21.5 -53.5t61.5 -21.5q34 0 59.5 15.5t38.5 40t13 49.5q0 32 -21 52.5t-62 20.5q-50 0 -80.5 -31.5zM39 -109q-2 -9 8 -27.5t18 -24.5q11 -6 23 -6t22 5q41 18 75 56.5t56 83.5t28 81q2 18 2 28q0 34 -17 57t-60 23
q-32 0 -55.5 -14.5t-36 -37t-12.5 -45.5q0 -22 11 -39.5t34 -25.5q-19 -42 -56 -71q-4 -4 -10 -7l-12 -9q-17 -13 -18 -27z" />
    <glyph glyph-name="less" unicode="&#x3c;" horiz-adv-x="640" 
d="M90 302q-2 -11 3.5 -21t15.5 -15q23 -11 86 -40t145 -66q221 -101 232 -101q18 0 28 10.5t12 21.5l9 56q2 12 -3 22t-17 15l-342 152l390 151q13 6 21.5 17t10.5 21l9 57q2 12 -5.5 22t-24.5 10q-13 0 -264 -101q-256 -102 -264 -106q-28 -12 -31 -38z" />
    <glyph glyph-name="equal" unicode="=" horiz-adv-x="626" 
d="M560 364q19 0 31 11.5t15 25.5l7 46q2 13 -7 24.5t-27 11.5h-378q-19 0 -31.5 -11t-14.5 -25l-8 -46q-2 -14 7 -25.5t28 -11.5h378zM535 208q18 0 31 11t15 25l8 47q2 13 -7.5 24.5t-27.5 11.5h-378q-18 0 -30.5 -11.5t-15.5 -24.5l-7 -47q-2 -14 6.5 -25t27.5 -11h378z
" />
    <glyph glyph-name="greater" unicode="&#x3e;" horiz-adv-x="640" 
d="M99 59l9 5l7 2l8 4l222 89l179 71l22 8q57 22 69 28q11 5 20 15.5t11 20.5l10 67q2 11 -3 21.5t-16 16.5q-12 6 -47.5 22t-87.5 41q-43 19 -95 43q-221 101 -233 101q-17 0 -27.5 -10t-12.5 -22l-9 -57q-2 -11 3.5 -21.5t17.5 -16.5l342 -151l-390 -152q-28 -10 -33 -37
l-9 -56q-2 -11 5.5 -21.5t25.5 -10.5h12z" />
    <glyph glyph-name="question" unicode="?" horiz-adv-x="576" 
d="M318 193q17 0 28.5 9.5t16.5 21.5l9 28q2 4 4.5 10t7.5 14q11 16 25 30t38 35q50 43 78 72t47.5 65t27.5 85q3 20 3 38q0 79 -51.5 131t-149.5 52q-67 0 -128.5 -26.5t-106.5 -73.5q-11 -13 -12 -22q-2 -9 8 -27.5t25 -32.5t29 -14q17 0 32 13q42 34 69 49t66 15
q40 0 61.5 -22.5t21.5 -58.5q0 -7 -2 -21q-7 -42 -30.5 -72t-65.5 -64l-36 -30l-36 -33q-40 -40 -58 -84q-12 -30 -16 -51q-2 -14 7 -25t28 -11h60zM214.5 116.5q-26.5 -27.5 -26.5 -60.5q0 -27 18.5 -46.5t53.5 -19.5q29 0 51 13.5t34 34.5t12 42q0 27 -19 45.5t-54 18.5
q-43 0 -69.5 -27.5z" />
    <glyph glyph-name="at" unicode="@" horiz-adv-x="1035" 
d="M397.5 725.5q-117.5 -58.5 -189 -157.5t-90.5 -220q-6 -37 -6 -74q0 -103 47 -185t140.5 -129t226.5 -47q88 0 168 28t146 82q14 12 15 25q1 8 -10 26.5t-27 33t-29 14.5q-15 0 -31 -12q-52 -38 -102.5 -57t-110.5 -19q-97 0 -165 33t-103 92t-35 135q0 30 4 55
q14 89 67 161.5t138.5 114t193.5 41.5q84 0 143.5 -33t90 -89t30.5 -124q0 -26 -4 -47q-7 -44 -26 -77q-25 -42 -57 -42q-39 0 -39 35q0 7 1 11q11 73 35 221q3 22 -20 29q-6 2 -10 2t-7 1h-15q-21 0 -33.5 -4.5t-20.5 -15.5q-46 39 -122 39q-74 0 -129 -33t-87 -84.5
t-41 -107.5q-3 -19 -3 -41q0 -78 46.5 -132t141.5 -54q48 0 91 16t76 47q19 -20 47 -31t61 -11q37 0 75 15q71 27 111 88.5t51 128.5q6 36 6 71q0 95 -41.5 172t-125.5 122.5t-206 45.5q-149 0 -266.5 -58.5zM639 431q20 -22 20 -58q0 -54 -30 -93.5t-85 -39.5q-42 0 -63 23
t-21 60q0 53 31 91.5t86 38.5q42 0 62 -22z" />
    <glyph glyph-name="A" unicode="A" horiz-adv-x="751" 
d="M13 32q-2 -14 7.5 -23t25.5 -9h55q13 0 25 6.5t18 16.5l120 210h296l54 -210q2 -9 12.5 -16t22.5 -7h56q16 0 28.5 9t14.5 23q1 8 -40 166l-47 179l-65 246l-22 86l-5 20t-6 19q-8 26 -36 26h-57q-29 0 -45 -26l-211 -361q-200 -345 -201 -355zM530 349h-198l138 238z
" />
    <glyph glyph-name="B" unicode="B" horiz-adv-x="697" 
d="M381 0q83 0 149 31t106 84.5t51 121.5q3 20 3 38q0 48 -21 88.5t-65 67.5q38 27 61 63t29 76q3 18 3 34q0 83 -66 127t-174 44h-198q-19 0 -32 -10.5t-15 -25.5l-111 -703q-2 -14 7 -25t27 -11h246zM442 658q55 0 86.5 -17.5t31.5 -54.5q0 -11 -1 -17q-15 -98 -136 -98
h-120l30 187h109zM287 366l154 1q56 0 84.5 -28.5t28.5 -75.5q0 -67 -44 -106t-118 -39l-145 -1z" />
    <glyph glyph-name="C" unicode="C" horiz-adv-x="794" 
d="M201 603q-73 -97 -92 -216q-6 -36 -6 -71q0 -90 38.5 -164t117.5 -118t196 -44q81 0 164.5 27t141.5 76q13 13 15 25q1 10 -9.5 25.5t-25 28t-23.5 14.5q-3 1 -10 1q-16 0 -29 -8q-2 -1 -20 -14q-12 -8 -18 -11q-74 -42 -167 -42q-116 0 -175.5 62.5t-59.5 159.5
q0 28 4 52q12 75 53 138t109 101t157 38q59 0 102.5 -16t81.5 -50q11 -11 26 -11q11 0 31.5 13.5t38 30t18.5 25.5v4q0 12 -8 20q-47 51 -118 78t-153 27q-95 0 -179 -34q-128 -50 -201 -147z" />
    <glyph glyph-name="D" unicode="D" horiz-adv-x="784" 
d="M327 0q133 0 234 52.5t161 140t77 194.5q6 36 6 70q0 91 -39 162.5t-119 113.5t-198 42h-191q-19 0 -31 -11t-15 -25l-111 -703q-2 -14 7 -25t27 -11h192zM431 658q119 0 178 -59.5t59 -157.5q0 -29 -4 -54q-12 -77 -52 -137.5t-107.5 -96t-159.5 -35.5h-98l86 540h98z
" />
    <glyph glyph-name="E" unicode="E" horiz-adv-x="615" 
d="M533 0q18 0 30 11t14 24l8 47q2 14 -7 25t-28 11h-303l35 218h269q18 0 31 11t15 24l7 47q2 13 -7 24t-27 11h-270l33 205h293q20 0 32 10.5t14 25.5l7 45q2 14 -6.5 25t-27.5 11h-387q-19 0 -31 -11t-15 -25l-111 -703q-2 -14 7 -25t27 -11h398z" />
    <glyph glyph-name="F" unicode="F" horiz-adv-x="593" 
d="M189 0q18 0 30.5 11t14.5 25l48 300h269q18 0 31 11t15 24l7 47q2 13 -7 24t-27 11h-270l33 205h292q19 0 32 10.5t15 25.5l7 45q2 14 -6.5 25t-27.5 11h-386q-19 0 -32 -10.5t-15 -25.5l-111 -703q-2 -14 7 -25t27 -11h54z" />
    <glyph glyph-name="G" unicode="G" horiz-adv-x="868" 
d="M349.5 729q-101.5 -55 -162.5 -145.5t-78 -196.5q-6 -36 -6 -73q0 -89 36 -162t112.5 -117t191.5 -44q132 0 225.5 57t145.5 147t68 194q3 13 -6 24.5t-27 11.5h-327q-18 0 -30.5 -11.5t-15.5 -24.5l-7 -46q-2 -13 7 -24.5t27 -11.5h230q-33 -91 -99.5 -143t-171.5 -52
q-112 0 -167.5 62.5t-55.5 158.5q0 30 4 54q12 75 53.5 138t110 100.5t158.5 37.5q59 0 101 -15.5t80 -50.5l4 -4l5 -3q7 -4 17 -4q11 0 31.5 14t38 31t18.5 25l1 5q0 10 -9 19q-99 104 -268 104q-133 0 -234.5 -55z" />
    <glyph glyph-name="H" unicode="H" horiz-adv-x="784" 
d="M108 11q9 -11 27 -11h55q18 0 30 11.5t14 24.5l48 300h325l-47 -300q-2 -14 6.5 -25t27.5 -11h55q18 0 30.5 11t14.5 25l112 704q2 13 -7 24t-27 11h-55q-19 0 -31 -11t-15 -25l-45 -286h-326l46 287q2 13 -7 24t-27 11h-54q-19 0 -31 -11t-15 -25l-111 -703
q-2 -14 7 -25z" />
    <glyph glyph-name="I" unicode="I" horiz-adv-x="324" 
d="M190 0q17 0 29.5 11t14.5 24l112 704q2 14 -7.5 25t-27.5 11h-54q-19 0 -30.5 -11t-14.5 -25l-111 -704q-2 -14 7 -24.5t27 -10.5h55z" />
    <glyph glyph-name="J" unicode="J" horiz-adv-x="484" 
d="M36 0q17 -10 43 -10l15 1q106 0 179 46t112.5 117.5t52.5 153.5l69 431q2 14 -7.5 25t-27.5 11h-55q-19 0 -31 -11t-15 -25l-68 -431q-14 -85 -58.5 -140.5t-131.5 -55.5l-19 1q-31 0 -48 -28l-13 -23q-9 -21 -11 -27q-3 -25 14 -35z" />
    <glyph glyph-name="K" unicode="K" horiz-adv-x="662" 
d="M190 0q17 0 29.5 11t14.5 24l43 271l230 -291q12 -15 34 -15h77q16 0 29 8t15 22v5q0 9 -8 19l-272 334l345 335q12 10 14 22q2 14 -8 22t-25 8h-72q-10 0 -21 -4.5t-18 -11.5l-293 -285l42 265q2 14 -7.5 25t-27.5 11h-54q-19 0 -30.5 -11t-14.5 -25l-111 -704
q-2 -14 7 -24.5t27 -10.5h55z" />
    <glyph glyph-name="L" unicode="L" horiz-adv-x="538" 
d="M468 0q18 0 30 11t14 24l8 47q2 14 -7.5 25t-27.5 11h-238l99 621q2 14 -7.5 25t-27.5 11h-54q-19 0 -30.5 -11t-14.5 -25l-111 -704q-2 -14 7 -24.5t27 -10.5h333z" />
    <glyph glyph-name="M" unicode="M" horiz-adv-x="976" 
d="M102 41q-3 -16 6.5 -28.5t31.5 -12.5h49q18 0 30.5 11t14.5 25l68 425l120 -436q3 -11 13.5 -18t24.5 -7h56q15 0 27 7t18 18l260 438l-68 -427q-2 -14 7.5 -25t27.5 -11h54q18 0 31 11t15 25l111 703q2 14 -7 25t-27 11h-69q-15 0 -26.5 -6.5t-17.5 -17.5l-334 -560
l-155 559q-7 25 -47 25h-53q-22 0 -36 -12.5t-16 -28.5z" />
    <glyph glyph-name="N" unicode="N" horiz-adv-x="827" 
d="M101 36q-2 -14 7 -25t27 -11h54q18 0 30.5 11t14.5 25l81 509l275 -527q4 -7 14 -12.5t20 -5.5h68q18 0 31 11t15 25l111 703q3 13 -5.5 24.5t-27.5 11.5h-54q-19 0 -31.5 -11t-14.5 -25l-81 -510l-274 526q-11 20 -34 20h-69q-19 0 -31 -11t-15 -25z" />
    <glyph glyph-name="O" unicode="O" horiz-adv-x="917" 
d="M349.5 729q-101.5 -55 -162.5 -145.5t-78 -196.5q-6 -36 -6 -71q0 -91 38.5 -164.5t118.5 -117t198 -43.5q133 0 234.5 55t162 145t77.5 196q6 36 6 72q0 91 -38.5 164.5t-118.5 117t-197 43.5q-133 0 -234.5 -55zM741.5 600.5q59.5 -62.5 59.5 -160.5q0 -29 -4 -53
q-12 -75 -53 -137.5t-109 -100t-158 -37.5q-117 0 -177.5 62.5t-60.5 160.5q0 28 4 52q12 75 53.5 138t110 100.5t158.5 37.5q117 0 176.5 -62.5z" />
    <glyph glyph-name="P" unicode="P" horiz-adv-x="648" 
d="M190 0q18 0 30.5 11t14.5 25l44 276h139q127 0 207.5 63t97.5 168q4 30 4 43q0 87 -61.5 138t-174.5 51h-232q-19 0 -32 -10.5t-15 -25.5l-111 -703q-2 -14 7 -25t27 -11h55zM475 658q115 0 115 -90q0 -8 -2 -26q-8 -55 -46 -83.5t-104 -28.5h-140l36 228h141z" />
    <glyph glyph-name="Q" unicode="Q" horiz-adv-x="906" 
d="M578 4q38 -64 90 -106t129 -42q52 0 113 22l18 7q5 1 20 9q29 19 29 39q0 8 -4.5 18t-5.5 12q-9 15 -19 25q-12 14 -32 14q-9 0 -24 -5l-8 -3l-5 -3q-35 -10 -58 -10q-63 0 -112 74q97 56 152.5 144.5t70.5 187.5q6 36 6 72q0 91 -38.5 164.5t-118.5 117t-197 43.5
q-133 0 -234.5 -55t-162.5 -145.5t-78 -196.5q-6 -36 -6 -71q0 -91 38.5 -164.5t118.5 -117t198 -43.5q62 0 120 13zM521 115q-22 -3 -44 -3q-117 0 -177.5 62.5t-60.5 160.5q0 28 4 52q12 75 53.5 138t110 100.5t158.5 37.5q117 0 176.5 -62.5t59.5 -160.5q0 -29 -4 -53
q-11 -68 -46.5 -128t-96.5 -98l-86 178q-9 20 -32 20q-9 0 -35.5 -9.5t-37.5 -14.5q-25 -13 -27 -33q-2 -2 0 -8l3 -8l9 -22l29 -62z" />
    <glyph glyph-name="R" unicode="R" horiz-adv-x="657" 
d="M190 0q18 0 30.5 11t14.5 25l44 276h60l137 -293q4 -9 12.5 -14t20.5 -5h71q16 0 29 8.5t15 22.5q1 11 -67 147l-73 143q94 21 149 80.5t68 141.5q4 30 4 43q0 87 -61 138t-174 51h-212q-19 0 -31 -11t-15 -25l-111 -703q-2 -14 7 -25t27 -11h55zM453 658q116 0 116 -90
q0 -8 -2 -26q-18 -112 -150 -112h-119l36 228h119z" />
    <glyph glyph-name="S" unicode="S" horiz-adv-x="662" 
d="M163 190q-10 2 -16 2q-14 0 -32 -16.5t-32 -37t-15 -27.5l-1 -6q0 -7 7 -18q35 -47 109.5 -72t150.5 -25q131 0 213.5 60t99.5 169q3 18 3 35q0 68 -43 107t-117 64q-21 7 -63 19q-55 16 -68 21q-63 23 -76 53q-5 10 -5 25q0 6 2 20q7 44 52.5 71.5t102.5 27.5
q82 0 142 -49l2 -3l4 -4q8 -8 16 -9q1 -1 2.5 -1t2.5 -1h8q15 0 23 5t16 15q10 13 21 29q14 22 17 35l1 7q0 11 -9 20q-34 38 -95 58t-126 20q-77 0 -145.5 -28t-114 -78.5t-55.5 -115.5q-3 -19 -3 -38q0 -81 56.5 -129.5t160.5 -75.5q42 -10 55 -14q27 -7 53 -20
q46 -23 46 -59q0 -7 -1 -10q-8 -50 -49.5 -77t-104.5 -27q-56 0 -104.5 19.5t-80.5 54.5l-4 4h-6z" />
    <glyph glyph-name="T" unicode="T" horiz-adv-x="632" 
d="M353 658l-98 -623q-2 -13 6.5 -24t26.5 -11h55q17 0 30 11t15 24l99 623h199q18 0 31 11t15 25l7 45q2 14 -7 25t-27 11h-532q-19 0 -31 -11.5t-14 -24.5l-7 -46q-2 -13 6.5 -24t26.5 -11h199z" />
    <glyph glyph-name="U" unicode="U" horiz-adv-x="779" 
d="M144 309q-6 -36 -6 -71q0 -108 59.5 -177.5t191.5 -69.5q106 0 179 45.5t112.5 117t52.5 154.5l68 431q2 14 -7 25t-28 11h-54q-19 0 -31 -11t-15 -25l-68 -431q-13 -85 -57.5 -140.5t-131.5 -55.5q-73 0 -104.5 39.5t-31.5 104.5q0 28 4 52l69 431q2 13 -7 24t-27 11
h-56q-19 0 -30.5 -11t-13.5 -24z" />
    <glyph glyph-name="V" unicode="V" horiz-adv-x="746" 
d="M137.5 765q-12.5 -9 -14.5 -24q-1 -6 11.5 -58t27.5 -110l47 -177l68 -257l19 -74l5 -19q2 -12 6 -21q5 -11 13 -18t25 -7h55q27 0 46 24q5 6 11 18q6 10 8 15l197 339q16 29 103 178q91 159 92 168q2 15 -7.5 23.5t-26.5 8.5h-63q-14 0 -25.5 -7.5t-17.5 -17.5
l-314 -559l-138 559q-2 11 -12 18t-24 7h-61q-18 0 -30.5 -9z" />
    <glyph glyph-name="W" unicode="W" horiz-adv-x="982" 
d="M136.5 765.5q-11.5 -9.5 -13.5 -22.5q-2 -5 0 -11l106 -705q2 -11 12 -19t25 -8h45q15 0 27.5 8t17.5 20l220 515l56 -515q1 -11 10.5 -19.5t24.5 -8.5h49q15 0 26 8t18 18q4 7 19 40l40 86l116 246l122 260l9 20q2 4 4.5 9.5t5.5 12.5q6 10 12 25q1 3 2 5.5t2 4.5l2 8
q2 13 -7 22.5t-26 9.5h-59q-15 0 -26 -8t-15 -19l-227 -499l-55 497q-2 12 -12 20.5t-26 8.5h-59q-16 0 -28 -8.5t-17 -20.5l-211 -493l-67 493q-2 12 -11.5 20.5t-25.5 8.5h-57q-17 0 -28.5 -9.5z" />
    <glyph glyph-name="X" unicode="X" horiz-adv-x="672" 
d="M112 0q11 0 22.5 5t18.5 13l225 257l135 -257q4 -9 14 -13.5t22 -4.5h72q15 0 27.5 8t14.5 22q1 8 -21.5 52.5t-68.5 128.5l-98 176l301 338q9 9 9 23q0 12 -9.5 19t-23.5 7h-69q-12 0 -24 -5t-19 -14l-224 -258l-134 259q-9 19 -34 19h-74q-15 0 -28 -8t-15 -22
q-1 -7 19 -47t61 -116l10 -19q65 -120 98 -177l-50 -56l-105 -117l-102 -115q-32 -35 -44 -51l-4 -6q-5 -9 -5 -11q-1 -13 8.5 -21.5t24.5 -8.5h70z" />
    <glyph glyph-name="Y" unicode="Y" horiz-adv-x="661" 
d="M138.5 765q-13.5 -9 -16.5 -23v-4q0 -8 3 -14l126 -281q6 -15 22 -43q4 -7 7.5 -14t6.5 -12q24 -46 25 -66l-2 -16l-4 -19l-14 -92l-23 -145q-2 -14 7.5 -25t27.5 -11h54q18 0 31 11t15 25l42 266v6q7 19 46 65l27 32l31 38l215 281q8 11 8 23t-9.5 19.5t-24.5 7.5h-63
q-13 0 -25.5 -6.5t-19.5 -16.5l-231 -313l-132 313q-4 10 -14 16.5t-23 6.5h-63q-16 0 -29.5 -9z" />
    <glyph glyph-name="Z" unicode="Z" horiz-adv-x="657" 
d="M587 0q18 0 31 11t15 25l7 46q2 14 -7 25t-27 11h-358l474 601q10 15 10 26q0 13 -10.5 21.5t-26.5 8.5h-494q-18 0 -30.5 -11t-14.5 -25l-8 -46q-2 -14 7.5 -24.5t27.5 -10.5h333l-475 -605q-8 -9 -9 -20q-3 -16 8.5 -24.5t28.5 -8.5h518z" />
    <glyph glyph-name="bracketleft" unicode="[" horiz-adv-x="419" 
d="M290 -168q19 0 31 10.5t15 24.5l6 42q2 13 -7 24.5t-27 11.5h-104l114 718h104q18 0 30.5 11t14.5 24l7 41q2 14 -7.5 25t-27.5 11h-192q-19 0 -31 -11t-15 -25l-138 -872q-2 -14 6.5 -24.5t27.5 -10.5h193z" />
    <glyph glyph-name="backslash" unicode="\" horiz-adv-x="450" 
d="M420 0q17 0 29.5 9.5t14.5 23.5q1 5 -13.5 59t-32.5 114l-12 43q-38 131 -41 144l-74 257l-26 90q-2 8 -5.5 20.5t-6.5 20.5q-9 23 -35 23h-51q-16 0 -29 -9.5t-15 -23.5q-1 -8 46 -174l54 -187l78 -270l22 -77l5 -20q1 -8 7 -22q11 -21 36 -21h49z" />
    <glyph glyph-name="bracketright" unicode="]" horiz-adv-x="419" 
d="M268 -168q19 0 31.5 10.5t14.5 24.5l138 872q2 14 -7 25t-28 11h-191q-19 0 -31 -11t-15 -25l-6 -41q-2 -13 7 -24t27 -11h103l-114 -717h-102q-18 0 -31 -11t-15 -25l-7 -42q-2 -14 6.5 -25t27.5 -11h192z" />
    <glyph glyph-name="asciicircum" unicode="^" horiz-adv-x="684" 
d="M202 270q14 0 25.5 6.5t17.5 16.5l194 321l93 -321q2 -10 12 -16.5t23 -6.5h56q17 0 30 9.5t15 23.5q1 11 -63 222l-68 224q-9 25 -39 25h-67q-29 0 -46 -25q-10 -15 -140 -225q-132 -209 -133 -221q-2 -14 7.5 -23.5t26.5 -9.5h56z" />
    <glyph glyph-name="underscore" unicode="_" horiz-adv-x="686" 
d="M561 -140q18 0 31 11t15 25l6 39q2 13 -7 24t-27 11h-481q-18 0 -30.5 -11t-14.5 -24l-7 -39q-2 -14 7 -25t28 -11h480z" />
    <glyph glyph-name="a" unicode="a" 
d="M481 32q2 -32 38 -32l24 -1q24 0 43.5 10t22.5 32l68 431q4 26 -20 36q-16 6 -41 6q-44 0 -60 -25q-5 -8 -6 -16q-57 50 -156 50q-88 0 -154.5 -38t-106.5 -99t-50 -129q-4 -21 -4 -48q0 -60 25 -109.5t77 -79.5t129 -30q96 0 170 50q0 -5 1 -8zM481.5 372.5
q34.5 -34.5 34.5 -88.5q0 -45 -22.5 -86t-64 -66t-94.5 -25q-63 0 -95.5 33.5t-32.5 87.5q0 46 21 87.5t61 66.5t94 25q64 0 98.5 -34.5z" />
    <glyph glyph-name="b" unicode="b" 
d="M368 -10q88 0 155 38t106.5 99t50.5 130q4 21 4 48q0 60 -25 109.5t-76.5 79t-129.5 29.5q-97 0 -171 -50l41 261q4 26 -20 36q-13 5 -41 5q-23 0 -43 -9t-24 -32l-109 -693q-4 -27 20 -37q13 -5 43 -5q44 0 59 26q5 7 6 15q59 -50 154 -50zM522.5 373.5
q32.5 -33.5 32.5 -86.5q0 -48 -20.5 -89t-60.5 -66t-94 -25q-64 0 -99 35.5t-35 89.5q0 45 23 85.5t64.5 65t94.5 24.5q62 0 94.5 -33.5z" />
    <glyph glyph-name="c" unicode="c" horiz-adv-x="596" 
d="M246 486.5q-69 -37.5 -110.5 -98.5t-52.5 -131q-4 -21 -4 -47q0 -61 26 -110.5t79.5 -79.5t132.5 -30q74 0 138.5 29t110.5 82q9 11 10 20v3q0 9 -5 16q-4 7 -12 15q-14 16 -25 23q-9 9 -25 9q-13 0 -24 -7q-7 -3 -9 -7l-4 -4q-54 -62 -137 -62q-63 0 -95.5 33.5
t-32.5 87.5q0 46 21 87t61 66t94 25q81 0 117 -62l2 -4q2 -4 5 -6q11 -9 24 -9q4 0 13 3l11 5l22 14q29 23 33 27q8 9 9 18v4q0 6 -4 16q-25 52 -82.5 82t-128.5 30q-89 0 -158 -37.5z" />
    <glyph glyph-name="d" unicode="d" 
d="M482 31q2 -32 38 -32h22q18 0 27 2q34 7 40 39l110 693q4 26 -20 36q-16 6 -41 6q-23 0 -43 -9.5t-23 -32.5l-41 -260q-59 49 -155 49q-88 0 -155 -37.5t-106.5 -98.5t-50.5 -130q-4 -21 -4 -48q0 -60 25 -109.5t77 -79.5t130 -30q95 0 169 50q0 -5 1 -8zM482.5 371.5
q34.5 -34.5 34.5 -88.5q0 -46 -22.5 -87t-63.5 -65.5t-95 -24.5q-63 0 -96 34t-33 88q0 46 21.5 87t62 66t93.5 25q64 0 98.5 -34.5z" />
    <glyph glyph-name="e" unicode="e" horiz-adv-x="637" 
d="M243.5 486q-68.5 -37 -109 -98t-51.5 -131q-4 -21 -4 -46q0 -62 28.5 -112t84.5 -79.5t136 -29.5q66 0 125 20.5t105 62.5q11 9 14 23q1 9 -10.5 25.5t-27.5 29.5t-28 13q-8 0 -18 -4q-5 -2 -13 -8l-28 -19q-42 -26 -100 -26q-56 0 -92 25t-45 69h378q18 0 30.5 11.5
t14.5 24.5q5 35 5 62q0 98 -57 161t-180 63q-89 0 -157.5 -37zM227 312q21 44 61.5 69.5t94.5 25.5q53 0 85.5 -25.5t40.5 -69.5h-282z" />
    <glyph glyph-name="f" unicode="f" horiz-adv-x="378" 
d="M186 0q18 0 31 11t15 25l58 367h92q18 0 31 11t15 24l6 39q2 14 -7 25t-27 11h-93l17 102q5 33 17 55q15 29 36 29q16 0 38 -11l15 -9l8 -3q4 -2 10 -2q21 0 37 18l23 26l11 15q7 12 7 17q1 3 1 7q0 11 -13 21q-51 38 -121 38q-61 0 -103 -30t-64.5 -74t-29.5 -89
l-17 -110h-52q-18 0 -30.5 -11t-14.5 -25q-1 -9 -3.5 -22t-2.5 -19q0 -20 11 -27t35 -7q23 0 39 1l-57 -367q-2 -14 7 -25t27 -11h48z" />
    <glyph glyph-name="g" unicode="g" 
d="M394 523q-88 0 -154.5 -38t-106.5 -99t-50 -129q-4 -21 -4 -48q0 -60 25 -109.5t77 -79.5t129 -30q96 0 171 51l-4 -27q-11 -66 -56.5 -105.5t-121.5 -39.5q-73 0 -130 37q-11 7 -26 8h-4l-4 -2q-16 -6 -38.5 -34t-24.5 -42v-6q0 -15 13 -24q31 -24 88.5 -38.5
t106.5 -14.5q90 0 160 36.5t112.5 97.5t53.5 133l71 452q4 26 -20 36q-16 6 -41 6q-44 0 -60 -25q-4 -7 -6 -16q-57 50 -156 50zM481.5 372.5q34.5 -34.5 34.5 -88.5q0 -45 -22.5 -86t-64 -66t-94.5 -25q-63 0 -95.5 33.5t-32.5 87.5q0 46 21 87.5t61 66.5t94 25
q64 0 98.5 -34.5z" />
    <glyph glyph-name="h" unicode="h" horiz-adv-x="646" 
d="M168 0q18 0 30.5 11t14.5 25l34 212q6 36 28 73t56 61.5t74 24.5q46 0 65.5 -20.5t19.5 -58.5q0 -16 -3 -36l-41 -257q-2 -14 7.5 -24.5t27.5 -10.5h48q18 0 31 10.5t15 24.5l41 257q4 24 4 53q0 79 -44.5 128.5t-144.5 49.5q-85 0 -150 -47l39 258q2 14 -3.5 23
t-16.5 13q-16 6 -42 6q-23 0 -42.5 -10t-22.5 -32l-109 -699q-2 -14 8 -24.5t27 -10.5h49z" />
    <glyph glyph-name="i" unicode="i" horiz-adv-x="294" 
d="M195.5 715.5q-26.5 -27.5 -26.5 -63.5q0 -27 18.5 -45.5t54.5 -18.5q44 0 69.5 28.5t25.5 62.5q0 27 -18 45.5t-53 18.5q-44 0 -70.5 -27.5zM171 0q18 0 31 10.5t15 24.5l70 443q2 14 -7.5 24.5t-27.5 10.5h-48q-18 0 -30 -11t-15 -24l-70 -443q-2 -14 7.5 -24.5
t27.5 -10.5h47z" />
    <glyph glyph-name="j" unicode="j" horiz-adv-x="316" 
d="M215 715.5q-27 -27.5 -27 -62.5q0 -27 18.5 -46t53.5 -19q44 0 70.5 27.5t26.5 61.5q0 28 -18.5 47t-53.5 19q-43 0 -70 -27.5zM-61 -122q-17 -15 -30 -33.5t-15 -27.5v-4q0 -14 9 -21q3 -3 9 -7l10 -6q49 -28 105 -28q60 0 102 30t64.5 74t30.5 89l83 533q2 14 -6.5 25
t-27.5 11h-47q-19 0 -32 -11t-15 -25l-83 -524q-5 -33 -17 -55q-14 -29 -35 -29q-13 0 -37 10l-17 9q-10 5 -19 5q-15 0 -32 -15z" />
    <glyph glyph-name="k" unicode="k" horiz-adv-x="547" 
d="M168 0q17 0 30 11t15 24l26 160l159 -181q5 -6 14.5 -10t19.5 -4h72q16 0 29.5 8t15.5 23v5q0 11 -9 20l-194 220l223 181q8 7 13 14t5 16q0 13 -10.5 19.5t-25.5 6.5h-73q-21 0 -37 -13l-178 -151l66 421q2 14 -7 24t-27 10h-49q-17 0 -30 -10t-15 -24l-116 -735
q-2 -13 7.5 -24t26.5 -11h49z" />
    <glyph glyph-name="l" unicode="l" horiz-adv-x="295" 
d="M172 0q17 0 30 11t15 24l112 705q2 14 -7.5 24t-27.5 10h-48q-18 0 -30.5 -10t-14.5 -24l-111 -705q-2 -14 7 -24.5t27 -10.5h48z" />
    <glyph glyph-name="m" unicode="m" horiz-adv-x="951" 
d="M274 493q-5 11 -18 15.5t-36 4.5t-42 -9.5t-22 -31.5l-69 -437q-3 -13 5.5 -24t26.5 -11h46q18 0 31 11t15 25l33 212q6 35 26 72t51.5 62t69.5 25q35 0 52.5 -14.5t21.5 -45.5q1 -7 1 -20q0 -9 -1 -13l-14 -93l-30 -185q-2 -13 7.5 -24.5t27.5 -11.5h46q18 0 30 11
t14 24l25 160l13 80q3 11 4 14l7 16q20 44 51.5 73t73.5 29q73 0 73 -75q0 -12 -4 -40l-40 -256q-2 -14 7 -25t27 -11h49q18 0 31 11t15 25l39 256q5 32 5 58q0 76 -40 124.5t-134 48.5q-51 0 -97 -19.5t-82 -53.5q-21 36 -60 54.5t-93 18.5q-78 0 -139 -45q0 8 -3 15z" />
    <glyph glyph-name="n" unicode="n" horiz-adv-x="647" 
d="M277 494q-9 20 -57 20q-23 0 -43 -9.5t-23 -32.5l-69 -437q-2 -13 7.5 -24t26.5 -11h49q18 0 30.5 11t14.5 25l34 212q6 36 28 73t56 61.5t74 24.5q46 0 65.5 -20.5t19.5 -58.5q0 -16 -3 -36l-41 -257q-2 -14 7.5 -24.5t27.5 -10.5h48q18 0 31 10.5t15 24.5l41 257
q4 24 4 53q0 79 -44.5 128.5t-144.5 49.5q-86 0 -150 -47q0 10 -4 18z" />
    <glyph glyph-name="o" unicode="o" horiz-adv-x="637" 
d="M243.5 486q-68.5 -37 -109 -98t-51.5 -131q-4 -21 -4 -47q0 -61 26 -110.5t79.5 -79.5t132.5 -30q89 0 157.5 37.5t109.5 98.5t52 131q4 21 4 47q0 61 -26.5 110.5t-80 79t-132.5 29.5q-89 0 -157.5 -37zM478.5 373q32.5 -34 32.5 -88q0 -8 -2 -28q-10 -65 -56 -107.5
t-118 -42.5q-63 0 -95.5 33.5t-32.5 87.5q0 46 21 87.5t61 66.5t94 25q63 0 95.5 -34z" />
    <glyph glyph-name="p" unicode="p" 
d="M284 479q0 9 -3 16q-6 11 -20.5 15.5t-38.5 4.5q-23 0 -43 -10t-23 -32l-110 -693q-4 -26 20 -36q13 -6 42 -6q24 0 43 10t22 32l41 261q59 -50 156 -50q88 0 154.5 37.5t106 98.5t50.5 130q4 21 4 48q0 60 -25 109.5t-77 79.5t-129 30q-96 0 -170 -50v5zM523.5 373.5
q32.5 -33.5 32.5 -86.5q0 -48 -20.5 -89t-60.5 -66t-94 -25q-64 0 -98.5 35t-34.5 89q0 46 22.5 86.5t63.5 65t95 24.5q62 0 94.5 -33.5z" />
    <glyph glyph-name="q" unicode="q" 
d="M397 524q-88 0 -155 -38t-107 -99t-51 -130q-4 -21 -4 -48q0 -60 25 -109t77 -79t130 -30q98 0 170 50l-41 -261q-3 -15 7 -28t31 -13h23q17 0 26 2q16 3 26.5 13t13.5 26l110 693q3 27 -21 37q-13 5 -42 5q-44 0 -59 -26q-4 -8 -6 -15q-59 50 -153 50zM482.5 372.5
q34.5 -34.5 34.5 -88.5q0 -46 -22.5 -87t-63.5 -65.5t-95 -24.5q-63 0 -95.5 33.5t-32.5 87.5q0 46 21 87.5t61 66.5t94 25q64 0 98.5 -34.5z" />
    <glyph glyph-name="r" unicode="r" horiz-adv-x="415" 
d="M280 482q-4 31 -39 31h-35q-20 0 -35 -13t-17 -28l-69 -437q-2 -13 7.5 -24t26.5 -11h49q18 0 30.5 11t14.5 25l34 212q6 36 28 73t56 61.5t74 24.5h7q3 1 9 1q11 3 18 10q11 9 20.5 30t11.5 33q3 14 -8.5 28t-30.5 14q-85 0 -152 -47v6z" />
    <glyph glyph-name="s" unicode="s" horiz-adv-x="485" 
d="M122 149q-16 0 -32.5 -14.5t-28 -33t-12.5 -26.5l-1 -6q0 -13 10 -23l11 -9l11 -6q66 -40 159 -40q62 0 115.5 21.5t86 63.5t32.5 100q0 53 -33.5 82t-89.5 48l-48 14q-32 11 -40 14q-29 13 -29 33t22 30t54 10q51 0 93 -28q1 0 2.5 -1.5t5.5 -2.5q8 -4 13 -4q22 0 37 19
l20 27q11 17 14 32l1 5q0 12 -11 21q-25 24 -68 36.5t-87 12.5q-61 0 -113 -22.5t-83 -64t-31 -95.5t33.5 -83t90.5 -48l49 -15q26 -7 40 -14q33 -14 29 -36q-3 -19 -28 -29.5t-58 -10.5q-30 0 -61 9.5t-52 25.5l-4 2l-4 3q-6 3 -15 3z" />
    <glyph glyph-name="t" unicode="t" horiz-adv-x="394" 
d="M166 403l-34 -218q-5 -28 -5 -58q0 -59 28 -98t98 -39q60 0 123 43q16 12 18 26v3q0 9 -3 13l-7 17q-11 19 -17 26q-10 15 -30 15q-12 0 -22 -6l-16 -10q-18 -10 -25 -10q-14 0 -17 28v9q0 14 1 20l3 24l34 215h93q17 0 30.5 10.5t15.5 23.5l6 40q2 14 -7 25t-27 11h-94
l22 137q2 13 -7.5 23.5t-26.5 10.5h-49q-19 0 -30.5 -11t-14.5 -25l-21 -135h-53q-18 0 -30.5 -11t-14.5 -25l-7 -40q-2 -13 8 -23.5t27 -10.5h51z" />
    <glyph glyph-name="u" unicode="u" horiz-adv-x="647" 
d="M449 32q4 -32 39 -32l22 -1q24 0 43.5 10t22.5 32l69 437q2 13 -7.5 24t-26.5 11h-49q-19 0 -31 -11t-15 -25l-33 -213q-6 -35 -28.5 -72t-56.5 -61.5t-74 -24.5q-45 0 -64.5 20.5t-19.5 57.5q0 17 3 36l41 258q2 14 -7.5 24.5t-27.5 10.5h-50q-18 0 -30 -11t-14 -24
l-41 -256q-4 -24 -4 -54q0 -79 44 -128.5t144 -49.5q86 0 151 48v-6z" />
    <glyph glyph-name="v" unicode="v" horiz-adv-x="542" 
d="M297 0q27 0 45 25q7 11 17 28t16 26l15 26l92 154q61 102 67 112q58 96 61 109q2 14 -7.5 23.5t-26.5 9.5h-57q-14 0 -27 -8t-19 -19l-174 -307l-77 308q-3 11 -11.5 18.5t-23.5 7.5h-59q-17 0 -29.5 -9.5t-14.5 -23.5q-1 -6 7.5 -39.5t18.5 -69.5q14 -55 21.5 -80.5
t9.5 -31.5l45 -162l15 -51l2 -10q2 -8 4 -11q10 -25 38 -25h52z" />
    <glyph glyph-name="w" unicode="w" horiz-adv-x="736" 
d="M98 504q-12 -9 -14 -22v-6q0 -4 1 -6q0 -5 2 -17q2 -17 4 -27l24 -164l24 -155q1 -10 4.5 -35t8.5 -45q2 -11 10.5 -19t24.5 -8h58q14 0 28 8.5t19 19.5l125 275l38 -275q2 -12 11 -20t25 -8h58q15 0 27 8t17 19l207 444l2 4l2 7q2 13 -7 22t-25 9h-59q-16 0 -28 -8.5
t-17 -20.5l-118 -274l-39 274q-2 12 -11 20.5t-25 8.5h-52q-16 0 -28 -8.5t-18 -20.5l-126 -274l-31 274q-1 12 -10 20.5t-25 8.5h-59q-16 0 -28 -9z" />
    <glyph glyph-name="x" unicode="x" horiz-adv-x="547" 
d="M128 0q13 0 26 5.5t21 14.5l120 132l80 -132q5 -9 16 -14.5t24 -5.5h65q16 0 28.5 8t15.5 22v4q0 10 -5 18l-129 205l202 204q9 9 12 21q2 14 -8.5 22.5t-26.5 8.5h-64q-27 0 -45 -20l-131 -138l-84 138q-5 9 -15.5 14.5t-23.5 5.5h-65q-16 0 -29 -8.5t-15 -22.5l-1 -6
q0 -6 6 -16l130 -209q-18 -17 -102 -105q-34 -35 -66 -71q-17 -18 -22 -26q-2 -3 -4 -5t-3 -4q-4 -5 -4 -10q-2 -14 7.5 -22t25.5 -8h64z" />
    <glyph glyph-name="y" unicode="y" horiz-adv-x="548" 
d="M86 -228.5q10 -9.5 28 -9.5h49q27 0 45 25q16 23 204 345q199 339 201 347q2 14 -8 24t-27 10h-56q-15 0 -27.5 -7.5t-18.5 -18.5l-175 -303l-75 302q-3 12 -13 19.5t-25 7.5h-56q-17 0 -30 -9t-15 -24q-2 -9 19 -85.5t26 -95.5q5 -15 10 -35q46 -166 68 -237
q-42 -70 -70 -119q-59 -99 -62 -113q-2 -14 8 -23.5z" />
    <glyph glyph-name="z" unicode="z" horiz-adv-x="540" 
d="M451 0q19 0 31 11t15 25l6 38q2 15 -6.5 25.5t-28.5 10.5h-206l290 347q9 14 11 22q2 15 -9 24.5t-29 9.5h-342q-19 0 -31 -11t-15 -25l-6 -40q-2 -13 7.5 -23.5t27.5 -10.5h191l-292 -349q-9 -14 -10 -21q-3 -16 8.5 -24.5t28.5 -8.5h359z" />
    <glyph glyph-name="braceleft" unicode="{" horiz-adv-x="450" 
d="M321 -170q18 0 31 11t15 25l6 43q3 16 -6.5 24.5t-24.5 10.5q-10 2 -15 2l-10 -1h-22l-1 1l-3 10q-1 4 -1 11q0 8 1 15.5t2 13.5l26 166q3 17 3 33q0 65 -41 107q35 27 56 64t27 76l26 167q4 26 11 39q3 7 6 10l2 1l21 -1q16 0 25 1q38 6 43 36l7 43q2 14 -7 25t-28 11
h-45q-77 0 -115.5 -50.5t-48.5 -114.5l-27 -172q-4 -25 -17.5 -46t-34.5 -30q-1 0 -2 -0.5t-3 -0.5l-8 -2q-13 -4 -22.5 -12.5t-10.5 -19.5l-8 -45q-3 -25 24 -34q41 -13 41 -60q0 -6 -2 -20l-27 -171q-3 -20 -3 -42q0 -53 25.5 -88.5t88.5 -35.5h46z" />
    <glyph glyph-name="braceright" unicode="}" horiz-adv-x="450" 
d="M122 -170q77 0 114.5 50.5t48.5 115.5l27 171q10 64 66 80q29 8 33 33l7 44q4 23 -21 33l-10 3q-1 0 -2 0.5t-2 0.5q-30 15 -30 59q0 12 1 17l28 172q3 20 3 42q0 53 -25.5 88t-88.5 35h-45q-19 0 -31 -11t-15 -25l-7 -43q-2 -14 7 -25t27 -11h43l1 -2q2 -3 4 -14v-8
q0 -16 -2 -26l-28 -167q-2 -20 -2 -29q0 -68 42 -111q-36 -27 -57 -63.5t-27 -76.5l-5 -33l-11 -76q-13 -83 -20 -96q-3 -7 -6 -10l-2 -1h-43q-18 0 -30.5 -11t-14.5 -25l-7 -44q-2 -14 6.5 -25t27.5 -11h46z" />
    <glyph glyph-name="asciitilde" unicode="~" horiz-adv-x="664" 
d="M267 273q17 0 32 -14q3 -2 17 -16l19 -20q27 -27 56.5 -42.5t74.5 -15.5q66 0 119.5 44t82.5 100q2 4 4 12v4q0 13 -7 23q-3 5 -21 25l-14 13q-11 8 -21 8q-19 0 -31 -14q-7 -7 -15 -21l-12 -19q-16 -24 -28 -34q-18 -15 -35 -15t-33 13l-17 17l-18 20q-26 26 -56 41.5
t-77 15.5q-66 0 -117.5 -43t-82.5 -100q-4 -8 -5 -13v-3q0 -7 4 -15q1 -2 10 -16q5 -7 11.5 -14.5t9.5 -10.5q11 -13 28 -13q18 0 30 12q5 3 8 10l8 11q8 15 12 21q16 24 28 35q17 14 36 14z" />
    <glyph glyph-name="cent" unicode="&#xa2;" horiz-adv-x="715" 
d="M456 -8q49 6 96 25t81 49q17 15 17 32q0 12 -13 31q-11 14 -24 25q-11 11 -29 11t-33 -11q-38 -25 -65.5 -35t-67.5 -10q-71 0 -111 38t-40 97q0 52 25.5 96.5t71.5 71t106 26.5t98 -29q2 -1 8 -7l4 -4l6 -5q13 -9 29 -9q17 0 33 11q20 15 31 25q22 19 24 35l1 6
q0 10 -9 21q-24 29 -63.5 47.5t-85.5 25.5l10 63q2 15 -9 28t-31 13h-52q-21 0 -36 -13t-17 -28l-11 -68q-76 -17 -135.5 -58.5t-96.5 -98t-47 -119.5q-3 -21 -3 -42q0 -84 50.5 -148t144.5 -87l-11 -69q-2 -15 8.5 -28t30.5 -13h53q20 0 35 13t17 28z" />
    <glyph glyph-name="sterling" unicode="&#xa3;" horiz-adv-x="763" 
d="M357 309h256q20 0 35 12.5t17 28.5l7 45q2 16 -8.5 28.5t-30.5 12.5h-255l9 60q9 59 55 96.5t114 37.5q56 0 92 -27l7 -6q3 -5 8 -8q11 -11 29 -11q7 0 22 5q7 3 21 11q16 8 34 20q23 14 26 33l1 6q0 11 -8 21q-29 40 -89 62.5t-123 22.5q-89 0 -162.5 -35t-119.5 -95.5
t-58 -132.5l-10 -60h-51q-20 0 -34.5 -13t-16.5 -28q-5 -27 -7 -47v-5q0 -16 10 -25q6 -5 16 -6.5t20 -2.5h43l-29 -182h-51q-21 0 -35 -13t-16 -28l-7 -45q-3 -15 7 -28t31 -13h548q21 0 36 12.5t17 28.5l7 45q2 15 -8.5 28t-30.5 13h-346z" />
    <glyph glyph-name="yen" unicode="&#xa5;" horiz-adv-x="858" 
d="M676 436l219 236q12 12 15 28q2 19 -10 31.5t-35 12.5h-65q-10 0 -21 -4.5t-18 -11.5l-263 -294l-170 294q-10 16 -34 16h-64q-23 0 -39.5 -13.5t-19.5 -31.5q-1 -2 -1 -7q0 -11 6 -20l144 -236h-77q-20 0 -34.5 -13t-16.5 -28q-1 -3 -2 -7.5t-2 -10.5q0 -3 -1.5 -10.5
t-0.5 -13.5q0 -14 9 -24.5t29 -10.5h167l11 -18l-5 -30h-180q-21 0 -35 -13t-17 -28q0 -5 -1 -9.5t-2 -8.5q-3 -12 -3 -24q2 -36 39 -36h181l-18 -110q-2 -16 8.5 -28.5t31.5 -12.5h59q21 0 35 13t16 28l18 110h180q22 0 36.5 13t16.5 29l3 18q3 11 3 23q-2 36 -40 36h-180
l4 30l17 18h167q21 0 35.5 12t16.5 28l4 18q2 16 2 24q-2 36 -39 36h-79z" />
    <glyph glyph-name="copyright" unicode="&#xa9;" horiz-adv-x="1074" 
d="M306.5 706q-99.5 -51 -154 -139t-54.5 -194t54 -194t154 -139.5t230 -51.5q131 0 230.5 51.5t154 139.5t54.5 194t-54.5 194t-154.5 139t-230 51t-229.5 -51zM699 611q70 -36 107.5 -98.5t37.5 -139.5t-37.5 -140t-107.5 -99t-163 -36q-94 0 -163.5 36t-106.5 99t-37 140
t37.5 139.5t107.5 98.5t162 36q93 0 163 -36zM404 579.5q-57 -33.5 -86.5 -88.5t-29.5 -118q0 -62 28.5 -117.5t84.5 -89.5t136 -34q64 0 121 27t87 74q6 9 6 19t-12.5 24.5t-29.5 25.5t-29 11q-14 0 -25 -8q-1 -1 -6 -5l-3 -4q-21 -27 -47 -40t-62 -13q-62 0 -96 37t-34 93
t33.5 92.5t96.5 36.5q36 0 62 -13.5t47 -40.5l3 -3q2 -3 6 -6q11 -8 25 -8q11 0 28 11t30 26t13 24q0 10 -6 19q-28 46 -84.5 74t-119.5 28q-80 0 -137 -33.5z" />
    <glyph glyph-name="registered" unicode="&#xae;" horiz-adv-x="1074" 
d="M306.5 706q-99.5 -51 -154 -139t-54.5 -194t54 -194t154 -139.5t230 -51.5q131 0 230.5 51.5t154 139.5t54.5 194t-54.5 194t-154.5 139t-230 51t-229.5 -51zM699 611q70 -36 107.5 -98.5t37.5 -139.5t-37.5 -140t-107.5 -99t-163 -36q-94 0 -163.5 36t-106.5 99t-37 140
t37.5 139.5t107.5 98.5t162 36q93 0 163 -36zM449 136q18 0 29 11.5t11 24.5v146h9l100 -162q14 -20 37 -20h41q17 0 28.5 9t11.5 24q0 4 -2 8q0 2 -1 3.5t-2 3.5q-2 3 -4 7.5t-7 11.5l-33 53q-23 35 -50 74q49 17 73 54t24 84q0 67 -46 108.5t-127 41.5h-123
q-18 0 -29.5 -11t-11.5 -25v-410q0 -14 11 -25t30 -11h31zM542 519q31 0 46 -12.5t15 -38.5q0 -27 -14.5 -39t-46.5 -12h-53v102h53z" />
    <glyph glyph-name="multiply" unicode="&#xd7;" horiz-adv-x="560" 
d="M241 332l-134 -113q-12 -11 -14 -24v-6q0 -13 6 -19l34 -37q10 -12 27 -12q16 0 32 12l129 108l91 -107q9 -11 28 -11q18 0 31 11l42 35q12 11 14 25v5q0 12 -7 19l-97 110l134 113q13 11 14 24l1 6q0 10 -8 18l-32 37q-9 12 -28 12t-31 -12l-128 -108l-92 108
q-8 11 -28 11q-19 0 -31 -11l-42 -35q-12 -11 -14 -24v-5q0 -14 6 -20z" />
    <glyph glyph-name="divide" unicode="&#xf7;" horiz-adv-x="651" 
d="M593 270q18 0 30.5 11.5t15.5 24.5l8 48q2 14 -7.5 25t-27.5 11h-193q31 9 48 34.5t17 52.5t-18 45.5t-53 18.5q-43 0 -70.5 -27t-27.5 -62q0 -21 11.5 -38t33.5 -24h-196q-18 0 -31 -11t-15 -25l-8 -48q-2 -14 7.5 -25t27.5 -11h192q-29 -9 -46.5 -33t-17.5 -51t19 -46
t55 -19q44 0 69.5 28t25.5 62q0 20 -10 36t-29 23h190z" />
    <glyph glyph-name="endash" unicode="&#x2013;" horiz-adv-x="685" 
d="M605 270q18 0 30.5 11.5t14.5 24.5l8 48q2 14 -7.5 25t-27.5 11h-437q-18 0 -31 -11t-15 -25l-8 -48q-2 -14 7.5 -25t27.5 -11h438z" />
    <glyph glyph-name="emdash" unicode="&#x2014;" horiz-adv-x="971" 
d="M889 269q19 0 31 11t15 25l8 48q2 14 -7.5 25t-27.5 11h-722q-18 0 -31 -11t-15 -25l-8 -48q-2 -14 7 -25t28 -11h722z" />
    <glyph glyph-name="quoteleft" unicode="&#x2018;" horiz-adv-x="285" 
d="M181 761q-26 -34 -33 -77q-2 -10 -2 -32q0 -56 23.5 -107.5t68.5 -78.5q10 -6 21 -6q14 0 29 10.5t26 24.5t13 23v4q0 11 -8 21q-6 6 -11.5 11t-9.5 9q-26 31 -31 69q33 11 51 37t18 55t-19 50t-57 21q-53 0 -79 -34z" />
    <glyph glyph-name="quoteright" unicode="&#x2019;" horiz-adv-x="286" 
d="M123 515q0 -16 15 -35.5t34 -19.5q12 0 22 6q46 22 83 66t58 93.5t21 85.5q0 35 -17.5 59.5t-60.5 24.5q-33 0 -56 -15t-35 -38t-12 -46q0 -22 11 -39t34 -25q-18 -38 -54 -69q-6 -4 -13 -9t-14 -11q-16 -14 -16 -28z" />
    <glyph glyph-name="quotedblleft" unicode="&#x201c;" horiz-adv-x="448" 
d="M333 745q-5 22 -23 36t-49 14q-53 0 -79 -34.5t-33 -76.5q-2 -10 -2 -32q0 -56 23.5 -107.5t68.5 -78.5q10 -6 21 -6q14 0 29 10.5t26 24.5t13 23v4q0 11 -8 21q-6 6 -11.5 11t-9.5 9q-26 30 -32 69q26 8 44 28q-2 -57 22 -113.5t70 -80.5q10 -6 20 -6q14 0 29 10.5
t26 24.5t13 22v5q0 13 -10 21q-23 23 -35 43.5t-15 45.5q33 11 51 37t18 54q0 30 -19 51t-57 21q-60 0 -91 -50z" />
    <glyph glyph-name="quotedblright" unicode="&#x201d;" horiz-adv-x="448" 
d="M123 515q0 -16 15 -35.5t34 -19.5q12 0 22 6q54 26 96 81.5t58 111.5q11 -18 34 -27q-9 -23 -28 -43l-23 -22l-29 -24q-13 -12 -16 -25q-1 -9 5.5 -23t18 -24.5t25.5 -10.5q9 0 23 6q41 20 75.5 57.5t56 81t27.5 80.5q2 16 2 26q0 35 -17.5 59.5t-60.5 24.5
q-30 0 -53 -14t-36 -36q-15 50 -74 50q-33 0 -56 -15t-35 -38t-12 -46q0 -22 11 -39t33 -25q-16 -37 -53 -69q-6 -4 -13 -9t-14 -11q-16 -14 -16 -28z" />
    <glyph glyph-name="Euro" unicode="&#x20ac;" horiz-adv-x="906" 
d="M256 105q44 -55 114 -86t161 -31q81 0 161 28t135 80q14 14 16 26v6q0 14 -11 25q-7 9 -24 24q-9 9 -17 13q-9 7 -22 7q-16 0 -36 -13q-46 -36 -86.5 -51.5t-95.5 -15.5q-70 0 -118.5 30t-69.5 84h281q17 0 29 7.5t18 19.5q6 14 7 20l3 17l1 14q0 10 -3 19q-10 21 -36 21
h-316q0 12 3 24q2 16 4 24h316q20 0 35 12t18 28q0 5 1 10t2 9q3 13 2 24q0 14 -9 24.5t-30 10.5h-280q39 53 96.5 84t126.5 31q80 0 130 -47l6 -6l5 -7q12 -12 15 -14q13 -11 30 -11t35 12l16 12l20 16q25 23 27 39q3 16 -14 36q-8 10 -13 14l-13 11q-87 72 -222 72
t-244.5 -67t-167.5 -175h-66q-20 0 -34.5 -12.5t-16.5 -28.5l-6 -37q-2 -15 8.5 -27.5t30.5 -12.5h42q-2 -8 -4 -24q-3 -12 -3 -24q-11 1 -29 1q-20 0 -34 -5q-17 -6 -25 -22q-6 -12 -11 -38l-1 -14q0 -9 3 -18q7 -22 35 -22h66q15 -71 59 -126z" />
    <glyph glyph-name="trademark" unicode="&#x2122;" horiz-adv-x="622" 
d="M217 507q0 -20 15 -28t35 -8q18 0 30.5 9t12.5 26v32l1 -1l6 -12l-6 4l20 -40q10 -18 41 -18q8 0 12 1q9 0 13 2q17 5 23 19l19 43v-30q0 -35 50 -35q19 0 31 9.5t12 25.5v239q0 21 -15 27.5t-36 6.5q-36 0 -46 -22l-61 -140l-61 141q-4 12 -25 19q-9 2 -26 2
q-13 0 -24 -4q-8 2 -13 2h-180q-25 0 -34 -18q-5 -9 -5 -26q0 -14 9 -26t30 -12h42v-191q0 -35 51 -35q18 0 31 9t13 26v190h18h17v-187z" />
    <glyph glyph-name="minus" unicode="&#x2212;" horiz-adv-x="651" 
d="M164 390q-18 0 -31 -11t-15 -25l-8 -48q-2 -14 7.5 -25t27.5 -11h448q18 0 30.5 11.5t15.5 24.5l8 48q2 14 -7.5 25t-27.5 11h-448z" />
    <glyph glyph-name="_FSHallmark" horiz-adv-x="980" 
d="M92 784h819v-96h-819v96zM805 505q0 10 -7 22q-9 10 -18 17q-16 8 -23 10q-5 1 -11 2t-13 1q-24 0 -47 -12q-20 -13 -20 -29q0 -29 18 -40q25 -13 44 -17l65 -15q17 -6 29 -7q5 -1 24 -6q5 -3 10.5 -5.5t10.5 -5.5q21 -13 31 -27q12 -19 12 -48q0 -22 -10 -44
q-25 -41 -72 -58q-48 -15 -93 -15q-39 0 -67 9q-26 7 -57 27q-25 18 -42 47q-15 27 -15 64l95 -2q0 -5 4 -14q2 -15 14 -26q11 -11 25 -17q17 -9 46 -9q33 0 52 12q20 9 20 25q0 30 -78 46q-74 18 -120 43q-49 26 -49 82q0 48 32 74t72 39q34 8 68 8q48 0 93 -18
q44 -18 65 -65q11 -27 11 -48h-99zM200 228h-108v407h345v-93h-237v-91h197v-91h-197v-132zM442 312q13 13 35 13q20 0 39 -14q16 -13 16 -34q0 -19 -16 -34q-17 -13 -39 -13q-19 0 -34 15q-15 14 -15 32q0 21 14 35zM90 177h820v-97h-820v97z" />
    <glyph glyph-name="_Fontastica" horiz-adv-x="980" 
d="M283 147h-113q-1 2 -1 5v664h497v-102h-383v-273h384v-103h-384v-191zM355 626h385v190h113v-667h-498v101h385v273h-385v103zM733 72q0 -9 5 -14q5 -6 12 -6q9 0 18 6l6 -6q-9 -11 -24 -11q-10 0 -21 6q-6 8 -9 21v3q0 11 8 19q10 10 22 10q14 0 24 -10l-6 -8q-1 2 -3 3
t-3 2q-1 2 -9 2h-3q-9 -4 -10 -7q-7 -3 -7 -10zM170 99h42v-10h-27v-16h26v-9h-26v-22h-15v57zM293 84q4 -5 4 -14q0 -8 -2 -12q-6 -16 -25 -17l-7 -3q-8 0 -12 4q-18 8 -18 25q0 15 9 23q6 9 22 9q19 0 29 -15zM374 42h-3l-4 -1q-5 0 -9 6l-6 8q-1 2 -2.5 4t-2.5 4l-12 14
v-35h-13v57h11q4 -1 6 -8l13 -14q2 -3 4.5 -7.5t6.5 -9.5v39h11v-57zM399 99h48v-10h-18v-47h-12v47h-18v10zM589 59v-3q0 -10 -10 -14q-2 -1 -11 -1q-19 0 -27 9l1 2l1 2q0 2 2 4l18 -6h8q1 2 2.5 3t1.5 0q0 9 -13 12q-2 0 -3 1t-5 1q-5 1 -7 4t-2 9l-1 4q0 7 9 11
q6 2 13 2q14 0 23 -5l-5 -10l-4 1l-3 1q-1 1 -4 1q-1 0 -2 2h-8q-4 0 -4 -4v-1q0 -3 4 -7q6 -1 14 -5q12 -1 12 -13zM608 99h50v-10h-18v-47h-13v47h-19v10zM681 99h15v-57h-15v57zM832 99l12 -27q0 -2 6 -16q4 -10 7 -14h-13l-5 12h-28l-5 -12h-13q15 29 23 57h16zM497 97
q2 -6 6 -13q3 -4 4.5 -7.5t2.5 -5.5q1 -3 2.5 -7t2.5 -8t2.5 -7.5t2.5 -6.5h-13q-1 1 -1 5q0 1 -1 2.5t-2 4.5h-26q-1 -2 -1 -7l-1 -2l-3 -3h-12l24 55h13zM281 71q0 8 -4 13q-7 5 -14 5q-2 -2 -4 -2q-6 -1 -11 -9q-6 -7 -1 -14q4 -13 17 -13q4 0 5 1q12 3 12 17v2zM499 64
q-1 1 -1 2.5t-1 2.5l-1.5 3t-1.5 2q-1 2 -1 6q-1 1 -1.5 2.5t-1.5 2.5l-10 -21h19zM833 64q-1 1 -1 5q-2 5 -3 5l-2 6q-1 1 -1.5 2.5t-1.5 2.5l-9 -21h18z" />
    </font>
</defs>
</svg>
